M48
;GenerationSoftware,Autodesk,EAGLE,9.6.2*%
;CreationDate,2025-10-20T11:52:15Z*%
FMAT,2
ICI,OFF
METRIC,TZ,000.000
T3C0.305
T2C0.400
T1C1.016
%
G90
M71
T1
X25098Y6430
X25098Y3890
X22558Y6430
X22558Y3890
X20018Y6430
X20018Y3890
T2
X35475Y23072
X33675Y23072
X33675Y24872
X35475Y24872
X34575Y23972
T3
X7239Y30353
X25502Y25679
X24359Y27404
X38811Y21869
X26924Y3810
X38100Y26924
X31242Y21057
X32563Y21057
X31102Y24981
X29083Y24994
X32664Y13614
X18377Y13195
X8319Y18174
X8331Y24206
X27445Y25133
X25019Y31217
X22987Y28372
X26746Y30988
X28169Y25857
X25806Y31979
X8382Y25832
X15392Y10236
X9322Y25070
X16231Y11074
X21742Y19914
X27495Y11265
X18677Y31758
X16764Y29845
X19558Y29210
X14072Y28727
X14072Y27762
X19558Y28067
X19571Y26962
X19558Y25908
X13919Y26797
X13866Y25804
X19558Y24810
X14094Y24765
X14122Y23642
X19558Y23647
X13868Y22657
X13919Y21692
X19558Y22606
X19558Y21463
X19558Y20320
X14072Y20701
X14072Y19710
X19558Y19177
X16764Y18542
X18669Y16764
X19304Y9398
X28156Y14465
X3937Y23444
X5309Y16154
X7137Y11074
X37402Y21882
X29411Y33581
X26759Y29807
X32614Y26086
X30683Y26086
X19380Y34900
M30