G04 EAGLE Gerber RS-274X export*
G75*
%MOMM*%
%FSLAX34Y34*%
%LPD*%
%IN*%
%IPPOS*%
%AMOC8*
5,1,8,0,0,1.08239X$1,22.5*%
G01*
%ADD10C,0.001000*%


D10*
X249135Y5650D02*
X249135Y9064D01*
X249135Y5650D02*
X303695Y5650D01*
X303696Y5650D02*
X308643Y7563D01*
X313544Y9594D01*
X318395Y11742D01*
X323193Y14004D01*
X327935Y16381D01*
X332620Y18870D01*
X337243Y21471D01*
X341803Y24181D01*
X346297Y27000D01*
X350723Y29925D01*
X355077Y32955D01*
X359358Y36088D01*
X363562Y39323D01*
X367688Y42657D01*
X371733Y46088D01*
X375696Y49616D01*
X379572Y53237D01*
X383361Y56949D01*
X387061Y60751D01*
X390668Y64641D01*
X394181Y68615D01*
X394030Y68936D01*
X393887Y69262D01*
X393751Y69590D01*
X393624Y69922D01*
X393504Y70257D01*
X393392Y70594D01*
X393288Y70934D01*
X393193Y71276D01*
X393105Y71621D01*
X393026Y71967D01*
X392955Y72316D01*
X392892Y72665D01*
X392837Y73017D01*
X392791Y73369D01*
X392753Y73722D01*
X392724Y74077D01*
X392703Y74431D01*
X392690Y74787D01*
X392686Y75142D01*
X392686Y108156D01*
X392690Y108515D01*
X392703Y108873D01*
X392725Y109232D01*
X392755Y109589D01*
X392793Y109946D01*
X392840Y110302D01*
X392896Y110656D01*
X392960Y111009D01*
X393032Y111361D01*
X393113Y111710D01*
X393202Y112058D01*
X393300Y112403D01*
X393406Y112746D01*
X393519Y113086D01*
X393641Y113424D01*
X393772Y113758D01*
X393910Y114090D01*
X394055Y114418D01*
X394209Y114742D01*
X394370Y115062D01*
X394539Y115379D01*
X394716Y115691D01*
X394717Y115692D02*
X396961Y119661D01*
X399112Y123682D01*
X401168Y127751D01*
X403129Y131868D01*
X404993Y136030D01*
X406759Y140234D01*
X408426Y144478D01*
X409993Y148759D01*
X411460Y153077D01*
X412826Y157427D01*
X414090Y161809D01*
X414089Y161809D02*
X414156Y162040D01*
X414228Y162270D01*
X414306Y162498D01*
X414390Y162724D01*
X414478Y162948D01*
X414573Y163170D01*
X414672Y163390D01*
X414777Y163607D01*
X414887Y163821D01*
X415002Y164033D01*
X415123Y164242D01*
X415248Y164448D01*
X415378Y164651D01*
X415513Y164851D01*
X415653Y165047D01*
X415797Y165240D01*
X415946Y165429D01*
X416100Y165615D01*
X416258Y165797D01*
X416420Y165975D01*
X416587Y166149D01*
X416758Y166320D01*
X416933Y166485D01*
X417111Y166647D01*
X417294Y166804D01*
X417480Y166957D01*
X417670Y167106D01*
X417864Y167249D01*
X418061Y167388D01*
X418261Y167523D01*
X418464Y167652D01*
X418671Y167776D01*
X418880Y167896D01*
X419092Y168010D01*
X419307Y168119D01*
X419525Y168223D01*
X419745Y168322D01*
X419967Y168415D01*
X420191Y168503D01*
X420418Y168586D01*
X420646Y168663D01*
X420877Y168735D01*
X421108Y168801D01*
X421342Y168861D01*
X421576Y168916D01*
X421812Y168965D01*
X422050Y169008D01*
X422288Y169046D01*
X422527Y169077D01*
X422766Y169104D01*
X423006Y169124D01*
X423247Y169138D01*
X423488Y169147D01*
X423729Y169150D01*
X443601Y169150D01*
X444628Y174500D01*
X445522Y179874D01*
X446285Y185268D01*
X446915Y190679D01*
X447413Y196104D01*
X447776Y201539D01*
X448007Y206982D01*
X448104Y212429D01*
X448067Y217876D01*
X447896Y223321D01*
X447592Y228761D01*
X447155Y234191D01*
X446584Y239608D01*
X445881Y245010D01*
X445045Y250394D01*
X444078Y255755D01*
X442979Y261090D01*
X441750Y266397D01*
X440390Y271673D01*
X438902Y276913D01*
X437286Y282116D01*
X435542Y287277D01*
X433673Y292394D01*
X431678Y297463D01*
X429559Y302482D01*
X427319Y307447D01*
X424956Y312356D01*
X422475Y317206D01*
X419875Y321993D01*
X417158Y326715D01*
X414326Y331368D01*
X411381Y335951D01*
X408324Y340461D01*
X405158Y344894D01*
X401883Y349247D01*
X398503Y353520D01*
X395019Y357708D01*
X391434Y361809D01*
X387749Y365821D01*
X383966Y369741D01*
X380088Y373568D01*
X376118Y377298D01*
X372058Y380929D01*
X367909Y384460D01*
X363675Y387888D01*
X359358Y391211D01*
X354961Y394428D01*
X350487Y397535D01*
X345937Y400531D01*
X341316Y403415D01*
X336625Y406185D01*
X331867Y408839D01*
X327046Y411375D01*
X322164Y413793D01*
X317224Y416089D01*
X312229Y418264D01*
X307183Y420316D01*
X302087Y422243D01*
X296946Y424044D01*
X291762Y425719D01*
X286539Y427266D01*
X281279Y428685D01*
X275986Y429974D01*
X270663Y431133D01*
X265314Y432161D01*
X259940Y433057D01*
X254546Y433821D01*
X249135Y434452D01*
X249135Y418235D01*
X249132Y417991D01*
X249123Y417747D01*
X249108Y417504D01*
X249087Y417261D01*
X249061Y417018D01*
X249028Y416777D01*
X248990Y416536D01*
X248945Y416296D01*
X248895Y416057D01*
X248839Y415820D01*
X248777Y415584D01*
X248710Y415349D01*
X248636Y415117D01*
X248557Y414886D01*
X248473Y414657D01*
X248383Y414430D01*
X248287Y414206D01*
X248186Y413984D01*
X248080Y413764D01*
X247968Y413547D01*
X247851Y413333D01*
X247729Y413122D01*
X247602Y412914D01*
X247470Y412709D01*
X247332Y412508D01*
X247190Y412309D01*
X247043Y412115D01*
X246892Y411924D01*
X246735Y411736D01*
X246575Y411553D01*
X246409Y411373D01*
X246240Y411198D01*
X246066Y411027D01*
X245888Y410860D01*
X245706Y410697D01*
X245520Y410539D01*
X245331Y410386D01*
X245138Y410237D01*
X244941Y410093D01*
X244740Y409954D01*
X244537Y409819D01*
X244330Y409690D01*
X244120Y409566D01*
X243907Y409447D01*
X243691Y409333D01*
X243473Y409225D01*
X243252Y409122D01*
X243028Y409024D01*
X242802Y408932D01*
X242574Y408845D01*
X242344Y408764D01*
X242112Y408688D01*
X241879Y408619D01*
X241643Y408555D01*
X241406Y408496D01*
X241168Y408444D01*
X240929Y408397D01*
X240688Y408356D01*
X240447Y408321D01*
X240205Y408292D01*
X239962Y408269D01*
X239718Y408252D01*
X239475Y408241D01*
X239231Y408235D01*
X238987Y408236D01*
X238743Y408243D01*
X238499Y408255D01*
X238500Y408256D02*
X233743Y408500D01*
X228982Y408629D01*
X224219Y408641D01*
X219457Y408537D01*
X214699Y408316D01*
X209948Y407979D01*
X205207Y407527D01*
X200478Y406958D01*
X195764Y406275D01*
X191069Y405476D01*
X186394Y404563D01*
X181743Y403536D01*
X177119Y402396D01*
X172524Y401144D01*
X167960Y399779D01*
X163432Y398303D01*
X158941Y396717D01*
X154489Y395022D01*
X150081Y393219D01*
X145718Y391309D01*
X141403Y389292D01*
X137138Y387171D01*
X132927Y384946D01*
X128771Y382620D01*
X124673Y380192D01*
X120636Y377665D01*
X116662Y375040D01*
X112753Y372319D01*
X112752Y372318D02*
X112553Y372179D01*
X112350Y372045D01*
X112144Y371917D01*
X111935Y371793D01*
X111724Y371674D01*
X111509Y371560D01*
X111292Y371452D01*
X111072Y371349D01*
X110849Y371251D01*
X110625Y371159D01*
X110398Y371072D01*
X110169Y370991D01*
X109938Y370915D01*
X109706Y370845D01*
X109472Y370781D01*
X109236Y370722D01*
X108999Y370669D01*
X108761Y370622D01*
X108521Y370581D01*
X108281Y370545D01*
X108040Y370516D01*
X107799Y370492D01*
X107556Y370474D01*
X107314Y370462D01*
X107071Y370456D01*
X106828Y370456D01*
X106585Y370461D01*
X106343Y370473D01*
X106101Y370490D01*
X105859Y370513D01*
X105618Y370543D01*
X105378Y370578D01*
X105138Y370618D01*
X104900Y370665D01*
X104663Y370718D01*
X104427Y370776D01*
X104193Y370840D01*
X103960Y370909D01*
X103729Y370984D01*
X103500Y371065D01*
X103273Y371151D01*
X103048Y371243D01*
X102826Y371340D01*
X102606Y371443D01*
X102388Y371551D01*
X102173Y371664D01*
X101961Y371782D01*
X101752Y371905D01*
X101546Y372034D01*
X101343Y372167D01*
X101143Y372306D01*
X100947Y372449D01*
X100755Y372597D01*
X100566Y372749D01*
X100380Y372906D01*
X100199Y373068D01*
X100022Y373234D01*
X99848Y373404D01*
X99679Y373578D01*
X99514Y373756D01*
X99354Y373939D01*
X99198Y374125D01*
X98666Y374761D01*
X98118Y375384D01*
X97556Y375994D01*
X96980Y376590D01*
X96389Y377173D01*
X95785Y377741D01*
X95168Y378295D01*
X94538Y378834D01*
X93895Y379358D01*
X93240Y379867D01*
X92573Y380360D01*
X91894Y380837D01*
X91205Y381297D01*
X90505Y381742D01*
X89794Y382169D01*
X89073Y382580D01*
X88343Y382974D01*
X87604Y383350D01*
X86856Y383708D01*
X86100Y384049D01*
X85336Y384371D01*
X84565Y384676D01*
X80497Y381226D01*
X76512Y377679D01*
X72615Y374037D01*
X68806Y370303D01*
X65087Y366479D01*
X61462Y362566D01*
X57932Y358567D01*
X54498Y354485D01*
X51164Y350321D01*
X47931Y346079D01*
X44801Y341760D01*
X41775Y337367D01*
X38856Y332902D01*
X36045Y328369D01*
X33344Y323769D01*
X30754Y319106D01*
X28276Y314382D01*
X25913Y309600D01*
X23666Y304763D01*
X21535Y299873D01*
X19523Y294933D01*
X17629Y289946D01*
X15856Y284915D01*
X14205Y279843D01*
X12676Y274733D01*
X11270Y269587D01*
X9988Y264410D01*
X8831Y259203D01*
X7799Y253969D01*
X6893Y248713D01*
X6114Y243436D01*
X5462Y238142D01*
X4937Y232833D01*
X4540Y227514D01*
X4271Y222187D01*
X4130Y216854D01*
X4117Y211520D01*
X4232Y206188D01*
X4476Y200859D01*
X4847Y195538D01*
X5346Y190227D01*
X5973Y184930D01*
X6726Y179649D01*
X7606Y174388D01*
X8613Y169150D01*
X8612Y169150D02*
X28484Y169150D01*
X28725Y169147D01*
X28966Y169138D01*
X29207Y169124D01*
X29447Y169104D01*
X29686Y169077D01*
X29925Y169046D01*
X30163Y169008D01*
X30401Y168965D01*
X30637Y168916D01*
X30871Y168861D01*
X31105Y168800D01*
X31337Y168735D01*
X31567Y168663D01*
X31795Y168586D01*
X32022Y168503D01*
X32246Y168415D01*
X32468Y168322D01*
X32688Y168223D01*
X32906Y168119D01*
X33121Y168010D01*
X33333Y167896D01*
X33542Y167776D01*
X33749Y167652D01*
X33952Y167523D01*
X34152Y167388D01*
X34349Y167249D01*
X34543Y167106D01*
X34733Y166957D01*
X34919Y166804D01*
X35102Y166647D01*
X35280Y166485D01*
X35455Y166319D01*
X35626Y166149D01*
X35793Y165975D01*
X35955Y165797D01*
X36113Y165615D01*
X36267Y165429D01*
X36416Y165240D01*
X36560Y165047D01*
X36700Y164851D01*
X36835Y164651D01*
X36965Y164448D01*
X37090Y164242D01*
X37211Y164033D01*
X37326Y163821D01*
X37436Y163607D01*
X37541Y163390D01*
X37640Y163170D01*
X37735Y162948D01*
X37823Y162724D01*
X37907Y162498D01*
X37985Y162270D01*
X38057Y162040D01*
X38124Y161809D01*
X39444Y157241D01*
X40875Y152708D01*
X42415Y148210D01*
X44065Y143752D01*
X45823Y139334D01*
X47689Y134962D01*
X49660Y130636D01*
X51736Y126359D01*
X53916Y122134D01*
X56198Y117963D01*
X58581Y113850D01*
X61064Y109796D01*
X63645Y105803D01*
X66322Y101875D01*
X69094Y98012D01*
X71960Y94219D01*
X74917Y90497D01*
X77965Y86848D01*
X81100Y83274D01*
X84321Y79778D01*
X87627Y76361D01*
X91015Y73026D01*
X94483Y69775D01*
X98030Y66609D01*
X101652Y63530D01*
X105349Y60541D01*
X109117Y57642D01*
X112955Y54837D01*
X116860Y52126D01*
X120830Y49510D01*
X124863Y46993D01*
X128956Y44574D01*
X133107Y42256D01*
X137312Y40040D01*
X141571Y37927D01*
X145880Y35918D01*
X150237Y34015D01*
X154638Y32219D01*
X159082Y30531D01*
X163566Y28951D01*
X168088Y27481D01*
X172643Y26122D01*
X177231Y24875D01*
X181847Y23739D01*
X186490Y22717D01*
X191156Y21808D01*
X195843Y21013D01*
X200549Y20332D01*
X205269Y19767D01*
X210002Y19316D01*
X214744Y18981D01*
X219493Y18762D01*
X224246Y18659D01*
X229000Y18671D01*
X233752Y18800D01*
X238500Y19044D01*
X238499Y19044D02*
X238743Y19056D01*
X238987Y19063D01*
X239231Y19064D01*
X239475Y19058D01*
X239718Y19047D01*
X239962Y19030D01*
X240205Y19007D01*
X240447Y18978D01*
X240688Y18943D01*
X240929Y18902D01*
X241168Y18855D01*
X241406Y18803D01*
X241643Y18744D01*
X241879Y18680D01*
X242112Y18610D01*
X242344Y18535D01*
X242574Y18454D01*
X242802Y18367D01*
X243028Y18275D01*
X243252Y18177D01*
X243473Y18074D01*
X243691Y17966D01*
X243907Y17852D01*
X244120Y17733D01*
X244330Y17609D01*
X244537Y17480D01*
X244740Y17345D01*
X244941Y17206D01*
X245138Y17062D01*
X245331Y16913D01*
X245521Y16760D01*
X245706Y16602D01*
X245888Y16439D01*
X246066Y16272D01*
X246240Y16101D01*
X246409Y15926D01*
X246575Y15746D01*
X246735Y15563D01*
X246892Y15375D01*
X247043Y15184D01*
X247190Y14990D01*
X247332Y14791D01*
X247470Y14590D01*
X247602Y14385D01*
X247729Y14177D01*
X247851Y13966D01*
X247968Y13752D01*
X248080Y13535D01*
X248186Y13315D01*
X248287Y13093D01*
X248383Y12869D01*
X248473Y12642D01*
X248557Y12413D01*
X248636Y12182D01*
X248710Y11950D01*
X248777Y11715D01*
X248839Y11479D01*
X248895Y11242D01*
X248945Y11003D01*
X248990Y10763D01*
X249028Y10522D01*
X249061Y10281D01*
X249087Y10038D01*
X249108Y9795D01*
X249123Y9552D01*
X249132Y9308D01*
X249135Y9064D01*
X62104Y351969D02*
X62107Y352214D01*
X62116Y352460D01*
X62131Y352705D01*
X62152Y352949D01*
X62179Y353193D01*
X62212Y353436D01*
X62251Y353679D01*
X62296Y353920D01*
X62347Y354160D01*
X62404Y354399D01*
X62466Y354636D01*
X62535Y354872D01*
X62609Y355106D01*
X62689Y355338D01*
X62774Y355568D01*
X62865Y355796D01*
X62962Y356021D01*
X63064Y356245D01*
X63172Y356465D01*
X63285Y356683D01*
X63403Y356898D01*
X63527Y357110D01*
X63655Y357319D01*
X63789Y357525D01*
X63928Y357727D01*
X64072Y357926D01*
X64221Y358121D01*
X64374Y358313D01*
X64532Y358501D01*
X64694Y358685D01*
X64862Y358864D01*
X65033Y359040D01*
X65209Y359211D01*
X65388Y359379D01*
X65572Y359541D01*
X65760Y359699D01*
X65952Y359852D01*
X66147Y360001D01*
X66346Y360145D01*
X66548Y360284D01*
X66754Y360418D01*
X66963Y360546D01*
X67175Y360670D01*
X67390Y360788D01*
X67608Y360901D01*
X67828Y361009D01*
X68052Y361111D01*
X68277Y361208D01*
X68505Y361299D01*
X68735Y361384D01*
X68967Y361464D01*
X69201Y361538D01*
X69437Y361607D01*
X69674Y361669D01*
X69913Y361726D01*
X70153Y361777D01*
X70394Y361822D01*
X70637Y361861D01*
X70880Y361894D01*
X71124Y361921D01*
X71368Y361942D01*
X71613Y361957D01*
X71859Y361966D01*
X72104Y361969D01*
X72349Y361966D01*
X72595Y361957D01*
X72840Y361942D01*
X73084Y361921D01*
X73328Y361894D01*
X73571Y361861D01*
X73814Y361822D01*
X74055Y361777D01*
X74295Y361726D01*
X74534Y361669D01*
X74771Y361607D01*
X75007Y361538D01*
X75241Y361464D01*
X75473Y361384D01*
X75703Y361299D01*
X75931Y361208D01*
X76156Y361111D01*
X76380Y361009D01*
X76600Y360901D01*
X76818Y360788D01*
X77033Y360670D01*
X77245Y360546D01*
X77454Y360418D01*
X77660Y360284D01*
X77862Y360145D01*
X78061Y360001D01*
X78256Y359852D01*
X78448Y359699D01*
X78636Y359541D01*
X78820Y359379D01*
X78999Y359211D01*
X79175Y359040D01*
X79346Y358864D01*
X79514Y358685D01*
X79676Y358501D01*
X79834Y358313D01*
X79987Y358121D01*
X80136Y357926D01*
X80280Y357727D01*
X80419Y357525D01*
X80553Y357319D01*
X80681Y357110D01*
X80805Y356898D01*
X80923Y356683D01*
X81036Y356465D01*
X81144Y356245D01*
X81246Y356021D01*
X81343Y355796D01*
X81434Y355568D01*
X81519Y355338D01*
X81599Y355106D01*
X81673Y354872D01*
X81742Y354636D01*
X81804Y354399D01*
X81861Y354160D01*
X81912Y353920D01*
X81957Y353679D01*
X81996Y353436D01*
X82029Y353193D01*
X82056Y352949D01*
X82077Y352705D01*
X82092Y352460D01*
X82101Y352214D01*
X82104Y351969D01*
X82101Y351724D01*
X82092Y351478D01*
X82077Y351233D01*
X82056Y350989D01*
X82029Y350745D01*
X81996Y350502D01*
X81957Y350259D01*
X81912Y350018D01*
X81861Y349778D01*
X81804Y349539D01*
X81742Y349302D01*
X81673Y349066D01*
X81599Y348832D01*
X81519Y348600D01*
X81434Y348370D01*
X81343Y348142D01*
X81246Y347917D01*
X81144Y347693D01*
X81036Y347473D01*
X80923Y347255D01*
X80805Y347040D01*
X80681Y346828D01*
X80553Y346619D01*
X80419Y346413D01*
X80280Y346211D01*
X80136Y346012D01*
X79987Y345817D01*
X79834Y345625D01*
X79676Y345437D01*
X79514Y345253D01*
X79346Y345074D01*
X79175Y344898D01*
X78999Y344727D01*
X78820Y344559D01*
X78636Y344397D01*
X78448Y344239D01*
X78256Y344086D01*
X78061Y343937D01*
X77862Y343793D01*
X77660Y343654D01*
X77454Y343520D01*
X77245Y343392D01*
X77033Y343268D01*
X76818Y343150D01*
X76600Y343037D01*
X76380Y342929D01*
X76156Y342827D01*
X75931Y342730D01*
X75703Y342639D01*
X75473Y342554D01*
X75241Y342474D01*
X75007Y342400D01*
X74771Y342331D01*
X74534Y342269D01*
X74295Y342212D01*
X74055Y342161D01*
X73814Y342116D01*
X73571Y342077D01*
X73328Y342044D01*
X73084Y342017D01*
X72840Y341996D01*
X72595Y341981D01*
X72349Y341972D01*
X72104Y341969D01*
X71859Y341972D01*
X71613Y341981D01*
X71368Y341996D01*
X71124Y342017D01*
X70880Y342044D01*
X70637Y342077D01*
X70394Y342116D01*
X70153Y342161D01*
X69913Y342212D01*
X69674Y342269D01*
X69437Y342331D01*
X69201Y342400D01*
X68967Y342474D01*
X68735Y342554D01*
X68505Y342639D01*
X68277Y342730D01*
X68052Y342827D01*
X67828Y342929D01*
X67608Y343037D01*
X67390Y343150D01*
X67175Y343268D01*
X66963Y343392D01*
X66754Y343520D01*
X66548Y343654D01*
X66346Y343793D01*
X66147Y343937D01*
X65952Y344086D01*
X65760Y344239D01*
X65572Y344397D01*
X65388Y344559D01*
X65209Y344727D01*
X65033Y344898D01*
X64862Y345074D01*
X64694Y345253D01*
X64532Y345437D01*
X64374Y345625D01*
X64221Y345817D01*
X64072Y346012D01*
X63928Y346211D01*
X63789Y346413D01*
X63655Y346619D01*
X63527Y346828D01*
X63403Y347040D01*
X63285Y347255D01*
X63172Y347473D01*
X63064Y347693D01*
X62962Y347917D01*
X62865Y348142D01*
X62774Y348370D01*
X62689Y348600D01*
X62609Y348832D01*
X62535Y349066D01*
X62466Y349302D01*
X62404Y349539D01*
X62347Y349778D01*
X62296Y350018D01*
X62251Y350259D01*
X62212Y350502D01*
X62179Y350745D01*
X62152Y350989D01*
X62131Y351233D01*
X62116Y351478D01*
X62107Y351724D01*
X62104Y351969D01*
X294081Y21897D02*
X294084Y22142D01*
X294093Y22388D01*
X294108Y22633D01*
X294129Y22877D01*
X294156Y23121D01*
X294189Y23364D01*
X294228Y23607D01*
X294273Y23848D01*
X294324Y24088D01*
X294381Y24327D01*
X294443Y24564D01*
X294512Y24800D01*
X294586Y25034D01*
X294666Y25266D01*
X294751Y25496D01*
X294842Y25724D01*
X294939Y25949D01*
X295041Y26173D01*
X295149Y26393D01*
X295262Y26611D01*
X295380Y26826D01*
X295504Y27038D01*
X295632Y27247D01*
X295766Y27453D01*
X295905Y27655D01*
X296049Y27854D01*
X296198Y28049D01*
X296351Y28241D01*
X296509Y28429D01*
X296671Y28613D01*
X296839Y28792D01*
X297010Y28968D01*
X297186Y29139D01*
X297365Y29307D01*
X297549Y29469D01*
X297737Y29627D01*
X297929Y29780D01*
X298124Y29929D01*
X298323Y30073D01*
X298525Y30212D01*
X298731Y30346D01*
X298940Y30474D01*
X299152Y30598D01*
X299367Y30716D01*
X299585Y30829D01*
X299805Y30937D01*
X300029Y31039D01*
X300254Y31136D01*
X300482Y31227D01*
X300712Y31312D01*
X300944Y31392D01*
X301178Y31466D01*
X301414Y31535D01*
X301651Y31597D01*
X301890Y31654D01*
X302130Y31705D01*
X302371Y31750D01*
X302614Y31789D01*
X302857Y31822D01*
X303101Y31849D01*
X303345Y31870D01*
X303590Y31885D01*
X303836Y31894D01*
X304081Y31897D01*
X304326Y31894D01*
X304572Y31885D01*
X304817Y31870D01*
X305061Y31849D01*
X305305Y31822D01*
X305548Y31789D01*
X305791Y31750D01*
X306032Y31705D01*
X306272Y31654D01*
X306511Y31597D01*
X306748Y31535D01*
X306984Y31466D01*
X307218Y31392D01*
X307450Y31312D01*
X307680Y31227D01*
X307908Y31136D01*
X308133Y31039D01*
X308357Y30937D01*
X308577Y30829D01*
X308795Y30716D01*
X309010Y30598D01*
X309222Y30474D01*
X309431Y30346D01*
X309637Y30212D01*
X309839Y30073D01*
X310038Y29929D01*
X310233Y29780D01*
X310425Y29627D01*
X310613Y29469D01*
X310797Y29307D01*
X310976Y29139D01*
X311152Y28968D01*
X311323Y28792D01*
X311491Y28613D01*
X311653Y28429D01*
X311811Y28241D01*
X311964Y28049D01*
X312113Y27854D01*
X312257Y27655D01*
X312396Y27453D01*
X312530Y27247D01*
X312658Y27038D01*
X312782Y26826D01*
X312900Y26611D01*
X313013Y26393D01*
X313121Y26173D01*
X313223Y25949D01*
X313320Y25724D01*
X313411Y25496D01*
X313496Y25266D01*
X313576Y25034D01*
X313650Y24800D01*
X313719Y24564D01*
X313781Y24327D01*
X313838Y24088D01*
X313889Y23848D01*
X313934Y23607D01*
X313973Y23364D01*
X314006Y23121D01*
X314033Y22877D01*
X314054Y22633D01*
X314069Y22388D01*
X314078Y22142D01*
X314081Y21897D01*
X314078Y21652D01*
X314069Y21406D01*
X314054Y21161D01*
X314033Y20917D01*
X314006Y20673D01*
X313973Y20430D01*
X313934Y20187D01*
X313889Y19946D01*
X313838Y19706D01*
X313781Y19467D01*
X313719Y19230D01*
X313650Y18994D01*
X313576Y18760D01*
X313496Y18528D01*
X313411Y18298D01*
X313320Y18070D01*
X313223Y17845D01*
X313121Y17621D01*
X313013Y17401D01*
X312900Y17183D01*
X312782Y16968D01*
X312658Y16756D01*
X312530Y16547D01*
X312396Y16341D01*
X312257Y16139D01*
X312113Y15940D01*
X311964Y15745D01*
X311811Y15553D01*
X311653Y15365D01*
X311491Y15181D01*
X311323Y15002D01*
X311152Y14826D01*
X310976Y14655D01*
X310797Y14487D01*
X310613Y14325D01*
X310425Y14167D01*
X310233Y14014D01*
X310038Y13865D01*
X309839Y13721D01*
X309637Y13582D01*
X309431Y13448D01*
X309222Y13320D01*
X309010Y13196D01*
X308795Y13078D01*
X308577Y12965D01*
X308357Y12857D01*
X308133Y12755D01*
X307908Y12658D01*
X307680Y12567D01*
X307450Y12482D01*
X307218Y12402D01*
X306984Y12328D01*
X306748Y12259D01*
X306511Y12197D01*
X306272Y12140D01*
X306032Y12089D01*
X305791Y12044D01*
X305548Y12005D01*
X305305Y11972D01*
X305061Y11945D01*
X304817Y11924D01*
X304572Y11909D01*
X304326Y11900D01*
X304081Y11897D01*
X303836Y11900D01*
X303590Y11909D01*
X303345Y11924D01*
X303101Y11945D01*
X302857Y11972D01*
X302614Y12005D01*
X302371Y12044D01*
X302130Y12089D01*
X301890Y12140D01*
X301651Y12197D01*
X301414Y12259D01*
X301178Y12328D01*
X300944Y12402D01*
X300712Y12482D01*
X300482Y12567D01*
X300254Y12658D01*
X300029Y12755D01*
X299805Y12857D01*
X299585Y12965D01*
X299367Y13078D01*
X299152Y13196D01*
X298940Y13320D01*
X298731Y13448D01*
X298525Y13582D01*
X298323Y13721D01*
X298124Y13865D01*
X297929Y14014D01*
X297737Y14167D01*
X297549Y14325D01*
X297365Y14487D01*
X297186Y14655D01*
X297010Y14826D01*
X296839Y15002D01*
X296671Y15181D01*
X296509Y15365D01*
X296351Y15553D01*
X296198Y15745D01*
X296049Y15940D01*
X295905Y16139D01*
X295766Y16341D01*
X295632Y16547D01*
X295504Y16756D01*
X295380Y16968D01*
X295262Y17183D01*
X295149Y17401D01*
X295041Y17621D01*
X294939Y17845D01*
X294842Y18070D01*
X294751Y18298D01*
X294666Y18528D01*
X294586Y18760D01*
X294512Y18994D01*
X294443Y19230D01*
X294381Y19467D01*
X294324Y19706D01*
X294273Y19946D01*
X294228Y20187D01*
X294189Y20430D01*
X294156Y20673D01*
X294129Y20917D01*
X294108Y21161D01*
X294093Y21406D01*
X294084Y21652D01*
X294081Y21897D01*
X387492Y329736D02*
X387495Y329981D01*
X387504Y330227D01*
X387519Y330472D01*
X387540Y330716D01*
X387567Y330960D01*
X387600Y331203D01*
X387639Y331446D01*
X387684Y331687D01*
X387735Y331927D01*
X387792Y332166D01*
X387854Y332403D01*
X387923Y332639D01*
X387997Y332873D01*
X388077Y333105D01*
X388162Y333335D01*
X388253Y333563D01*
X388350Y333788D01*
X388452Y334012D01*
X388560Y334232D01*
X388673Y334450D01*
X388791Y334665D01*
X388915Y334877D01*
X389043Y335086D01*
X389177Y335292D01*
X389316Y335494D01*
X389460Y335693D01*
X389609Y335888D01*
X389762Y336080D01*
X389920Y336268D01*
X390082Y336452D01*
X390250Y336631D01*
X390421Y336807D01*
X390597Y336978D01*
X390776Y337146D01*
X390960Y337308D01*
X391148Y337466D01*
X391340Y337619D01*
X391535Y337768D01*
X391734Y337912D01*
X391936Y338051D01*
X392142Y338185D01*
X392351Y338313D01*
X392563Y338437D01*
X392778Y338555D01*
X392996Y338668D01*
X393216Y338776D01*
X393440Y338878D01*
X393665Y338975D01*
X393893Y339066D01*
X394123Y339151D01*
X394355Y339231D01*
X394589Y339305D01*
X394825Y339374D01*
X395062Y339436D01*
X395301Y339493D01*
X395541Y339544D01*
X395782Y339589D01*
X396025Y339628D01*
X396268Y339661D01*
X396512Y339688D01*
X396756Y339709D01*
X397001Y339724D01*
X397247Y339733D01*
X397492Y339736D01*
X397737Y339733D01*
X397983Y339724D01*
X398228Y339709D01*
X398472Y339688D01*
X398716Y339661D01*
X398959Y339628D01*
X399202Y339589D01*
X399443Y339544D01*
X399683Y339493D01*
X399922Y339436D01*
X400159Y339374D01*
X400395Y339305D01*
X400629Y339231D01*
X400861Y339151D01*
X401091Y339066D01*
X401319Y338975D01*
X401544Y338878D01*
X401768Y338776D01*
X401988Y338668D01*
X402206Y338555D01*
X402421Y338437D01*
X402633Y338313D01*
X402842Y338185D01*
X403048Y338051D01*
X403250Y337912D01*
X403449Y337768D01*
X403644Y337619D01*
X403836Y337466D01*
X404024Y337308D01*
X404208Y337146D01*
X404387Y336978D01*
X404563Y336807D01*
X404734Y336631D01*
X404902Y336452D01*
X405064Y336268D01*
X405222Y336080D01*
X405375Y335888D01*
X405524Y335693D01*
X405668Y335494D01*
X405807Y335292D01*
X405941Y335086D01*
X406069Y334877D01*
X406193Y334665D01*
X406311Y334450D01*
X406424Y334232D01*
X406532Y334012D01*
X406634Y333788D01*
X406731Y333563D01*
X406822Y333335D01*
X406907Y333105D01*
X406987Y332873D01*
X407061Y332639D01*
X407130Y332403D01*
X407192Y332166D01*
X407249Y331927D01*
X407300Y331687D01*
X407345Y331446D01*
X407384Y331203D01*
X407417Y330960D01*
X407444Y330716D01*
X407465Y330472D01*
X407480Y330227D01*
X407489Y329981D01*
X407492Y329736D01*
X407489Y329491D01*
X407480Y329245D01*
X407465Y329000D01*
X407444Y328756D01*
X407417Y328512D01*
X407384Y328269D01*
X407345Y328026D01*
X407300Y327785D01*
X407249Y327545D01*
X407192Y327306D01*
X407130Y327069D01*
X407061Y326833D01*
X406987Y326599D01*
X406907Y326367D01*
X406822Y326137D01*
X406731Y325909D01*
X406634Y325684D01*
X406532Y325460D01*
X406424Y325240D01*
X406311Y325022D01*
X406193Y324807D01*
X406069Y324595D01*
X405941Y324386D01*
X405807Y324180D01*
X405668Y323978D01*
X405524Y323779D01*
X405375Y323584D01*
X405222Y323392D01*
X405064Y323204D01*
X404902Y323020D01*
X404734Y322841D01*
X404563Y322665D01*
X404387Y322494D01*
X404208Y322326D01*
X404024Y322164D01*
X403836Y322006D01*
X403644Y321853D01*
X403449Y321704D01*
X403250Y321560D01*
X403048Y321421D01*
X402842Y321287D01*
X402633Y321159D01*
X402421Y321035D01*
X402206Y320917D01*
X401988Y320804D01*
X401768Y320696D01*
X401544Y320594D01*
X401319Y320497D01*
X401091Y320406D01*
X400861Y320321D01*
X400629Y320241D01*
X400395Y320167D01*
X400159Y320098D01*
X399922Y320036D01*
X399683Y319979D01*
X399443Y319928D01*
X399202Y319883D01*
X398959Y319844D01*
X398716Y319811D01*
X398472Y319784D01*
X398228Y319763D01*
X397983Y319748D01*
X397737Y319739D01*
X397492Y319736D01*
X397247Y319739D01*
X397001Y319748D01*
X396756Y319763D01*
X396512Y319784D01*
X396268Y319811D01*
X396025Y319844D01*
X395782Y319883D01*
X395541Y319928D01*
X395301Y319979D01*
X395062Y320036D01*
X394825Y320098D01*
X394589Y320167D01*
X394355Y320241D01*
X394123Y320321D01*
X393893Y320406D01*
X393665Y320497D01*
X393440Y320594D01*
X393216Y320696D01*
X392996Y320804D01*
X392778Y320917D01*
X392563Y321035D01*
X392351Y321159D01*
X392142Y321287D01*
X391936Y321421D01*
X391734Y321560D01*
X391535Y321704D01*
X391340Y321853D01*
X391148Y322006D01*
X390960Y322164D01*
X390776Y322326D01*
X390597Y322494D01*
X390421Y322665D01*
X390250Y322841D01*
X390082Y323020D01*
X389920Y323204D01*
X389762Y323392D01*
X389609Y323584D01*
X389460Y323779D01*
X389316Y323978D01*
X389177Y324180D01*
X389043Y324386D01*
X388915Y324595D01*
X388791Y324807D01*
X388673Y325022D01*
X388560Y325240D01*
X388452Y325460D01*
X388350Y325684D01*
X388253Y325909D01*
X388162Y326137D01*
X388077Y326367D01*
X387997Y326599D01*
X387923Y326833D01*
X387854Y327069D01*
X387792Y327306D01*
X387735Y327545D01*
X387684Y327785D01*
X387639Y328026D01*
X387600Y328269D01*
X387567Y328512D01*
X387540Y328756D01*
X387519Y329000D01*
X387504Y329245D01*
X387495Y329491D01*
X387492Y329736D01*
M02*
