G04 EAGLE Gerber RS-274X export*
G75*
%MOMM*%
%FSLAX34Y34*%
%LPD*%
%INSilkscreen Top*%
%IPPOS*%
%AMOC8*
5,1,8,0,0,1.08239X$1,22.5*%
G01*
%ADD10C,0.203200*%
%ADD11C,0.152400*%
%ADD12C,0.304800*%
%ADD13C,0.150000*%
%ADD14C,0.250000*%
%ADD15C,0.076200*%
%ADD16C,0.127000*%


D10*
X228172Y253905D02*
X227465Y254612D01*
X236658Y263805D01*
X237365Y263098D01*
X261406Y239056D02*
X262467Y237995D01*
X253275Y228803D01*
X252214Y229864D01*
D11*
X328908Y315380D02*
X279340Y364948D01*
X328908Y315380D02*
X279340Y265812D01*
X232282Y312870D01*
X232282Y317890D02*
X279340Y364948D01*
X232282Y317890D02*
X232282Y312870D01*
X236953Y315380D02*
X236955Y315499D01*
X236961Y315619D01*
X236971Y315738D01*
X236985Y315856D01*
X237003Y315974D01*
X237024Y316092D01*
X237050Y316208D01*
X237079Y316324D01*
X237113Y316439D01*
X237150Y316552D01*
X237191Y316664D01*
X237235Y316775D01*
X237283Y316885D01*
X237335Y316992D01*
X237390Y317098D01*
X237449Y317202D01*
X237512Y317304D01*
X237577Y317403D01*
X237646Y317501D01*
X237718Y317596D01*
X237793Y317689D01*
X237872Y317779D01*
X237953Y317867D01*
X238037Y317951D01*
X238124Y318033D01*
X238213Y318112D01*
X238305Y318188D01*
X238400Y318261D01*
X238497Y318331D01*
X238596Y318397D01*
X238698Y318460D01*
X238801Y318520D01*
X238906Y318576D01*
X239013Y318629D01*
X239122Y318678D01*
X239233Y318724D01*
X239345Y318765D01*
X239458Y318803D01*
X239572Y318838D01*
X239688Y318868D01*
X239804Y318895D01*
X239921Y318917D01*
X240039Y318936D01*
X240158Y318951D01*
X240277Y318962D01*
X240396Y318969D01*
X240515Y318972D01*
X240635Y318971D01*
X240754Y318966D01*
X240873Y318957D01*
X240992Y318944D01*
X241110Y318927D01*
X241227Y318907D01*
X241344Y318882D01*
X241460Y318853D01*
X241575Y318821D01*
X241689Y318785D01*
X241802Y318745D01*
X241913Y318701D01*
X242022Y318654D01*
X242130Y318603D01*
X242237Y318549D01*
X242341Y318491D01*
X242443Y318429D01*
X242544Y318365D01*
X242642Y318296D01*
X242738Y318225D01*
X242831Y318151D01*
X242922Y318073D01*
X243010Y317993D01*
X243095Y317909D01*
X243178Y317823D01*
X243258Y317734D01*
X243335Y317643D01*
X243408Y317549D01*
X243479Y317452D01*
X243546Y317354D01*
X243610Y317253D01*
X243671Y317150D01*
X243728Y317045D01*
X243781Y316939D01*
X243831Y316830D01*
X243878Y316720D01*
X243920Y316609D01*
X243959Y316496D01*
X243995Y316382D01*
X244026Y316266D01*
X244053Y316150D01*
X244077Y316033D01*
X244097Y315915D01*
X244113Y315797D01*
X244125Y315678D01*
X244133Y315559D01*
X244137Y315440D01*
X244137Y315320D01*
X244133Y315201D01*
X244125Y315082D01*
X244113Y314963D01*
X244097Y314845D01*
X244077Y314727D01*
X244053Y314610D01*
X244026Y314494D01*
X243995Y314378D01*
X243959Y314264D01*
X243920Y314151D01*
X243878Y314040D01*
X243831Y313930D01*
X243781Y313821D01*
X243728Y313715D01*
X243671Y313610D01*
X243610Y313507D01*
X243546Y313406D01*
X243479Y313308D01*
X243408Y313211D01*
X243335Y313117D01*
X243258Y313026D01*
X243178Y312937D01*
X243095Y312851D01*
X243010Y312767D01*
X242922Y312687D01*
X242831Y312609D01*
X242738Y312535D01*
X242642Y312464D01*
X242544Y312395D01*
X242443Y312331D01*
X242341Y312269D01*
X242237Y312211D01*
X242130Y312157D01*
X242022Y312106D01*
X241913Y312059D01*
X241802Y312015D01*
X241689Y311975D01*
X241575Y311939D01*
X241460Y311907D01*
X241344Y311878D01*
X241227Y311853D01*
X241110Y311833D01*
X240992Y311816D01*
X240873Y311803D01*
X240754Y311794D01*
X240635Y311789D01*
X240515Y311788D01*
X240396Y311791D01*
X240277Y311798D01*
X240158Y311809D01*
X240039Y311824D01*
X239921Y311843D01*
X239804Y311865D01*
X239688Y311892D01*
X239572Y311922D01*
X239458Y311957D01*
X239345Y311995D01*
X239233Y312036D01*
X239122Y312082D01*
X239013Y312131D01*
X238906Y312184D01*
X238801Y312240D01*
X238698Y312300D01*
X238596Y312363D01*
X238497Y312429D01*
X238400Y312499D01*
X238305Y312572D01*
X238213Y312648D01*
X238124Y312727D01*
X238037Y312809D01*
X237953Y312893D01*
X237872Y312981D01*
X237793Y313071D01*
X237718Y313164D01*
X237646Y313259D01*
X237577Y313357D01*
X237512Y313456D01*
X237449Y313558D01*
X237390Y313662D01*
X237335Y313768D01*
X237283Y313875D01*
X237235Y313985D01*
X237191Y314096D01*
X237150Y314208D01*
X237113Y314321D01*
X237079Y314436D01*
X237050Y314552D01*
X237024Y314668D01*
X237003Y314786D01*
X236985Y314904D01*
X236971Y315022D01*
X236961Y315141D01*
X236955Y315261D01*
X236953Y315380D01*
D12*
X316885Y362102D02*
X324069Y369286D01*
X332075Y376938D02*
X339259Y384122D01*
X213846Y361822D02*
X206662Y369006D01*
X221893Y353636D02*
X229077Y346452D01*
D13*
X200910Y323064D02*
X200910Y161064D01*
X161420Y322564D02*
X155420Y322564D01*
X155420Y300064D01*
X182420Y317064D02*
X192920Y317064D01*
X192920Y323064D01*
X200910Y323064D01*
X200910Y161064D02*
X192920Y161064D01*
X192920Y167064D01*
X182420Y167064D01*
X155420Y161564D02*
X155420Y184064D01*
X155420Y161564D02*
X161420Y161564D01*
D14*
X141170Y189564D02*
X141172Y189634D01*
X141178Y189704D01*
X141188Y189773D01*
X141201Y189842D01*
X141219Y189910D01*
X141240Y189977D01*
X141265Y190042D01*
X141294Y190106D01*
X141326Y190169D01*
X141362Y190229D01*
X141401Y190287D01*
X141443Y190343D01*
X141488Y190397D01*
X141536Y190448D01*
X141587Y190496D01*
X141641Y190541D01*
X141697Y190583D01*
X141755Y190622D01*
X141815Y190658D01*
X141878Y190690D01*
X141942Y190719D01*
X142007Y190744D01*
X142074Y190765D01*
X142142Y190783D01*
X142211Y190796D01*
X142280Y190806D01*
X142350Y190812D01*
X142420Y190814D01*
X142490Y190812D01*
X142560Y190806D01*
X142629Y190796D01*
X142698Y190783D01*
X142766Y190765D01*
X142833Y190744D01*
X142898Y190719D01*
X142962Y190690D01*
X143025Y190658D01*
X143085Y190622D01*
X143143Y190583D01*
X143199Y190541D01*
X143253Y190496D01*
X143304Y190448D01*
X143352Y190397D01*
X143397Y190343D01*
X143439Y190287D01*
X143478Y190229D01*
X143514Y190169D01*
X143546Y190106D01*
X143575Y190042D01*
X143600Y189977D01*
X143621Y189910D01*
X143639Y189842D01*
X143652Y189773D01*
X143662Y189704D01*
X143668Y189634D01*
X143670Y189564D01*
X143668Y189494D01*
X143662Y189424D01*
X143652Y189355D01*
X143639Y189286D01*
X143621Y189218D01*
X143600Y189151D01*
X143575Y189086D01*
X143546Y189022D01*
X143514Y188959D01*
X143478Y188899D01*
X143439Y188841D01*
X143397Y188785D01*
X143352Y188731D01*
X143304Y188680D01*
X143253Y188632D01*
X143199Y188587D01*
X143143Y188545D01*
X143085Y188506D01*
X143025Y188470D01*
X142962Y188438D01*
X142898Y188409D01*
X142833Y188384D01*
X142766Y188363D01*
X142698Y188345D01*
X142629Y188332D01*
X142560Y188322D01*
X142490Y188316D01*
X142420Y188314D01*
X142350Y188316D01*
X142280Y188322D01*
X142211Y188332D01*
X142142Y188345D01*
X142074Y188363D01*
X142007Y188384D01*
X141942Y188409D01*
X141878Y188438D01*
X141815Y188470D01*
X141755Y188506D01*
X141697Y188545D01*
X141641Y188587D01*
X141587Y188632D01*
X141536Y188680D01*
X141488Y188731D01*
X141443Y188785D01*
X141401Y188841D01*
X141362Y188899D01*
X141326Y188959D01*
X141294Y189022D01*
X141265Y189086D01*
X141240Y189151D01*
X141219Y189218D01*
X141201Y189286D01*
X141188Y189355D01*
X141178Y189424D01*
X141172Y189494D01*
X141170Y189564D01*
D15*
X140789Y152051D02*
X140789Y149998D01*
X140787Y149908D01*
X140781Y149819D01*
X140771Y149730D01*
X140758Y149642D01*
X140740Y149554D01*
X140719Y149467D01*
X140694Y149381D01*
X140665Y149296D01*
X140633Y149212D01*
X140597Y149130D01*
X140557Y149050D01*
X140514Y148972D01*
X140467Y148895D01*
X140418Y148820D01*
X140365Y148748D01*
X140309Y148678D01*
X140250Y148611D01*
X140188Y148546D01*
X140123Y148484D01*
X140056Y148425D01*
X139986Y148369D01*
X139914Y148316D01*
X139839Y148267D01*
X139763Y148220D01*
X139684Y148177D01*
X139604Y148137D01*
X139522Y148101D01*
X139438Y148069D01*
X139353Y148040D01*
X139267Y148015D01*
X139180Y147994D01*
X139092Y147976D01*
X139004Y147963D01*
X138915Y147953D01*
X138826Y147947D01*
X138736Y147945D01*
X133604Y147945D01*
X133514Y147947D01*
X133425Y147953D01*
X133336Y147963D01*
X133248Y147976D01*
X133160Y147994D01*
X133073Y148015D01*
X132987Y148040D01*
X132902Y148069D01*
X132818Y148101D01*
X132736Y148137D01*
X132656Y148177D01*
X132578Y148220D01*
X132501Y148267D01*
X132426Y148316D01*
X132354Y148369D01*
X132284Y148425D01*
X132217Y148484D01*
X132152Y148546D01*
X132090Y148611D01*
X132031Y148678D01*
X131975Y148748D01*
X131922Y148820D01*
X131873Y148895D01*
X131826Y148971D01*
X131783Y149050D01*
X131743Y149130D01*
X131707Y149212D01*
X131675Y149296D01*
X131646Y149381D01*
X131621Y149467D01*
X131600Y149554D01*
X131582Y149641D01*
X131569Y149730D01*
X131559Y149819D01*
X131553Y149908D01*
X131551Y149998D01*
X131551Y152051D01*
X131551Y158037D02*
X140789Y154957D01*
X140789Y161116D02*
X131551Y158037D01*
X138480Y160346D02*
X138480Y155727D01*
X140789Y164857D02*
X131551Y164857D01*
X136683Y167937D01*
X131551Y171016D01*
X140789Y171016D01*
X141815Y174884D02*
X141815Y178989D01*
X140789Y184437D02*
X131551Y184437D01*
X131551Y187003D02*
X131551Y181870D01*
X134117Y190270D02*
X138223Y190270D01*
X134117Y190270D02*
X134018Y190272D01*
X133918Y190278D01*
X133819Y190287D01*
X133721Y190301D01*
X133623Y190318D01*
X133525Y190339D01*
X133429Y190364D01*
X133334Y190393D01*
X133239Y190425D01*
X133147Y190461D01*
X133055Y190500D01*
X132965Y190543D01*
X132877Y190589D01*
X132791Y190639D01*
X132707Y190692D01*
X132625Y190748D01*
X132545Y190808D01*
X132468Y190870D01*
X132393Y190936D01*
X132320Y191004D01*
X132251Y191075D01*
X132184Y191149D01*
X132120Y191225D01*
X132059Y191304D01*
X132001Y191385D01*
X131946Y191468D01*
X131895Y191553D01*
X131847Y191640D01*
X131802Y191729D01*
X131761Y191820D01*
X131723Y191912D01*
X131689Y192005D01*
X131659Y192100D01*
X131632Y192196D01*
X131609Y192293D01*
X131590Y192390D01*
X131575Y192489D01*
X131563Y192588D01*
X131555Y192687D01*
X131551Y192786D01*
X131551Y192886D01*
X131555Y192985D01*
X131563Y193084D01*
X131575Y193183D01*
X131590Y193282D01*
X131609Y193379D01*
X131632Y193476D01*
X131659Y193572D01*
X131689Y193667D01*
X131723Y193760D01*
X131761Y193852D01*
X131802Y193943D01*
X131847Y194032D01*
X131895Y194119D01*
X131946Y194204D01*
X132001Y194287D01*
X132059Y194368D01*
X132120Y194447D01*
X132184Y194523D01*
X132251Y194597D01*
X132320Y194668D01*
X132393Y194736D01*
X132468Y194802D01*
X132545Y194864D01*
X132625Y194924D01*
X132707Y194980D01*
X132791Y195033D01*
X132877Y195083D01*
X132965Y195129D01*
X133055Y195172D01*
X133147Y195211D01*
X133239Y195247D01*
X133334Y195279D01*
X133429Y195308D01*
X133525Y195333D01*
X133623Y195354D01*
X133721Y195371D01*
X133819Y195385D01*
X133918Y195394D01*
X134018Y195400D01*
X134117Y195402D01*
X134117Y195403D02*
X138223Y195403D01*
X138223Y195402D02*
X138322Y195400D01*
X138422Y195394D01*
X138521Y195385D01*
X138619Y195371D01*
X138717Y195354D01*
X138815Y195333D01*
X138911Y195308D01*
X139006Y195279D01*
X139101Y195247D01*
X139193Y195211D01*
X139285Y195172D01*
X139375Y195129D01*
X139463Y195083D01*
X139549Y195033D01*
X139633Y194980D01*
X139715Y194924D01*
X139795Y194864D01*
X139872Y194802D01*
X139947Y194736D01*
X140020Y194668D01*
X140089Y194597D01*
X140156Y194523D01*
X140220Y194447D01*
X140281Y194368D01*
X140339Y194287D01*
X140394Y194204D01*
X140445Y194119D01*
X140493Y194032D01*
X140538Y193943D01*
X140579Y193852D01*
X140617Y193760D01*
X140651Y193667D01*
X140681Y193572D01*
X140708Y193476D01*
X140731Y193379D01*
X140750Y193282D01*
X140765Y193183D01*
X140777Y193084D01*
X140785Y192985D01*
X140789Y192886D01*
X140789Y192786D01*
X140785Y192687D01*
X140777Y192588D01*
X140765Y192489D01*
X140750Y192390D01*
X140731Y192293D01*
X140708Y192196D01*
X140681Y192100D01*
X140651Y192005D01*
X140617Y191912D01*
X140579Y191820D01*
X140538Y191729D01*
X140493Y191640D01*
X140445Y191553D01*
X140394Y191468D01*
X140339Y191385D01*
X140281Y191304D01*
X140220Y191225D01*
X140156Y191149D01*
X140089Y191075D01*
X140020Y191004D01*
X139947Y190936D01*
X139872Y190870D01*
X139795Y190808D01*
X139715Y190748D01*
X139633Y190692D01*
X139549Y190639D01*
X139463Y190589D01*
X139375Y190543D01*
X139285Y190500D01*
X139193Y190461D01*
X139101Y190425D01*
X139006Y190393D01*
X138911Y190364D01*
X138815Y190339D01*
X138717Y190318D01*
X138619Y190301D01*
X138521Y190287D01*
X138422Y190278D01*
X138322Y190272D01*
X138223Y190270D01*
X140789Y199701D02*
X131551Y199701D01*
X131551Y202267D01*
X131553Y202366D01*
X131559Y202466D01*
X131568Y202565D01*
X131582Y202663D01*
X131599Y202761D01*
X131620Y202859D01*
X131645Y202955D01*
X131674Y203050D01*
X131706Y203145D01*
X131742Y203237D01*
X131781Y203329D01*
X131824Y203419D01*
X131870Y203507D01*
X131920Y203593D01*
X131973Y203677D01*
X132029Y203759D01*
X132089Y203839D01*
X132151Y203916D01*
X132217Y203991D01*
X132285Y204064D01*
X132356Y204133D01*
X132430Y204200D01*
X132506Y204264D01*
X132585Y204325D01*
X132666Y204383D01*
X132749Y204438D01*
X132834Y204489D01*
X132921Y204537D01*
X133010Y204582D01*
X133101Y204623D01*
X133193Y204661D01*
X133286Y204695D01*
X133381Y204725D01*
X133477Y204752D01*
X133574Y204775D01*
X133671Y204794D01*
X133770Y204809D01*
X133869Y204821D01*
X133968Y204829D01*
X134067Y204833D01*
X134167Y204833D01*
X134266Y204829D01*
X134365Y204821D01*
X134464Y204809D01*
X134563Y204794D01*
X134660Y204775D01*
X134757Y204752D01*
X134853Y204725D01*
X134948Y204695D01*
X135041Y204661D01*
X135133Y204623D01*
X135224Y204582D01*
X135313Y204537D01*
X135400Y204489D01*
X135485Y204438D01*
X135568Y204383D01*
X135649Y204325D01*
X135728Y204264D01*
X135804Y204200D01*
X135878Y204133D01*
X135949Y204064D01*
X136017Y203991D01*
X136083Y203916D01*
X136145Y203839D01*
X136205Y203759D01*
X136261Y203677D01*
X136314Y203593D01*
X136364Y203507D01*
X136410Y203419D01*
X136453Y203329D01*
X136492Y203237D01*
X136528Y203145D01*
X136560Y203050D01*
X136589Y202955D01*
X136614Y202859D01*
X136635Y202761D01*
X136652Y202663D01*
X136666Y202565D01*
X136675Y202466D01*
X136681Y202366D01*
X136683Y202267D01*
X136683Y199701D01*
D10*
X187480Y32550D02*
X193830Y26200D01*
X206530Y26200D02*
X212880Y32550D01*
X219230Y26200D01*
X231930Y26200D02*
X238280Y32550D01*
X244630Y26200D01*
X257330Y26200D02*
X263680Y32550D01*
X187480Y32550D02*
X187480Y70650D01*
X193830Y77000D01*
X206530Y77000D01*
X212880Y70650D01*
X219230Y77000D01*
X231930Y77000D01*
X238280Y70650D01*
X244630Y77000D01*
X257330Y77000D01*
X263680Y70650D01*
X212880Y70650D02*
X212880Y32550D01*
X238280Y32550D02*
X238280Y70650D01*
X263680Y70650D02*
X263680Y32550D01*
X257330Y26200D02*
X244630Y26200D01*
X231930Y26200D02*
X219230Y26200D01*
X206530Y26200D02*
X193830Y26200D01*
X193830Y22850D02*
X206530Y22850D01*
D16*
X190260Y80175D02*
X189187Y80175D01*
X189122Y80177D01*
X189058Y80183D01*
X188994Y80193D01*
X188930Y80206D01*
X188868Y80224D01*
X188807Y80245D01*
X188747Y80269D01*
X188689Y80298D01*
X188632Y80330D01*
X188578Y80365D01*
X188526Y80403D01*
X188476Y80445D01*
X188429Y80489D01*
X188385Y80536D01*
X188343Y80586D01*
X188305Y80638D01*
X188270Y80692D01*
X188238Y80749D01*
X188209Y80807D01*
X188185Y80867D01*
X188164Y80928D01*
X188146Y80990D01*
X188133Y81054D01*
X188123Y81118D01*
X188117Y81182D01*
X188115Y81247D01*
X188115Y83929D01*
X188117Y83994D01*
X188123Y84058D01*
X188133Y84122D01*
X188146Y84186D01*
X188164Y84248D01*
X188185Y84309D01*
X188209Y84369D01*
X188238Y84427D01*
X188270Y84484D01*
X188305Y84538D01*
X188343Y84590D01*
X188385Y84640D01*
X188429Y84687D01*
X188476Y84731D01*
X188526Y84773D01*
X188578Y84811D01*
X188632Y84846D01*
X188689Y84878D01*
X188747Y84907D01*
X188807Y84931D01*
X188868Y84952D01*
X188930Y84970D01*
X188994Y84983D01*
X189058Y84993D01*
X189122Y84999D01*
X189187Y85001D01*
X190260Y85001D01*
X192716Y83660D02*
X192716Y81516D01*
X192715Y83660D02*
X192717Y83731D01*
X192723Y83803D01*
X192732Y83873D01*
X192745Y83943D01*
X192762Y84013D01*
X192783Y84081D01*
X192807Y84148D01*
X192835Y84214D01*
X192866Y84278D01*
X192901Y84341D01*
X192939Y84401D01*
X192980Y84460D01*
X193024Y84516D01*
X193071Y84570D01*
X193120Y84621D01*
X193173Y84669D01*
X193228Y84715D01*
X193285Y84757D01*
X193345Y84797D01*
X193406Y84833D01*
X193470Y84866D01*
X193535Y84895D01*
X193601Y84921D01*
X193669Y84944D01*
X193738Y84963D01*
X193808Y84978D01*
X193878Y84989D01*
X193949Y84997D01*
X194020Y85001D01*
X194092Y85001D01*
X194163Y84997D01*
X194234Y84989D01*
X194304Y84978D01*
X194374Y84963D01*
X194443Y84944D01*
X194511Y84921D01*
X194577Y84895D01*
X194642Y84866D01*
X194706Y84833D01*
X194767Y84797D01*
X194827Y84757D01*
X194884Y84715D01*
X194939Y84669D01*
X194992Y84621D01*
X195041Y84570D01*
X195088Y84516D01*
X195132Y84460D01*
X195173Y84401D01*
X195211Y84341D01*
X195246Y84278D01*
X195277Y84214D01*
X195305Y84148D01*
X195329Y84081D01*
X195350Y84013D01*
X195367Y83943D01*
X195380Y83873D01*
X195389Y83803D01*
X195395Y83731D01*
X195397Y83660D01*
X195397Y81516D01*
X195395Y81445D01*
X195389Y81373D01*
X195380Y81303D01*
X195367Y81233D01*
X195350Y81163D01*
X195329Y81095D01*
X195305Y81028D01*
X195277Y80962D01*
X195246Y80898D01*
X195211Y80835D01*
X195173Y80775D01*
X195132Y80716D01*
X195088Y80660D01*
X195041Y80606D01*
X194992Y80555D01*
X194939Y80507D01*
X194884Y80461D01*
X194827Y80419D01*
X194767Y80379D01*
X194706Y80343D01*
X194642Y80310D01*
X194577Y80281D01*
X194511Y80255D01*
X194443Y80232D01*
X194374Y80213D01*
X194304Y80198D01*
X194234Y80187D01*
X194163Y80179D01*
X194092Y80175D01*
X194020Y80175D01*
X193949Y80179D01*
X193878Y80187D01*
X193808Y80198D01*
X193738Y80213D01*
X193669Y80232D01*
X193601Y80255D01*
X193535Y80281D01*
X193470Y80310D01*
X193406Y80343D01*
X193345Y80379D01*
X193285Y80419D01*
X193228Y80461D01*
X193173Y80507D01*
X193120Y80555D01*
X193071Y80606D01*
X193024Y80660D01*
X192980Y80716D01*
X192939Y80775D01*
X192901Y80835D01*
X192866Y80898D01*
X192835Y80962D01*
X192807Y81028D01*
X192783Y81095D01*
X192762Y81163D01*
X192745Y81233D01*
X192732Y81303D01*
X192723Y81373D01*
X192717Y81445D01*
X192715Y81516D01*
X198385Y80175D02*
X198385Y85001D01*
X201066Y80175D01*
X201066Y85001D01*
X204237Y85001D02*
X204237Y80175D01*
X206918Y80175D02*
X204237Y85001D01*
X206918Y85001D02*
X206918Y80175D01*
X210109Y80175D02*
X212254Y80175D01*
X210109Y80175D02*
X210109Y85001D01*
X212254Y85001D01*
X211717Y82856D02*
X210109Y82856D01*
X215705Y80175D02*
X216777Y80175D01*
X215705Y80175D02*
X215640Y80177D01*
X215576Y80183D01*
X215512Y80193D01*
X215448Y80206D01*
X215386Y80224D01*
X215325Y80245D01*
X215265Y80269D01*
X215207Y80298D01*
X215150Y80330D01*
X215096Y80365D01*
X215044Y80403D01*
X214994Y80445D01*
X214947Y80489D01*
X214903Y80536D01*
X214861Y80586D01*
X214823Y80638D01*
X214788Y80692D01*
X214756Y80749D01*
X214727Y80807D01*
X214703Y80867D01*
X214682Y80928D01*
X214664Y80990D01*
X214651Y81054D01*
X214641Y81118D01*
X214635Y81182D01*
X214633Y81247D01*
X214632Y81247D02*
X214632Y83929D01*
X214633Y83929D02*
X214635Y83994D01*
X214641Y84058D01*
X214651Y84122D01*
X214664Y84186D01*
X214682Y84248D01*
X214703Y84309D01*
X214727Y84369D01*
X214756Y84427D01*
X214788Y84484D01*
X214823Y84538D01*
X214861Y84590D01*
X214903Y84640D01*
X214947Y84687D01*
X214994Y84731D01*
X215044Y84773D01*
X215096Y84811D01*
X215150Y84846D01*
X215207Y84878D01*
X215265Y84907D01*
X215325Y84931D01*
X215386Y84952D01*
X215448Y84970D01*
X215512Y84983D01*
X215576Y84993D01*
X215640Y84999D01*
X215705Y85001D01*
X216777Y85001D01*
X220208Y85001D02*
X220208Y80175D01*
X218867Y85001D02*
X221548Y85001D01*
X223988Y83660D02*
X223988Y81516D01*
X223988Y83660D02*
X223990Y83731D01*
X223996Y83803D01*
X224005Y83873D01*
X224018Y83943D01*
X224035Y84013D01*
X224056Y84081D01*
X224080Y84148D01*
X224108Y84214D01*
X224139Y84278D01*
X224174Y84341D01*
X224212Y84401D01*
X224253Y84460D01*
X224297Y84516D01*
X224344Y84570D01*
X224393Y84621D01*
X224446Y84669D01*
X224501Y84715D01*
X224558Y84757D01*
X224618Y84797D01*
X224679Y84833D01*
X224743Y84866D01*
X224808Y84895D01*
X224874Y84921D01*
X224942Y84944D01*
X225011Y84963D01*
X225081Y84978D01*
X225151Y84989D01*
X225222Y84997D01*
X225293Y85001D01*
X225365Y85001D01*
X225436Y84997D01*
X225507Y84989D01*
X225577Y84978D01*
X225647Y84963D01*
X225716Y84944D01*
X225784Y84921D01*
X225850Y84895D01*
X225915Y84866D01*
X225979Y84833D01*
X226040Y84797D01*
X226100Y84757D01*
X226157Y84715D01*
X226212Y84669D01*
X226265Y84621D01*
X226314Y84570D01*
X226361Y84516D01*
X226405Y84460D01*
X226446Y84401D01*
X226484Y84341D01*
X226519Y84278D01*
X226550Y84214D01*
X226578Y84148D01*
X226602Y84081D01*
X226623Y84013D01*
X226640Y83943D01*
X226653Y83873D01*
X226662Y83803D01*
X226668Y83731D01*
X226670Y83660D01*
X226669Y83660D02*
X226669Y81516D01*
X226670Y81516D02*
X226668Y81445D01*
X226662Y81373D01*
X226653Y81303D01*
X226640Y81233D01*
X226623Y81163D01*
X226602Y81095D01*
X226578Y81028D01*
X226550Y80962D01*
X226519Y80898D01*
X226484Y80835D01*
X226446Y80775D01*
X226405Y80716D01*
X226361Y80660D01*
X226314Y80606D01*
X226265Y80555D01*
X226212Y80507D01*
X226157Y80461D01*
X226100Y80419D01*
X226040Y80379D01*
X225979Y80343D01*
X225915Y80310D01*
X225850Y80281D01*
X225784Y80255D01*
X225716Y80232D01*
X225647Y80213D01*
X225577Y80198D01*
X225507Y80187D01*
X225436Y80179D01*
X225365Y80175D01*
X225293Y80175D01*
X225222Y80179D01*
X225151Y80187D01*
X225081Y80198D01*
X225011Y80213D01*
X224942Y80232D01*
X224874Y80255D01*
X224808Y80281D01*
X224743Y80310D01*
X224679Y80343D01*
X224618Y80379D01*
X224558Y80419D01*
X224501Y80461D01*
X224446Y80507D01*
X224393Y80555D01*
X224344Y80606D01*
X224297Y80660D01*
X224253Y80716D01*
X224212Y80775D01*
X224174Y80835D01*
X224139Y80898D01*
X224108Y80962D01*
X224080Y81028D01*
X224056Y81095D01*
X224035Y81163D01*
X224018Y81233D01*
X224005Y81303D01*
X223996Y81373D01*
X223990Y81445D01*
X223988Y81516D01*
X229721Y80175D02*
X229721Y85001D01*
X231061Y85001D01*
X231132Y84999D01*
X231204Y84993D01*
X231274Y84984D01*
X231344Y84971D01*
X231414Y84954D01*
X231482Y84933D01*
X231549Y84909D01*
X231615Y84881D01*
X231679Y84850D01*
X231742Y84815D01*
X231802Y84777D01*
X231861Y84736D01*
X231917Y84692D01*
X231971Y84645D01*
X232022Y84596D01*
X232070Y84543D01*
X232116Y84488D01*
X232158Y84431D01*
X232198Y84371D01*
X232234Y84310D01*
X232267Y84246D01*
X232296Y84181D01*
X232322Y84115D01*
X232345Y84047D01*
X232364Y83978D01*
X232379Y83908D01*
X232390Y83838D01*
X232398Y83767D01*
X232402Y83696D01*
X232402Y83624D01*
X232398Y83553D01*
X232390Y83482D01*
X232379Y83412D01*
X232364Y83342D01*
X232345Y83273D01*
X232322Y83205D01*
X232296Y83139D01*
X232267Y83074D01*
X232234Y83010D01*
X232198Y82949D01*
X232158Y82889D01*
X232116Y82832D01*
X232070Y82777D01*
X232022Y82724D01*
X231971Y82675D01*
X231917Y82628D01*
X231861Y82584D01*
X231802Y82543D01*
X231742Y82505D01*
X231679Y82470D01*
X231615Y82439D01*
X231549Y82411D01*
X231482Y82387D01*
X231414Y82366D01*
X231344Y82349D01*
X231274Y82336D01*
X231204Y82327D01*
X231132Y82321D01*
X231061Y82319D01*
X231061Y82320D02*
X229721Y82320D01*
X231330Y82320D02*
X232402Y80175D01*
X234863Y79639D02*
X237008Y79639D01*
X239776Y80175D02*
X239776Y85001D01*
X239240Y80175D02*
X240312Y80175D01*
X240312Y85001D02*
X239240Y85001D01*
X244299Y85001D02*
X244367Y84999D01*
X244434Y84993D01*
X244501Y84984D01*
X244568Y84971D01*
X244633Y84954D01*
X244698Y84933D01*
X244761Y84909D01*
X244823Y84881D01*
X244883Y84850D01*
X244941Y84816D01*
X244997Y84778D01*
X245052Y84738D01*
X245103Y84694D01*
X245152Y84647D01*
X245199Y84598D01*
X245243Y84547D01*
X245283Y84492D01*
X245321Y84436D01*
X245355Y84378D01*
X245386Y84318D01*
X245414Y84256D01*
X245438Y84193D01*
X245459Y84128D01*
X245476Y84063D01*
X245489Y83996D01*
X245498Y83929D01*
X245504Y83862D01*
X245506Y83794D01*
X244299Y85001D02*
X244221Y84999D01*
X244143Y84993D01*
X244066Y84983D01*
X243989Y84970D01*
X243913Y84952D01*
X243838Y84931D01*
X243764Y84906D01*
X243692Y84877D01*
X243621Y84845D01*
X243552Y84809D01*
X243484Y84770D01*
X243419Y84727D01*
X243356Y84681D01*
X243295Y84632D01*
X243237Y84580D01*
X243182Y84525D01*
X243129Y84468D01*
X243080Y84408D01*
X243033Y84345D01*
X242990Y84281D01*
X242950Y84214D01*
X242913Y84145D01*
X242880Y84074D01*
X242850Y84002D01*
X242824Y83929D01*
X245104Y82856D02*
X245153Y82905D01*
X245200Y82957D01*
X245243Y83012D01*
X245284Y83069D01*
X245322Y83128D01*
X245356Y83189D01*
X245387Y83252D01*
X245415Y83316D01*
X245439Y83382D01*
X245459Y83448D01*
X245476Y83516D01*
X245489Y83585D01*
X245498Y83654D01*
X245504Y83724D01*
X245506Y83794D01*
X245103Y82856D02*
X242824Y80175D01*
X245506Y80175D01*
X249355Y80175D02*
X250427Y80175D01*
X249355Y80175D02*
X249290Y80177D01*
X249226Y80183D01*
X249162Y80193D01*
X249098Y80206D01*
X249036Y80224D01*
X248975Y80245D01*
X248915Y80269D01*
X248857Y80298D01*
X248800Y80330D01*
X248746Y80365D01*
X248694Y80403D01*
X248644Y80445D01*
X248597Y80489D01*
X248553Y80536D01*
X248511Y80586D01*
X248473Y80638D01*
X248438Y80692D01*
X248406Y80749D01*
X248377Y80807D01*
X248353Y80867D01*
X248332Y80928D01*
X248314Y80990D01*
X248301Y81054D01*
X248291Y81118D01*
X248285Y81182D01*
X248283Y81247D01*
X248282Y81247D02*
X248282Y83929D01*
X248283Y83929D02*
X248285Y83994D01*
X248291Y84058D01*
X248301Y84122D01*
X248314Y84186D01*
X248332Y84248D01*
X248353Y84309D01*
X248377Y84369D01*
X248406Y84427D01*
X248438Y84484D01*
X248473Y84538D01*
X248511Y84590D01*
X248553Y84640D01*
X248597Y84687D01*
X248644Y84731D01*
X248694Y84773D01*
X248746Y84811D01*
X248800Y84846D01*
X248857Y84878D01*
X248915Y84907D01*
X248975Y84931D01*
X249036Y84952D01*
X249098Y84970D01*
X249162Y84983D01*
X249226Y84993D01*
X249290Y84999D01*
X249355Y85001D01*
X250427Y85001D01*
X231455Y216885D02*
X229550Y216885D01*
X231455Y216885D02*
X231455Y210535D01*
X227645Y210535D01*
X227545Y210537D01*
X227446Y210543D01*
X227346Y210553D01*
X227248Y210566D01*
X227149Y210584D01*
X227052Y210605D01*
X226956Y210630D01*
X226860Y210659D01*
X226766Y210692D01*
X226673Y210728D01*
X226582Y210768D01*
X226492Y210812D01*
X226404Y210859D01*
X226318Y210909D01*
X226234Y210963D01*
X226152Y211020D01*
X226073Y211080D01*
X225995Y211144D01*
X225921Y211210D01*
X225849Y211279D01*
X225780Y211351D01*
X225714Y211425D01*
X225650Y211503D01*
X225590Y211582D01*
X225533Y211664D01*
X225479Y211748D01*
X225429Y211834D01*
X225382Y211922D01*
X225338Y212012D01*
X225298Y212103D01*
X225262Y212196D01*
X225229Y212290D01*
X225200Y212386D01*
X225175Y212482D01*
X225154Y212579D01*
X225136Y212678D01*
X225123Y212776D01*
X225113Y212876D01*
X225107Y212975D01*
X225105Y213075D01*
X225105Y219425D01*
X225107Y219525D01*
X225113Y219624D01*
X225123Y219724D01*
X225136Y219822D01*
X225154Y219921D01*
X225175Y220018D01*
X225200Y220114D01*
X225229Y220210D01*
X225262Y220304D01*
X225298Y220397D01*
X225338Y220488D01*
X225382Y220578D01*
X225429Y220666D01*
X225479Y220752D01*
X225533Y220836D01*
X225590Y220918D01*
X225650Y220997D01*
X225714Y221075D01*
X225780Y221149D01*
X225849Y221221D01*
X225921Y221290D01*
X225995Y221356D01*
X226073Y221420D01*
X226152Y221480D01*
X226234Y221537D01*
X226318Y221591D01*
X226404Y221641D01*
X226492Y221688D01*
X226582Y221732D01*
X226673Y221772D01*
X226766Y221808D01*
X226860Y221841D01*
X226956Y221870D01*
X227052Y221895D01*
X227149Y221916D01*
X227248Y221934D01*
X227346Y221947D01*
X227446Y221957D01*
X227545Y221963D01*
X227645Y221965D01*
X231455Y221965D01*
X237380Y221965D02*
X237380Y210535D01*
X237380Y221965D02*
X240555Y221965D01*
X240666Y221963D01*
X240776Y221957D01*
X240887Y221948D01*
X240997Y221934D01*
X241106Y221917D01*
X241215Y221896D01*
X241323Y221871D01*
X241430Y221842D01*
X241536Y221810D01*
X241641Y221774D01*
X241744Y221734D01*
X241846Y221691D01*
X241947Y221644D01*
X242046Y221593D01*
X242143Y221540D01*
X242237Y221483D01*
X242330Y221422D01*
X242421Y221359D01*
X242510Y221292D01*
X242596Y221222D01*
X242679Y221149D01*
X242761Y221074D01*
X242839Y220996D01*
X242914Y220914D01*
X242987Y220831D01*
X243057Y220745D01*
X243124Y220656D01*
X243187Y220565D01*
X243248Y220472D01*
X243305Y220377D01*
X243358Y220281D01*
X243409Y220182D01*
X243456Y220081D01*
X243499Y219979D01*
X243539Y219876D01*
X243575Y219771D01*
X243607Y219665D01*
X243636Y219558D01*
X243661Y219450D01*
X243682Y219341D01*
X243699Y219232D01*
X243713Y219122D01*
X243722Y219011D01*
X243728Y218901D01*
X243730Y218790D01*
X243728Y218679D01*
X243722Y218569D01*
X243713Y218458D01*
X243699Y218348D01*
X243682Y218239D01*
X243661Y218130D01*
X243636Y218022D01*
X243607Y217915D01*
X243575Y217809D01*
X243539Y217704D01*
X243499Y217601D01*
X243456Y217499D01*
X243409Y217398D01*
X243358Y217299D01*
X243305Y217202D01*
X243248Y217108D01*
X243187Y217015D01*
X243124Y216924D01*
X243057Y216835D01*
X242987Y216749D01*
X242914Y216666D01*
X242839Y216584D01*
X242761Y216506D01*
X242679Y216431D01*
X242596Y216358D01*
X242510Y216288D01*
X242421Y216221D01*
X242330Y216158D01*
X242237Y216097D01*
X242142Y216040D01*
X242046Y215987D01*
X241947Y215936D01*
X241846Y215889D01*
X241744Y215846D01*
X241641Y215806D01*
X241536Y215770D01*
X241430Y215738D01*
X241323Y215709D01*
X241215Y215684D01*
X241106Y215663D01*
X240997Y215646D01*
X240887Y215632D01*
X240776Y215623D01*
X240666Y215617D01*
X240555Y215615D01*
X237380Y215615D01*
X241190Y215615D02*
X243730Y210535D01*
X248727Y213710D02*
X248727Y218790D01*
X248729Y218901D01*
X248735Y219011D01*
X248744Y219122D01*
X248758Y219232D01*
X248775Y219341D01*
X248796Y219450D01*
X248821Y219558D01*
X248850Y219665D01*
X248882Y219771D01*
X248918Y219876D01*
X248958Y219979D01*
X249001Y220081D01*
X249048Y220182D01*
X249099Y220281D01*
X249152Y220378D01*
X249209Y220472D01*
X249270Y220565D01*
X249333Y220656D01*
X249400Y220745D01*
X249470Y220831D01*
X249543Y220914D01*
X249618Y220996D01*
X249696Y221074D01*
X249778Y221149D01*
X249861Y221222D01*
X249947Y221292D01*
X250036Y221359D01*
X250127Y221422D01*
X250220Y221483D01*
X250315Y221540D01*
X250411Y221593D01*
X250510Y221644D01*
X250611Y221691D01*
X250713Y221734D01*
X250816Y221774D01*
X250921Y221810D01*
X251027Y221842D01*
X251134Y221871D01*
X251242Y221896D01*
X251351Y221917D01*
X251460Y221934D01*
X251570Y221948D01*
X251681Y221957D01*
X251791Y221963D01*
X251902Y221965D01*
X252013Y221963D01*
X252123Y221957D01*
X252234Y221948D01*
X252344Y221934D01*
X252453Y221917D01*
X252562Y221896D01*
X252670Y221871D01*
X252777Y221842D01*
X252883Y221810D01*
X252988Y221774D01*
X253091Y221734D01*
X253193Y221691D01*
X253294Y221644D01*
X253393Y221593D01*
X253490Y221540D01*
X253584Y221483D01*
X253677Y221422D01*
X253768Y221359D01*
X253857Y221292D01*
X253943Y221222D01*
X254026Y221149D01*
X254108Y221074D01*
X254186Y220996D01*
X254261Y220914D01*
X254334Y220831D01*
X254404Y220745D01*
X254471Y220656D01*
X254534Y220565D01*
X254595Y220472D01*
X254652Y220378D01*
X254705Y220281D01*
X254756Y220182D01*
X254803Y220081D01*
X254846Y219979D01*
X254886Y219876D01*
X254922Y219771D01*
X254954Y219665D01*
X254983Y219558D01*
X255008Y219450D01*
X255029Y219341D01*
X255046Y219232D01*
X255060Y219122D01*
X255069Y219011D01*
X255075Y218901D01*
X255077Y218790D01*
X255077Y213710D01*
X255075Y213599D01*
X255069Y213489D01*
X255060Y213378D01*
X255046Y213268D01*
X255029Y213159D01*
X255008Y213050D01*
X254983Y212942D01*
X254954Y212835D01*
X254922Y212729D01*
X254886Y212624D01*
X254846Y212521D01*
X254803Y212419D01*
X254756Y212318D01*
X254705Y212219D01*
X254652Y212122D01*
X254595Y212028D01*
X254534Y211935D01*
X254471Y211844D01*
X254404Y211755D01*
X254334Y211669D01*
X254261Y211586D01*
X254186Y211504D01*
X254108Y211426D01*
X254026Y211351D01*
X253943Y211278D01*
X253857Y211208D01*
X253768Y211141D01*
X253677Y211078D01*
X253584Y211017D01*
X253489Y210960D01*
X253393Y210907D01*
X253294Y210856D01*
X253193Y210809D01*
X253091Y210766D01*
X252988Y210726D01*
X252883Y210690D01*
X252777Y210658D01*
X252670Y210629D01*
X252562Y210604D01*
X252453Y210583D01*
X252344Y210566D01*
X252234Y210552D01*
X252123Y210543D01*
X252013Y210537D01*
X251902Y210535D01*
X251791Y210537D01*
X251681Y210543D01*
X251570Y210552D01*
X251460Y210566D01*
X251351Y210583D01*
X251242Y210604D01*
X251134Y210629D01*
X251027Y210658D01*
X250921Y210690D01*
X250816Y210726D01*
X250713Y210766D01*
X250611Y210809D01*
X250510Y210856D01*
X250411Y210907D01*
X250315Y210960D01*
X250220Y211017D01*
X250127Y211078D01*
X250036Y211141D01*
X249947Y211208D01*
X249861Y211278D01*
X249778Y211351D01*
X249696Y211426D01*
X249618Y211504D01*
X249543Y211586D01*
X249470Y211669D01*
X249400Y211755D01*
X249333Y211844D01*
X249270Y211935D01*
X249209Y212028D01*
X249152Y212123D01*
X249099Y212219D01*
X249048Y212318D01*
X249001Y212419D01*
X248958Y212521D01*
X248918Y212624D01*
X248882Y212729D01*
X248850Y212835D01*
X248821Y212942D01*
X248796Y213050D01*
X248775Y213159D01*
X248758Y213268D01*
X248744Y213378D01*
X248735Y213489D01*
X248729Y213599D01*
X248727Y213710D01*
X260538Y213710D02*
X260538Y221965D01*
X260538Y213710D02*
X260540Y213599D01*
X260546Y213489D01*
X260555Y213378D01*
X260569Y213268D01*
X260586Y213159D01*
X260607Y213050D01*
X260632Y212942D01*
X260661Y212835D01*
X260693Y212729D01*
X260729Y212624D01*
X260769Y212521D01*
X260812Y212419D01*
X260859Y212318D01*
X260910Y212219D01*
X260963Y212123D01*
X261020Y212028D01*
X261081Y211935D01*
X261144Y211844D01*
X261211Y211755D01*
X261281Y211669D01*
X261354Y211586D01*
X261429Y211504D01*
X261507Y211426D01*
X261589Y211351D01*
X261672Y211278D01*
X261758Y211208D01*
X261847Y211141D01*
X261938Y211078D01*
X262031Y211017D01*
X262126Y210960D01*
X262222Y210907D01*
X262321Y210856D01*
X262422Y210809D01*
X262524Y210766D01*
X262627Y210726D01*
X262732Y210690D01*
X262838Y210658D01*
X262945Y210629D01*
X263053Y210604D01*
X263162Y210583D01*
X263271Y210566D01*
X263381Y210552D01*
X263492Y210543D01*
X263602Y210537D01*
X263713Y210535D01*
X263824Y210537D01*
X263934Y210543D01*
X264045Y210552D01*
X264155Y210566D01*
X264264Y210583D01*
X264373Y210604D01*
X264481Y210629D01*
X264588Y210658D01*
X264694Y210690D01*
X264799Y210726D01*
X264902Y210766D01*
X265004Y210809D01*
X265105Y210856D01*
X265204Y210907D01*
X265300Y210960D01*
X265395Y211017D01*
X265488Y211078D01*
X265579Y211141D01*
X265668Y211208D01*
X265754Y211278D01*
X265837Y211351D01*
X265919Y211426D01*
X265997Y211504D01*
X266072Y211586D01*
X266145Y211669D01*
X266215Y211755D01*
X266282Y211844D01*
X266345Y211935D01*
X266406Y212028D01*
X266463Y212122D01*
X266516Y212219D01*
X266567Y212318D01*
X266614Y212419D01*
X266657Y212521D01*
X266697Y212624D01*
X266733Y212729D01*
X266765Y212835D01*
X266794Y212942D01*
X266819Y213050D01*
X266840Y213159D01*
X266857Y213268D01*
X266871Y213378D01*
X266880Y213489D01*
X266886Y213599D01*
X266888Y213710D01*
X266888Y221965D01*
X272730Y221965D02*
X272730Y210535D01*
X279080Y210535D02*
X272730Y221965D01*
X279080Y221965D02*
X279080Y210535D01*
X284922Y210535D02*
X284922Y221965D01*
X288097Y221965D01*
X288208Y221963D01*
X288318Y221957D01*
X288429Y221948D01*
X288539Y221934D01*
X288648Y221917D01*
X288757Y221896D01*
X288865Y221871D01*
X288972Y221842D01*
X289078Y221810D01*
X289183Y221774D01*
X289286Y221734D01*
X289388Y221691D01*
X289489Y221644D01*
X289588Y221593D01*
X289685Y221540D01*
X289779Y221483D01*
X289872Y221422D01*
X289963Y221359D01*
X290052Y221292D01*
X290138Y221222D01*
X290221Y221149D01*
X290303Y221074D01*
X290381Y220996D01*
X290456Y220914D01*
X290529Y220831D01*
X290599Y220745D01*
X290666Y220656D01*
X290729Y220565D01*
X290790Y220472D01*
X290847Y220378D01*
X290900Y220281D01*
X290951Y220182D01*
X290998Y220081D01*
X291041Y219979D01*
X291081Y219876D01*
X291117Y219771D01*
X291149Y219665D01*
X291178Y219558D01*
X291203Y219450D01*
X291224Y219341D01*
X291241Y219232D01*
X291255Y219122D01*
X291264Y219011D01*
X291270Y218901D01*
X291272Y218790D01*
X291272Y213710D01*
X291270Y213599D01*
X291264Y213489D01*
X291255Y213378D01*
X291241Y213268D01*
X291224Y213159D01*
X291203Y213050D01*
X291178Y212942D01*
X291149Y212835D01*
X291117Y212729D01*
X291081Y212624D01*
X291041Y212521D01*
X290998Y212419D01*
X290951Y212318D01*
X290900Y212219D01*
X290847Y212122D01*
X290790Y212028D01*
X290729Y211935D01*
X290666Y211844D01*
X290599Y211755D01*
X290529Y211669D01*
X290456Y211586D01*
X290381Y211504D01*
X290303Y211426D01*
X290221Y211351D01*
X290138Y211278D01*
X290052Y211208D01*
X289963Y211141D01*
X289872Y211078D01*
X289779Y211017D01*
X289685Y210960D01*
X289588Y210907D01*
X289489Y210856D01*
X289388Y210809D01*
X289286Y210766D01*
X289183Y210726D01*
X289078Y210690D01*
X288972Y210658D01*
X288865Y210629D01*
X288757Y210604D01*
X288648Y210583D01*
X288539Y210566D01*
X288429Y210552D01*
X288318Y210543D01*
X288208Y210537D01*
X288097Y210535D01*
X284922Y210535D01*
X296225Y209265D02*
X301305Y209265D01*
X312227Y219108D02*
X312225Y219212D01*
X312219Y219317D01*
X312210Y219421D01*
X312197Y219524D01*
X312179Y219627D01*
X312159Y219729D01*
X312134Y219831D01*
X312106Y219931D01*
X312074Y220031D01*
X312038Y220129D01*
X311999Y220226D01*
X311957Y220321D01*
X311911Y220415D01*
X311861Y220507D01*
X311809Y220597D01*
X311753Y220685D01*
X311693Y220771D01*
X311631Y220855D01*
X311566Y220936D01*
X311498Y221015D01*
X311426Y221092D01*
X311353Y221165D01*
X311276Y221237D01*
X311197Y221305D01*
X311116Y221370D01*
X311032Y221432D01*
X310946Y221492D01*
X310858Y221548D01*
X310768Y221600D01*
X310676Y221650D01*
X310582Y221696D01*
X310487Y221738D01*
X310390Y221777D01*
X310292Y221813D01*
X310192Y221845D01*
X310092Y221873D01*
X309990Y221898D01*
X309888Y221918D01*
X309785Y221936D01*
X309682Y221949D01*
X309578Y221958D01*
X309473Y221964D01*
X309369Y221966D01*
X309369Y221965D02*
X309251Y221963D01*
X309132Y221957D01*
X309014Y221948D01*
X308897Y221935D01*
X308780Y221917D01*
X308663Y221897D01*
X308547Y221872D01*
X308432Y221844D01*
X308319Y221811D01*
X308206Y221776D01*
X308094Y221736D01*
X307984Y221694D01*
X307875Y221647D01*
X307767Y221597D01*
X307662Y221544D01*
X307558Y221487D01*
X307456Y221427D01*
X307356Y221364D01*
X307258Y221297D01*
X307162Y221228D01*
X307069Y221155D01*
X306978Y221079D01*
X306889Y221001D01*
X306803Y220919D01*
X306720Y220835D01*
X306639Y220749D01*
X306562Y220659D01*
X306487Y220568D01*
X306415Y220474D01*
X306346Y220377D01*
X306281Y220279D01*
X306218Y220178D01*
X306159Y220075D01*
X306103Y219971D01*
X306051Y219865D01*
X306002Y219757D01*
X305957Y219648D01*
X305915Y219537D01*
X305877Y219425D01*
X311275Y216886D02*
X311351Y216961D01*
X311426Y217040D01*
X311497Y217121D01*
X311566Y217205D01*
X311631Y217291D01*
X311693Y217379D01*
X311753Y217469D01*
X311809Y217561D01*
X311862Y217656D01*
X311911Y217752D01*
X311957Y217850D01*
X312000Y217949D01*
X312039Y218050D01*
X312074Y218152D01*
X312106Y218255D01*
X312134Y218359D01*
X312159Y218464D01*
X312180Y218571D01*
X312197Y218677D01*
X312210Y218784D01*
X312219Y218892D01*
X312225Y219000D01*
X312227Y219108D01*
X311274Y216885D02*
X305877Y210535D01*
X312227Y210535D01*
X250505Y193555D02*
X250505Y182125D01*
X250505Y193555D02*
X253680Y193555D01*
X253791Y193553D01*
X253901Y193547D01*
X254012Y193538D01*
X254122Y193524D01*
X254231Y193507D01*
X254340Y193486D01*
X254448Y193461D01*
X254555Y193432D01*
X254661Y193400D01*
X254766Y193364D01*
X254869Y193324D01*
X254971Y193281D01*
X255072Y193234D01*
X255171Y193183D01*
X255268Y193130D01*
X255362Y193073D01*
X255455Y193012D01*
X255546Y192949D01*
X255635Y192882D01*
X255721Y192812D01*
X255804Y192739D01*
X255886Y192664D01*
X255964Y192586D01*
X256039Y192504D01*
X256112Y192421D01*
X256182Y192335D01*
X256249Y192246D01*
X256312Y192155D01*
X256373Y192062D01*
X256430Y191967D01*
X256483Y191871D01*
X256534Y191772D01*
X256581Y191671D01*
X256624Y191569D01*
X256664Y191466D01*
X256700Y191361D01*
X256732Y191255D01*
X256761Y191148D01*
X256786Y191040D01*
X256807Y190931D01*
X256824Y190822D01*
X256838Y190712D01*
X256847Y190601D01*
X256853Y190491D01*
X256855Y190380D01*
X256853Y190269D01*
X256847Y190159D01*
X256838Y190048D01*
X256824Y189938D01*
X256807Y189829D01*
X256786Y189720D01*
X256761Y189612D01*
X256732Y189505D01*
X256700Y189399D01*
X256664Y189294D01*
X256624Y189191D01*
X256581Y189089D01*
X256534Y188988D01*
X256483Y188889D01*
X256430Y188792D01*
X256373Y188698D01*
X256312Y188605D01*
X256249Y188514D01*
X256182Y188425D01*
X256112Y188339D01*
X256039Y188256D01*
X255964Y188174D01*
X255886Y188096D01*
X255804Y188021D01*
X255721Y187948D01*
X255635Y187878D01*
X255546Y187811D01*
X255455Y187748D01*
X255362Y187687D01*
X255267Y187630D01*
X255171Y187577D01*
X255072Y187526D01*
X254971Y187479D01*
X254869Y187436D01*
X254766Y187396D01*
X254661Y187360D01*
X254555Y187328D01*
X254448Y187299D01*
X254340Y187274D01*
X254231Y187253D01*
X254122Y187236D01*
X254012Y187222D01*
X253901Y187213D01*
X253791Y187207D01*
X253680Y187205D01*
X250505Y187205D01*
X254315Y187205D02*
X256855Y182125D01*
X261217Y182125D02*
X268837Y193555D01*
X261217Y193555D02*
X268837Y182125D01*
X274171Y182125D02*
X274171Y193555D01*
X272901Y182125D02*
X275441Y182125D01*
X275441Y193555D02*
X272901Y193555D01*
X253680Y210103D02*
X253680Y221533D01*
X250505Y221533D02*
X256855Y221533D01*
X268158Y221533D02*
X260538Y210103D01*
X268158Y210103D02*
X260538Y221533D01*
X272603Y218358D02*
X272603Y213278D01*
X272603Y218358D02*
X272605Y218469D01*
X272611Y218579D01*
X272620Y218690D01*
X272634Y218800D01*
X272651Y218909D01*
X272672Y219018D01*
X272697Y219126D01*
X272726Y219233D01*
X272758Y219339D01*
X272794Y219444D01*
X272834Y219547D01*
X272877Y219649D01*
X272924Y219750D01*
X272975Y219849D01*
X273028Y219946D01*
X273085Y220040D01*
X273146Y220133D01*
X273209Y220224D01*
X273276Y220313D01*
X273346Y220399D01*
X273419Y220482D01*
X273494Y220564D01*
X273572Y220642D01*
X273654Y220717D01*
X273737Y220790D01*
X273823Y220860D01*
X273912Y220927D01*
X274003Y220990D01*
X274096Y221051D01*
X274191Y221108D01*
X274287Y221161D01*
X274386Y221212D01*
X274487Y221259D01*
X274589Y221302D01*
X274692Y221342D01*
X274797Y221378D01*
X274903Y221410D01*
X275010Y221439D01*
X275118Y221464D01*
X275227Y221485D01*
X275336Y221502D01*
X275446Y221516D01*
X275557Y221525D01*
X275667Y221531D01*
X275778Y221533D01*
X275889Y221531D01*
X275999Y221525D01*
X276110Y221516D01*
X276220Y221502D01*
X276329Y221485D01*
X276438Y221464D01*
X276546Y221439D01*
X276653Y221410D01*
X276759Y221378D01*
X276864Y221342D01*
X276967Y221302D01*
X277069Y221259D01*
X277170Y221212D01*
X277269Y221161D01*
X277366Y221108D01*
X277460Y221051D01*
X277553Y220990D01*
X277644Y220927D01*
X277733Y220860D01*
X277819Y220790D01*
X277902Y220717D01*
X277984Y220642D01*
X278062Y220564D01*
X278137Y220482D01*
X278210Y220399D01*
X278280Y220313D01*
X278347Y220224D01*
X278410Y220133D01*
X278471Y220040D01*
X278528Y219946D01*
X278581Y219849D01*
X278632Y219750D01*
X278679Y219649D01*
X278722Y219547D01*
X278762Y219444D01*
X278798Y219339D01*
X278830Y219233D01*
X278859Y219126D01*
X278884Y219018D01*
X278905Y218909D01*
X278922Y218800D01*
X278936Y218690D01*
X278945Y218579D01*
X278951Y218469D01*
X278953Y218358D01*
X278953Y213278D01*
X278951Y213167D01*
X278945Y213057D01*
X278936Y212946D01*
X278922Y212836D01*
X278905Y212727D01*
X278884Y212618D01*
X278859Y212510D01*
X278830Y212403D01*
X278798Y212297D01*
X278762Y212192D01*
X278722Y212089D01*
X278679Y211987D01*
X278632Y211886D01*
X278581Y211787D01*
X278528Y211690D01*
X278471Y211596D01*
X278410Y211503D01*
X278347Y211412D01*
X278280Y211323D01*
X278210Y211237D01*
X278137Y211154D01*
X278062Y211072D01*
X277984Y210994D01*
X277902Y210919D01*
X277819Y210846D01*
X277733Y210776D01*
X277644Y210709D01*
X277553Y210646D01*
X277460Y210585D01*
X277365Y210528D01*
X277269Y210475D01*
X277170Y210424D01*
X277069Y210377D01*
X276967Y210334D01*
X276864Y210294D01*
X276759Y210258D01*
X276653Y210226D01*
X276546Y210197D01*
X276438Y210172D01*
X276329Y210151D01*
X276220Y210134D01*
X276110Y210120D01*
X275999Y210111D01*
X275889Y210105D01*
X275778Y210103D01*
X275667Y210105D01*
X275557Y210111D01*
X275446Y210120D01*
X275336Y210134D01*
X275227Y210151D01*
X275118Y210172D01*
X275010Y210197D01*
X274903Y210226D01*
X274797Y210258D01*
X274692Y210294D01*
X274589Y210334D01*
X274487Y210377D01*
X274386Y210424D01*
X274287Y210475D01*
X274191Y210528D01*
X274096Y210585D01*
X274003Y210646D01*
X273912Y210709D01*
X273823Y210776D01*
X273737Y210846D01*
X273654Y210919D01*
X273572Y210994D01*
X273494Y211072D01*
X273419Y211154D01*
X273346Y211237D01*
X273276Y211323D01*
X273209Y211412D01*
X273146Y211503D01*
X273085Y211596D01*
X273028Y211691D01*
X272975Y211787D01*
X272924Y211886D01*
X272877Y211987D01*
X272834Y212089D01*
X272794Y212192D01*
X272758Y212297D01*
X272726Y212403D01*
X272697Y212510D01*
X272672Y212618D01*
X272651Y212727D01*
X272634Y212836D01*
X272620Y212946D01*
X272611Y213057D01*
X272605Y213167D01*
X272603Y213278D01*
X225105Y193631D02*
X225105Y182201D01*
X225105Y193631D02*
X228280Y193631D01*
X228391Y193629D01*
X228501Y193623D01*
X228612Y193614D01*
X228722Y193600D01*
X228831Y193583D01*
X228940Y193562D01*
X229048Y193537D01*
X229155Y193508D01*
X229261Y193476D01*
X229366Y193440D01*
X229469Y193400D01*
X229571Y193357D01*
X229672Y193310D01*
X229771Y193259D01*
X229868Y193206D01*
X229962Y193149D01*
X230055Y193088D01*
X230146Y193025D01*
X230235Y192958D01*
X230321Y192888D01*
X230404Y192815D01*
X230486Y192740D01*
X230564Y192662D01*
X230639Y192580D01*
X230712Y192497D01*
X230782Y192411D01*
X230849Y192322D01*
X230912Y192231D01*
X230973Y192138D01*
X231030Y192044D01*
X231083Y191947D01*
X231134Y191848D01*
X231181Y191747D01*
X231224Y191645D01*
X231264Y191542D01*
X231300Y191437D01*
X231332Y191331D01*
X231361Y191224D01*
X231386Y191116D01*
X231407Y191007D01*
X231424Y190898D01*
X231438Y190788D01*
X231447Y190677D01*
X231453Y190567D01*
X231455Y190456D01*
X231455Y185376D01*
X231453Y185265D01*
X231447Y185155D01*
X231438Y185044D01*
X231424Y184934D01*
X231407Y184825D01*
X231386Y184716D01*
X231361Y184608D01*
X231332Y184501D01*
X231300Y184395D01*
X231264Y184290D01*
X231224Y184187D01*
X231181Y184085D01*
X231134Y183984D01*
X231083Y183885D01*
X231030Y183788D01*
X230973Y183694D01*
X230912Y183601D01*
X230849Y183510D01*
X230782Y183421D01*
X230712Y183335D01*
X230639Y183252D01*
X230564Y183170D01*
X230486Y183092D01*
X230404Y183017D01*
X230321Y182944D01*
X230235Y182874D01*
X230146Y182807D01*
X230055Y182744D01*
X229962Y182683D01*
X229867Y182626D01*
X229771Y182573D01*
X229672Y182522D01*
X229571Y182475D01*
X229469Y182432D01*
X229366Y182392D01*
X229261Y182356D01*
X229155Y182324D01*
X229048Y182295D01*
X228940Y182270D01*
X228831Y182249D01*
X228722Y182232D01*
X228612Y182218D01*
X228501Y182209D01*
X228391Y182203D01*
X228280Y182201D01*
X225105Y182201D01*
X239329Y182201D02*
X239329Y193631D01*
X236154Y193631D02*
X242504Y193631D01*
X247286Y193631D02*
X247286Y182201D01*
X247286Y193631D02*
X250461Y193631D01*
X250572Y193629D01*
X250682Y193623D01*
X250793Y193614D01*
X250903Y193600D01*
X251012Y193583D01*
X251121Y193562D01*
X251229Y193537D01*
X251336Y193508D01*
X251442Y193476D01*
X251547Y193440D01*
X251650Y193400D01*
X251752Y193357D01*
X251853Y193310D01*
X251952Y193259D01*
X252049Y193206D01*
X252143Y193149D01*
X252236Y193088D01*
X252327Y193025D01*
X252416Y192958D01*
X252502Y192888D01*
X252585Y192815D01*
X252667Y192740D01*
X252745Y192662D01*
X252820Y192580D01*
X252893Y192497D01*
X252963Y192411D01*
X253030Y192322D01*
X253093Y192231D01*
X253154Y192138D01*
X253211Y192043D01*
X253264Y191947D01*
X253315Y191848D01*
X253362Y191747D01*
X253405Y191645D01*
X253445Y191542D01*
X253481Y191437D01*
X253513Y191331D01*
X253542Y191224D01*
X253567Y191116D01*
X253588Y191007D01*
X253605Y190898D01*
X253619Y190788D01*
X253628Y190677D01*
X253634Y190567D01*
X253636Y190456D01*
X253634Y190345D01*
X253628Y190235D01*
X253619Y190124D01*
X253605Y190014D01*
X253588Y189905D01*
X253567Y189796D01*
X253542Y189688D01*
X253513Y189581D01*
X253481Y189475D01*
X253445Y189370D01*
X253405Y189267D01*
X253362Y189165D01*
X253315Y189064D01*
X253264Y188965D01*
X253211Y188868D01*
X253154Y188774D01*
X253093Y188681D01*
X253030Y188590D01*
X252963Y188501D01*
X252893Y188415D01*
X252820Y188332D01*
X252745Y188250D01*
X252667Y188172D01*
X252585Y188097D01*
X252502Y188024D01*
X252416Y187954D01*
X252327Y187887D01*
X252236Y187824D01*
X252143Y187763D01*
X252048Y187706D01*
X251952Y187653D01*
X251853Y187602D01*
X251752Y187555D01*
X251650Y187512D01*
X251547Y187472D01*
X251442Y187436D01*
X251336Y187404D01*
X251229Y187375D01*
X251121Y187350D01*
X251012Y187329D01*
X250903Y187312D01*
X250793Y187298D01*
X250682Y187289D01*
X250572Y187283D01*
X250461Y187281D01*
X247286Y187281D01*
X251096Y187281D02*
X253636Y182201D01*
M02*
