G04 EAGLE Gerber RS-274X export*
G75*
%MOMM*%
%FSLAX34Y34*%
%LPD*%
%INSilkscreen Bottom*%
%IPPOS*%
%AMOC8*
5,1,8,0,0,1.08239X$1,22.5*%
G01*
%ADD10C,0.203200*%
%ADD11C,0.304800*%
%ADD12C,0.127000*%
%ADD13C,0.406400*%
%ADD14C,0.150000*%
%ADD15C,0.250000*%
%ADD16C,0.076200*%
%ADD17C,0.101600*%

G36*
X32261Y202798D02*
X32261Y202798D01*
X32328Y202802D01*
X32362Y202818D01*
X32393Y202824D01*
X32433Y202852D01*
X32491Y202879D01*
X35991Y205379D01*
X36051Y205444D01*
X36115Y205506D01*
X36119Y205517D01*
X36128Y205526D01*
X36158Y205608D01*
X36193Y205690D01*
X36193Y205702D01*
X36197Y205714D01*
X36193Y205802D01*
X36194Y205891D01*
X36189Y205902D01*
X36188Y205914D01*
X36151Y205994D01*
X36117Y206076D01*
X36108Y206085D01*
X36103Y206095D01*
X36062Y206132D01*
X35991Y206205D01*
X32491Y208705D01*
X32430Y208732D01*
X32373Y208767D01*
X32337Y208774D01*
X32308Y208787D01*
X32259Y208788D01*
X32196Y208799D01*
X31696Y208799D01*
X31691Y208798D01*
X31686Y208799D01*
X31593Y208778D01*
X31500Y208760D01*
X31495Y208757D01*
X31490Y208756D01*
X31412Y208700D01*
X31334Y208647D01*
X31331Y208643D01*
X31327Y208640D01*
X31276Y208558D01*
X31224Y208479D01*
X31224Y208474D01*
X31221Y208469D01*
X31189Y208292D01*
X31189Y203292D01*
X31190Y203287D01*
X31189Y203282D01*
X31210Y203189D01*
X31228Y203096D01*
X31231Y203091D01*
X31232Y203086D01*
X31288Y203008D01*
X31341Y202930D01*
X31345Y202927D01*
X31348Y202923D01*
X31430Y202872D01*
X31509Y202820D01*
X31514Y202820D01*
X31519Y202817D01*
X31696Y202785D01*
X32196Y202785D01*
X32261Y202798D01*
G37*
D10*
X172700Y89800D02*
X172700Y134800D01*
X137700Y152300D02*
X97700Y152300D01*
X97700Y143800D01*
X122700Y143800D01*
X122700Y129800D01*
X122700Y94800D02*
X122700Y80800D01*
X97700Y80800D01*
X97700Y72300D01*
X137700Y72300D01*
D11*
X293680Y282900D02*
X293680Y293060D01*
X115240Y288110D02*
X115240Y277950D01*
X293680Y309570D02*
X293680Y319730D01*
X114884Y182552D02*
X114884Y172392D01*
X291140Y163520D02*
X291140Y153360D01*
D10*
X392360Y206972D02*
X422360Y206972D01*
X422360Y261292D01*
X392360Y261292D02*
X392360Y206972D01*
X392360Y261292D02*
X422360Y261292D01*
X411805Y232227D02*
X402915Y232227D01*
X407360Y236037D01*
X411805Y232227D01*
X411805Y236037D02*
X402915Y236037D01*
D11*
X349560Y127452D02*
X349560Y117292D01*
X114884Y193474D02*
X114884Y203634D01*
X114986Y215212D02*
X114986Y225372D01*
X115240Y298270D02*
X115240Y308430D01*
D10*
X321060Y147450D02*
X378060Y147450D01*
X378060Y202450D01*
X321060Y202450D01*
X321060Y147450D01*
D11*
X291140Y205430D02*
X291140Y215590D01*
X291140Y230830D02*
X291140Y240990D01*
X115240Y257630D02*
X115240Y267790D01*
X115138Y247068D02*
X115138Y236908D01*
X291140Y188920D02*
X291140Y178760D01*
X338130Y309570D02*
X338130Y319730D01*
X336860Y293060D02*
X336860Y282900D01*
X349814Y108148D02*
X349814Y97988D01*
D12*
X359750Y260720D02*
X366750Y260720D01*
X366750Y253720D01*
X331750Y260720D02*
X324750Y260720D01*
X324750Y253720D01*
X366750Y225720D02*
X366750Y218720D01*
X359750Y218720D01*
X324750Y218720D02*
X324750Y225720D01*
X324750Y218720D02*
X331750Y218720D01*
D13*
X370750Y257720D02*
X370752Y257809D01*
X370758Y257898D01*
X370768Y257987D01*
X370782Y258075D01*
X370799Y258162D01*
X370821Y258248D01*
X370847Y258334D01*
X370876Y258418D01*
X370909Y258501D01*
X370945Y258582D01*
X370986Y258662D01*
X371029Y258739D01*
X371076Y258815D01*
X371127Y258888D01*
X371180Y258959D01*
X371237Y259028D01*
X371297Y259094D01*
X371360Y259158D01*
X371425Y259218D01*
X371493Y259276D01*
X371564Y259330D01*
X371637Y259381D01*
X371712Y259429D01*
X371789Y259474D01*
X371868Y259515D01*
X371949Y259552D01*
X372031Y259586D01*
X372115Y259617D01*
X372200Y259643D01*
X372286Y259666D01*
X372373Y259684D01*
X372461Y259699D01*
X372550Y259710D01*
X372639Y259717D01*
X372728Y259720D01*
X372817Y259719D01*
X372906Y259714D01*
X372994Y259705D01*
X373083Y259692D01*
X373170Y259675D01*
X373257Y259655D01*
X373343Y259630D01*
X373427Y259602D01*
X373510Y259570D01*
X373592Y259534D01*
X373672Y259495D01*
X373750Y259452D01*
X373826Y259406D01*
X373900Y259356D01*
X373972Y259303D01*
X374041Y259247D01*
X374108Y259188D01*
X374172Y259126D01*
X374233Y259062D01*
X374292Y258994D01*
X374347Y258924D01*
X374399Y258852D01*
X374448Y258777D01*
X374493Y258701D01*
X374535Y258622D01*
X374573Y258542D01*
X374608Y258460D01*
X374639Y258376D01*
X374667Y258291D01*
X374690Y258205D01*
X374710Y258118D01*
X374726Y258031D01*
X374738Y257942D01*
X374746Y257854D01*
X374750Y257765D01*
X374750Y257675D01*
X374746Y257586D01*
X374738Y257498D01*
X374726Y257409D01*
X374710Y257322D01*
X374690Y257235D01*
X374667Y257149D01*
X374639Y257064D01*
X374608Y256980D01*
X374573Y256898D01*
X374535Y256818D01*
X374493Y256739D01*
X374448Y256663D01*
X374399Y256588D01*
X374347Y256516D01*
X374292Y256446D01*
X374233Y256378D01*
X374172Y256314D01*
X374108Y256252D01*
X374041Y256193D01*
X373972Y256137D01*
X373900Y256084D01*
X373826Y256034D01*
X373750Y255988D01*
X373672Y255945D01*
X373592Y255906D01*
X373510Y255870D01*
X373427Y255838D01*
X373343Y255810D01*
X373257Y255785D01*
X373170Y255765D01*
X373083Y255748D01*
X372994Y255735D01*
X372906Y255726D01*
X372817Y255721D01*
X372728Y255720D01*
X372639Y255723D01*
X372550Y255730D01*
X372461Y255741D01*
X372373Y255756D01*
X372286Y255774D01*
X372200Y255797D01*
X372115Y255823D01*
X372031Y255854D01*
X371949Y255888D01*
X371868Y255925D01*
X371789Y255966D01*
X371712Y256011D01*
X371637Y256059D01*
X371564Y256110D01*
X371493Y256164D01*
X371425Y256222D01*
X371360Y256282D01*
X371297Y256346D01*
X371237Y256412D01*
X371180Y256481D01*
X371127Y256552D01*
X371076Y256625D01*
X371029Y256701D01*
X370986Y256778D01*
X370945Y256858D01*
X370909Y256939D01*
X370876Y257022D01*
X370847Y257106D01*
X370821Y257192D01*
X370799Y257278D01*
X370782Y257365D01*
X370768Y257453D01*
X370758Y257542D01*
X370752Y257631D01*
X370750Y257720D01*
D10*
X309300Y96220D02*
X293300Y96220D01*
X293300Y129220D02*
X309300Y129220D01*
X311800Y116720D02*
X311800Y108720D01*
D14*
X229760Y161060D02*
X229760Y323060D01*
X190270Y161560D02*
X184270Y161560D01*
X184270Y184060D01*
X211270Y167060D02*
X221770Y167060D01*
X221770Y161060D01*
X229760Y161060D01*
X229760Y323060D02*
X221770Y323060D01*
X221770Y317060D01*
X211270Y317060D01*
X184270Y322560D02*
X184270Y300060D01*
X184270Y322560D02*
X190270Y322560D01*
D15*
X170020Y294560D02*
X170022Y294630D01*
X170028Y294700D01*
X170038Y294769D01*
X170051Y294838D01*
X170069Y294906D01*
X170090Y294973D01*
X170115Y295038D01*
X170144Y295102D01*
X170176Y295165D01*
X170212Y295225D01*
X170251Y295283D01*
X170293Y295339D01*
X170338Y295393D01*
X170386Y295444D01*
X170437Y295492D01*
X170491Y295537D01*
X170547Y295579D01*
X170605Y295618D01*
X170665Y295654D01*
X170728Y295686D01*
X170792Y295715D01*
X170857Y295740D01*
X170924Y295761D01*
X170992Y295779D01*
X171061Y295792D01*
X171130Y295802D01*
X171200Y295808D01*
X171270Y295810D01*
X171340Y295808D01*
X171410Y295802D01*
X171479Y295792D01*
X171548Y295779D01*
X171616Y295761D01*
X171683Y295740D01*
X171748Y295715D01*
X171812Y295686D01*
X171875Y295654D01*
X171935Y295618D01*
X171993Y295579D01*
X172049Y295537D01*
X172103Y295492D01*
X172154Y295444D01*
X172202Y295393D01*
X172247Y295339D01*
X172289Y295283D01*
X172328Y295225D01*
X172364Y295165D01*
X172396Y295102D01*
X172425Y295038D01*
X172450Y294973D01*
X172471Y294906D01*
X172489Y294838D01*
X172502Y294769D01*
X172512Y294700D01*
X172518Y294630D01*
X172520Y294560D01*
X172518Y294490D01*
X172512Y294420D01*
X172502Y294351D01*
X172489Y294282D01*
X172471Y294214D01*
X172450Y294147D01*
X172425Y294082D01*
X172396Y294018D01*
X172364Y293955D01*
X172328Y293895D01*
X172289Y293837D01*
X172247Y293781D01*
X172202Y293727D01*
X172154Y293676D01*
X172103Y293628D01*
X172049Y293583D01*
X171993Y293541D01*
X171935Y293502D01*
X171875Y293466D01*
X171812Y293434D01*
X171748Y293405D01*
X171683Y293380D01*
X171616Y293359D01*
X171548Y293341D01*
X171479Y293328D01*
X171410Y293318D01*
X171340Y293312D01*
X171270Y293310D01*
X171200Y293312D01*
X171130Y293318D01*
X171061Y293328D01*
X170992Y293341D01*
X170924Y293359D01*
X170857Y293380D01*
X170792Y293405D01*
X170728Y293434D01*
X170665Y293466D01*
X170605Y293502D01*
X170547Y293541D01*
X170491Y293583D01*
X170437Y293628D01*
X170386Y293676D01*
X170338Y293727D01*
X170293Y293781D01*
X170251Y293837D01*
X170212Y293895D01*
X170176Y293955D01*
X170144Y294018D01*
X170115Y294082D01*
X170090Y294147D01*
X170069Y294214D01*
X170051Y294282D01*
X170038Y294351D01*
X170028Y294420D01*
X170022Y294490D01*
X170020Y294560D01*
D16*
X160401Y256614D02*
X160401Y254561D01*
X160403Y254471D01*
X160409Y254382D01*
X160419Y254293D01*
X160432Y254205D01*
X160450Y254117D01*
X160471Y254030D01*
X160496Y253944D01*
X160525Y253859D01*
X160557Y253775D01*
X160593Y253693D01*
X160633Y253613D01*
X160676Y253535D01*
X160723Y253458D01*
X160772Y253383D01*
X160825Y253311D01*
X160881Y253241D01*
X160940Y253174D01*
X161002Y253109D01*
X161067Y253047D01*
X161134Y252988D01*
X161204Y252932D01*
X161276Y252879D01*
X161351Y252830D01*
X161428Y252783D01*
X161506Y252740D01*
X161586Y252700D01*
X161668Y252664D01*
X161752Y252632D01*
X161837Y252603D01*
X161923Y252578D01*
X162010Y252557D01*
X162098Y252539D01*
X162186Y252526D01*
X162275Y252516D01*
X162364Y252510D01*
X162454Y252508D01*
X167586Y252508D01*
X167676Y252510D01*
X167765Y252516D01*
X167854Y252526D01*
X167942Y252539D01*
X168030Y252557D01*
X168117Y252578D01*
X168203Y252603D01*
X168288Y252632D01*
X168372Y252664D01*
X168454Y252700D01*
X168534Y252740D01*
X168612Y252783D01*
X168689Y252830D01*
X168764Y252879D01*
X168836Y252932D01*
X168906Y252988D01*
X168973Y253047D01*
X169038Y253109D01*
X169100Y253174D01*
X169159Y253241D01*
X169215Y253311D01*
X169268Y253383D01*
X169317Y253458D01*
X169364Y253534D01*
X169407Y253613D01*
X169447Y253693D01*
X169483Y253775D01*
X169515Y253859D01*
X169544Y253944D01*
X169569Y254030D01*
X169590Y254117D01*
X169608Y254204D01*
X169621Y254293D01*
X169631Y254382D01*
X169637Y254471D01*
X169639Y254561D01*
X169639Y256614D01*
X169639Y262600D02*
X160401Y259521D01*
X160401Y265679D02*
X169639Y262600D01*
X162711Y264909D02*
X162711Y260290D01*
X160401Y269421D02*
X169639Y269421D01*
X164507Y272500D01*
X169639Y275579D01*
X160401Y275579D01*
X159375Y279447D02*
X159375Y283553D01*
X165533Y287464D02*
X165533Y290030D01*
X165531Y290129D01*
X165525Y290229D01*
X165516Y290328D01*
X165502Y290426D01*
X165485Y290524D01*
X165464Y290622D01*
X165439Y290718D01*
X165410Y290813D01*
X165378Y290908D01*
X165342Y291000D01*
X165303Y291092D01*
X165260Y291182D01*
X165214Y291270D01*
X165164Y291356D01*
X165111Y291440D01*
X165055Y291522D01*
X164995Y291602D01*
X164933Y291679D01*
X164867Y291754D01*
X164799Y291827D01*
X164728Y291896D01*
X164654Y291963D01*
X164578Y292027D01*
X164499Y292088D01*
X164418Y292146D01*
X164335Y292201D01*
X164250Y292252D01*
X164163Y292300D01*
X164074Y292345D01*
X163983Y292386D01*
X163891Y292424D01*
X163798Y292458D01*
X163703Y292488D01*
X163607Y292515D01*
X163510Y292538D01*
X163413Y292557D01*
X163314Y292572D01*
X163215Y292584D01*
X163116Y292592D01*
X163017Y292596D01*
X162917Y292596D01*
X162818Y292592D01*
X162719Y292584D01*
X162620Y292572D01*
X162521Y292557D01*
X162424Y292538D01*
X162327Y292515D01*
X162231Y292488D01*
X162136Y292458D01*
X162043Y292424D01*
X161951Y292386D01*
X161860Y292345D01*
X161771Y292300D01*
X161684Y292252D01*
X161599Y292201D01*
X161516Y292146D01*
X161435Y292088D01*
X161356Y292027D01*
X161280Y291963D01*
X161206Y291896D01*
X161135Y291827D01*
X161067Y291754D01*
X161001Y291679D01*
X160939Y291602D01*
X160879Y291522D01*
X160823Y291440D01*
X160770Y291356D01*
X160720Y291270D01*
X160674Y291182D01*
X160631Y291092D01*
X160592Y291000D01*
X160556Y290908D01*
X160524Y290813D01*
X160495Y290718D01*
X160470Y290622D01*
X160449Y290524D01*
X160432Y290426D01*
X160418Y290328D01*
X160409Y290229D01*
X160403Y290129D01*
X160401Y290030D01*
X160401Y287464D01*
X169639Y287464D01*
X169639Y290030D01*
X169637Y290120D01*
X169631Y290209D01*
X169621Y290298D01*
X169608Y290386D01*
X169590Y290474D01*
X169569Y290561D01*
X169544Y290647D01*
X169515Y290732D01*
X169483Y290816D01*
X169447Y290898D01*
X169407Y290978D01*
X169364Y291057D01*
X169317Y291133D01*
X169268Y291208D01*
X169215Y291280D01*
X169159Y291350D01*
X169100Y291417D01*
X169038Y291482D01*
X168973Y291544D01*
X168906Y291603D01*
X168836Y291659D01*
X168764Y291712D01*
X168689Y291761D01*
X168613Y291808D01*
X168534Y291851D01*
X168454Y291891D01*
X168372Y291927D01*
X168288Y291959D01*
X168203Y291988D01*
X168117Y292013D01*
X168030Y292034D01*
X167942Y292052D01*
X167854Y292065D01*
X167765Y292075D01*
X167676Y292081D01*
X167586Y292083D01*
X167496Y292081D01*
X167407Y292075D01*
X167318Y292065D01*
X167230Y292052D01*
X167142Y292034D01*
X167055Y292013D01*
X166969Y291988D01*
X166884Y291959D01*
X166800Y291927D01*
X166718Y291891D01*
X166638Y291851D01*
X166560Y291808D01*
X166483Y291761D01*
X166408Y291712D01*
X166336Y291659D01*
X166266Y291603D01*
X166199Y291544D01*
X166134Y291482D01*
X166072Y291417D01*
X166013Y291350D01*
X165957Y291280D01*
X165904Y291208D01*
X165855Y291133D01*
X165808Y291057D01*
X165765Y290978D01*
X165725Y290898D01*
X165689Y290816D01*
X165657Y290732D01*
X165628Y290647D01*
X165603Y290561D01*
X165582Y290474D01*
X165564Y290386D01*
X165551Y290298D01*
X165541Y290209D01*
X165535Y290120D01*
X165533Y290030D01*
X167073Y296034D02*
X162967Y296034D01*
X167073Y296034D02*
X167172Y296036D01*
X167272Y296042D01*
X167371Y296051D01*
X167469Y296065D01*
X167567Y296082D01*
X167665Y296103D01*
X167761Y296128D01*
X167856Y296157D01*
X167951Y296189D01*
X168043Y296225D01*
X168135Y296264D01*
X168225Y296307D01*
X168313Y296353D01*
X168399Y296403D01*
X168483Y296456D01*
X168565Y296512D01*
X168645Y296572D01*
X168722Y296634D01*
X168797Y296700D01*
X168870Y296768D01*
X168939Y296839D01*
X169006Y296913D01*
X169070Y296989D01*
X169131Y297068D01*
X169189Y297149D01*
X169244Y297232D01*
X169295Y297317D01*
X169343Y297404D01*
X169388Y297493D01*
X169429Y297584D01*
X169467Y297676D01*
X169501Y297769D01*
X169531Y297864D01*
X169558Y297960D01*
X169581Y298057D01*
X169600Y298154D01*
X169615Y298253D01*
X169627Y298352D01*
X169635Y298451D01*
X169639Y298550D01*
X169639Y298650D01*
X169635Y298749D01*
X169627Y298848D01*
X169615Y298947D01*
X169600Y299046D01*
X169581Y299143D01*
X169558Y299240D01*
X169531Y299336D01*
X169501Y299431D01*
X169467Y299524D01*
X169429Y299616D01*
X169388Y299707D01*
X169343Y299796D01*
X169295Y299883D01*
X169244Y299968D01*
X169189Y300051D01*
X169131Y300132D01*
X169070Y300211D01*
X169006Y300287D01*
X168939Y300361D01*
X168870Y300432D01*
X168797Y300500D01*
X168722Y300566D01*
X168645Y300628D01*
X168565Y300688D01*
X168483Y300744D01*
X168399Y300797D01*
X168313Y300847D01*
X168225Y300893D01*
X168135Y300936D01*
X168043Y300975D01*
X167951Y301011D01*
X167856Y301043D01*
X167761Y301072D01*
X167665Y301097D01*
X167567Y301118D01*
X167469Y301135D01*
X167371Y301149D01*
X167272Y301158D01*
X167172Y301164D01*
X167073Y301166D01*
X162967Y301166D01*
X162868Y301164D01*
X162768Y301158D01*
X162669Y301149D01*
X162571Y301135D01*
X162473Y301118D01*
X162375Y301097D01*
X162279Y301072D01*
X162184Y301043D01*
X162089Y301011D01*
X161997Y300975D01*
X161905Y300936D01*
X161815Y300893D01*
X161727Y300847D01*
X161641Y300797D01*
X161557Y300744D01*
X161475Y300688D01*
X161395Y300628D01*
X161318Y300566D01*
X161243Y300500D01*
X161170Y300432D01*
X161101Y300361D01*
X161034Y300287D01*
X160970Y300211D01*
X160909Y300132D01*
X160851Y300051D01*
X160796Y299968D01*
X160745Y299883D01*
X160697Y299796D01*
X160652Y299707D01*
X160611Y299616D01*
X160573Y299524D01*
X160539Y299431D01*
X160509Y299336D01*
X160482Y299240D01*
X160459Y299143D01*
X160440Y299046D01*
X160425Y298947D01*
X160413Y298848D01*
X160405Y298749D01*
X160401Y298650D01*
X160401Y298550D01*
X160405Y298451D01*
X160413Y298352D01*
X160425Y298253D01*
X160440Y298154D01*
X160459Y298057D01*
X160482Y297960D01*
X160509Y297864D01*
X160539Y297769D01*
X160573Y297676D01*
X160611Y297584D01*
X160652Y297493D01*
X160697Y297404D01*
X160745Y297317D01*
X160796Y297232D01*
X160851Y297149D01*
X160909Y297068D01*
X160970Y296989D01*
X161034Y296913D01*
X161101Y296839D01*
X161170Y296768D01*
X161243Y296700D01*
X161318Y296634D01*
X161395Y296572D01*
X161475Y296512D01*
X161557Y296456D01*
X161641Y296403D01*
X161727Y296353D01*
X161815Y296307D01*
X161905Y296264D01*
X161997Y296225D01*
X162089Y296189D01*
X162184Y296157D01*
X162279Y296128D01*
X162375Y296103D01*
X162473Y296082D01*
X162571Y296065D01*
X162669Y296051D01*
X162768Y296042D01*
X162868Y296036D01*
X162967Y296034D01*
X160401Y307000D02*
X169639Y307000D01*
X169639Y304434D02*
X169639Y309566D01*
X169639Y314800D02*
X160401Y314800D01*
X169639Y312234D02*
X169639Y317366D01*
X167073Y320634D02*
X162967Y320634D01*
X167073Y320634D02*
X167172Y320636D01*
X167272Y320642D01*
X167371Y320651D01*
X167469Y320665D01*
X167567Y320682D01*
X167665Y320703D01*
X167761Y320728D01*
X167856Y320757D01*
X167951Y320789D01*
X168043Y320825D01*
X168135Y320864D01*
X168225Y320907D01*
X168313Y320953D01*
X168399Y321003D01*
X168483Y321056D01*
X168565Y321112D01*
X168645Y321172D01*
X168722Y321234D01*
X168797Y321300D01*
X168870Y321368D01*
X168939Y321439D01*
X169006Y321513D01*
X169070Y321589D01*
X169131Y321668D01*
X169189Y321749D01*
X169244Y321832D01*
X169295Y321917D01*
X169343Y322004D01*
X169388Y322093D01*
X169429Y322184D01*
X169467Y322276D01*
X169501Y322369D01*
X169531Y322464D01*
X169558Y322560D01*
X169581Y322657D01*
X169600Y322754D01*
X169615Y322853D01*
X169627Y322952D01*
X169635Y323051D01*
X169639Y323150D01*
X169639Y323250D01*
X169635Y323349D01*
X169627Y323448D01*
X169615Y323547D01*
X169600Y323646D01*
X169581Y323743D01*
X169558Y323840D01*
X169531Y323936D01*
X169501Y324031D01*
X169467Y324124D01*
X169429Y324216D01*
X169388Y324307D01*
X169343Y324396D01*
X169295Y324483D01*
X169244Y324568D01*
X169189Y324651D01*
X169131Y324732D01*
X169070Y324811D01*
X169006Y324887D01*
X168939Y324961D01*
X168870Y325032D01*
X168797Y325100D01*
X168722Y325166D01*
X168645Y325228D01*
X168565Y325288D01*
X168483Y325344D01*
X168399Y325397D01*
X168313Y325447D01*
X168225Y325493D01*
X168135Y325536D01*
X168043Y325575D01*
X167951Y325611D01*
X167856Y325643D01*
X167761Y325672D01*
X167665Y325697D01*
X167567Y325718D01*
X167469Y325735D01*
X167371Y325749D01*
X167272Y325758D01*
X167172Y325764D01*
X167073Y325766D01*
X162967Y325766D01*
X162868Y325764D01*
X162768Y325758D01*
X162669Y325749D01*
X162571Y325735D01*
X162473Y325718D01*
X162375Y325697D01*
X162279Y325672D01*
X162184Y325643D01*
X162089Y325611D01*
X161997Y325575D01*
X161905Y325536D01*
X161815Y325493D01*
X161727Y325447D01*
X161641Y325397D01*
X161557Y325344D01*
X161475Y325288D01*
X161395Y325228D01*
X161318Y325166D01*
X161243Y325100D01*
X161170Y325032D01*
X161101Y324961D01*
X161034Y324887D01*
X160970Y324811D01*
X160909Y324732D01*
X160851Y324651D01*
X160796Y324568D01*
X160745Y324483D01*
X160697Y324396D01*
X160652Y324307D01*
X160611Y324216D01*
X160573Y324124D01*
X160539Y324031D01*
X160509Y323936D01*
X160482Y323840D01*
X160459Y323743D01*
X160440Y323646D01*
X160425Y323547D01*
X160413Y323448D01*
X160405Y323349D01*
X160401Y323250D01*
X160401Y323150D01*
X160405Y323051D01*
X160413Y322952D01*
X160425Y322853D01*
X160440Y322754D01*
X160459Y322657D01*
X160482Y322560D01*
X160509Y322464D01*
X160539Y322369D01*
X160573Y322276D01*
X160611Y322184D01*
X160652Y322093D01*
X160697Y322004D01*
X160745Y321917D01*
X160796Y321832D01*
X160851Y321749D01*
X160909Y321668D01*
X160970Y321589D01*
X161034Y321513D01*
X161101Y321439D01*
X161170Y321368D01*
X161243Y321300D01*
X161318Y321234D01*
X161395Y321172D01*
X161475Y321112D01*
X161557Y321056D01*
X161641Y321003D01*
X161727Y320953D01*
X161815Y320907D01*
X161905Y320864D01*
X161997Y320825D01*
X162089Y320789D01*
X162184Y320757D01*
X162279Y320728D01*
X162375Y320703D01*
X162473Y320682D01*
X162571Y320665D01*
X162669Y320651D01*
X162768Y320642D01*
X162868Y320636D01*
X162967Y320634D01*
X160401Y330020D02*
X169639Y330020D01*
X164507Y333100D01*
X169639Y336179D01*
X160401Y336179D01*
D10*
X193830Y22850D02*
X206530Y22850D01*
D12*
X232725Y152255D02*
X232625Y152257D01*
X232526Y152263D01*
X232426Y152273D01*
X232328Y152286D01*
X232229Y152304D01*
X232132Y152325D01*
X232036Y152350D01*
X231940Y152379D01*
X231846Y152412D01*
X231753Y152448D01*
X231662Y152488D01*
X231572Y152532D01*
X231484Y152579D01*
X231398Y152629D01*
X231314Y152683D01*
X231232Y152740D01*
X231153Y152800D01*
X231075Y152864D01*
X231001Y152930D01*
X230929Y152999D01*
X230860Y153071D01*
X230794Y153145D01*
X230730Y153223D01*
X230670Y153302D01*
X230613Y153384D01*
X230559Y153468D01*
X230509Y153554D01*
X230462Y153642D01*
X230418Y153732D01*
X230378Y153823D01*
X230342Y153916D01*
X230309Y154010D01*
X230280Y154106D01*
X230255Y154202D01*
X230234Y154299D01*
X230216Y154398D01*
X230203Y154496D01*
X230193Y154596D01*
X230187Y154695D01*
X230185Y154795D01*
X232725Y152255D02*
X232866Y152257D01*
X233007Y152262D01*
X233148Y152272D01*
X233289Y152285D01*
X233429Y152301D01*
X233569Y152322D01*
X233708Y152346D01*
X233847Y152374D01*
X233984Y152405D01*
X234121Y152440D01*
X234257Y152478D01*
X234392Y152520D01*
X234525Y152566D01*
X234658Y152615D01*
X234789Y152668D01*
X234918Y152724D01*
X235047Y152783D01*
X235173Y152846D01*
X235298Y152912D01*
X235421Y152981D01*
X235542Y153054D01*
X235661Y153130D01*
X235779Y153209D01*
X235894Y153290D01*
X236006Y153375D01*
X236117Y153463D01*
X236225Y153554D01*
X236331Y153647D01*
X236434Y153744D01*
X236535Y153843D01*
X236218Y161145D02*
X236216Y161245D01*
X236210Y161344D01*
X236200Y161444D01*
X236187Y161542D01*
X236169Y161641D01*
X236148Y161738D01*
X236123Y161834D01*
X236094Y161930D01*
X236061Y162024D01*
X236025Y162117D01*
X235985Y162208D01*
X235941Y162298D01*
X235894Y162386D01*
X235844Y162472D01*
X235790Y162556D01*
X235733Y162638D01*
X235673Y162717D01*
X235609Y162795D01*
X235543Y162869D01*
X235474Y162941D01*
X235402Y163010D01*
X235328Y163076D01*
X235250Y163140D01*
X235171Y163200D01*
X235089Y163257D01*
X235005Y163311D01*
X234919Y163361D01*
X234831Y163408D01*
X234741Y163452D01*
X234650Y163492D01*
X234557Y163528D01*
X234463Y163561D01*
X234367Y163590D01*
X234271Y163615D01*
X234174Y163636D01*
X234075Y163654D01*
X233977Y163667D01*
X233877Y163677D01*
X233778Y163683D01*
X233678Y163685D01*
X233678Y163686D02*
X233545Y163684D01*
X233412Y163679D01*
X233279Y163669D01*
X233146Y163656D01*
X233014Y163639D01*
X232882Y163619D01*
X232751Y163595D01*
X232621Y163567D01*
X232491Y163536D01*
X232363Y163501D01*
X232235Y163462D01*
X232109Y163420D01*
X231984Y163374D01*
X231860Y163325D01*
X231737Y163273D01*
X231616Y163217D01*
X231497Y163157D01*
X231379Y163095D01*
X231264Y163029D01*
X231150Y162960D01*
X231038Y162887D01*
X230928Y162812D01*
X230820Y162733D01*
X234948Y158922D02*
X235032Y158974D01*
X235115Y159029D01*
X235195Y159088D01*
X235273Y159149D01*
X235348Y159213D01*
X235421Y159281D01*
X235492Y159351D01*
X235559Y159423D01*
X235624Y159498D01*
X235686Y159576D01*
X235745Y159656D01*
X235801Y159738D01*
X235853Y159822D01*
X235902Y159908D01*
X235948Y159996D01*
X235991Y160086D01*
X236030Y160177D01*
X236065Y160270D01*
X236097Y160364D01*
X236125Y160459D01*
X236150Y160555D01*
X236170Y160652D01*
X236188Y160750D01*
X236201Y160848D01*
X236210Y160947D01*
X236216Y161046D01*
X236218Y161145D01*
X231455Y157018D02*
X231371Y156966D01*
X231288Y156911D01*
X231208Y156852D01*
X231130Y156791D01*
X231055Y156727D01*
X230982Y156659D01*
X230911Y156589D01*
X230844Y156517D01*
X230779Y156442D01*
X230717Y156364D01*
X230658Y156284D01*
X230602Y156202D01*
X230550Y156118D01*
X230501Y156032D01*
X230455Y155944D01*
X230412Y155854D01*
X230373Y155763D01*
X230338Y155670D01*
X230306Y155576D01*
X230278Y155481D01*
X230253Y155385D01*
X230233Y155288D01*
X230215Y155190D01*
X230202Y155092D01*
X230193Y154993D01*
X230187Y154894D01*
X230185Y154795D01*
X231455Y157018D02*
X234948Y158923D01*
X225105Y163685D02*
X225105Y152255D01*
X225105Y158605D02*
X218755Y158605D01*
X218755Y163685D02*
X218755Y152255D01*
X212913Y155430D02*
X212913Y163685D01*
X212913Y155430D02*
X212911Y155319D01*
X212905Y155209D01*
X212896Y155098D01*
X212882Y154988D01*
X212865Y154879D01*
X212844Y154770D01*
X212819Y154662D01*
X212790Y154555D01*
X212758Y154449D01*
X212722Y154344D01*
X212682Y154241D01*
X212639Y154139D01*
X212592Y154038D01*
X212541Y153939D01*
X212488Y153842D01*
X212431Y153748D01*
X212370Y153655D01*
X212307Y153564D01*
X212240Y153475D01*
X212170Y153389D01*
X212097Y153306D01*
X212022Y153224D01*
X211944Y153146D01*
X211862Y153071D01*
X211779Y152998D01*
X211693Y152928D01*
X211604Y152861D01*
X211513Y152798D01*
X211420Y152737D01*
X211325Y152680D01*
X211229Y152627D01*
X211130Y152576D01*
X211029Y152529D01*
X210927Y152486D01*
X210824Y152446D01*
X210719Y152410D01*
X210613Y152378D01*
X210506Y152349D01*
X210398Y152324D01*
X210289Y152303D01*
X210180Y152286D01*
X210070Y152272D01*
X209959Y152263D01*
X209849Y152257D01*
X209738Y152255D01*
X209627Y152257D01*
X209517Y152263D01*
X209406Y152272D01*
X209296Y152286D01*
X209187Y152303D01*
X209078Y152324D01*
X208970Y152349D01*
X208863Y152378D01*
X208757Y152410D01*
X208652Y152446D01*
X208549Y152486D01*
X208447Y152529D01*
X208346Y152576D01*
X208247Y152627D01*
X208151Y152680D01*
X208056Y152737D01*
X207963Y152798D01*
X207872Y152861D01*
X207783Y152928D01*
X207697Y152998D01*
X207614Y153071D01*
X207532Y153146D01*
X207454Y153224D01*
X207379Y153306D01*
X207306Y153389D01*
X207236Y153475D01*
X207169Y153564D01*
X207106Y153655D01*
X207045Y153748D01*
X206988Y153843D01*
X206935Y153939D01*
X206884Y154038D01*
X206837Y154139D01*
X206794Y154241D01*
X206754Y154344D01*
X206718Y154449D01*
X206686Y154555D01*
X206657Y154662D01*
X206632Y154770D01*
X206611Y154879D01*
X206594Y154988D01*
X206580Y155098D01*
X206571Y155209D01*
X206565Y155319D01*
X206563Y155430D01*
X206563Y163685D01*
X198689Y163685D02*
X198689Y152255D01*
X201864Y163685D02*
X195514Y163685D01*
X188783Y163685D02*
X188783Y152255D01*
X191958Y163685D02*
X185608Y163685D01*
X180884Y152255D02*
X175804Y152255D01*
X180884Y152255D02*
X180884Y163685D01*
X175804Y163685D01*
X177074Y158605D02*
X180884Y158605D01*
X170920Y163685D02*
X170920Y152255D01*
X170920Y163685D02*
X167745Y163685D01*
X167634Y163683D01*
X167524Y163677D01*
X167413Y163668D01*
X167303Y163654D01*
X167194Y163637D01*
X167085Y163616D01*
X166977Y163591D01*
X166870Y163562D01*
X166764Y163530D01*
X166659Y163494D01*
X166556Y163454D01*
X166454Y163411D01*
X166353Y163364D01*
X166254Y163313D01*
X166158Y163260D01*
X166063Y163203D01*
X165970Y163142D01*
X165879Y163079D01*
X165790Y163012D01*
X165704Y162942D01*
X165621Y162869D01*
X165539Y162794D01*
X165461Y162716D01*
X165386Y162634D01*
X165313Y162551D01*
X165243Y162465D01*
X165176Y162376D01*
X165113Y162285D01*
X165052Y162192D01*
X164995Y162098D01*
X164942Y162001D01*
X164891Y161902D01*
X164844Y161801D01*
X164801Y161699D01*
X164761Y161596D01*
X164725Y161491D01*
X164693Y161385D01*
X164664Y161278D01*
X164639Y161170D01*
X164618Y161061D01*
X164601Y160952D01*
X164587Y160842D01*
X164578Y160731D01*
X164572Y160621D01*
X164570Y160510D01*
X164572Y160399D01*
X164578Y160289D01*
X164587Y160178D01*
X164601Y160068D01*
X164618Y159959D01*
X164639Y159850D01*
X164664Y159742D01*
X164693Y159635D01*
X164725Y159529D01*
X164761Y159424D01*
X164801Y159321D01*
X164844Y159219D01*
X164891Y159118D01*
X164942Y159019D01*
X164995Y158923D01*
X165052Y158828D01*
X165113Y158735D01*
X165176Y158644D01*
X165243Y158555D01*
X165313Y158469D01*
X165386Y158386D01*
X165461Y158304D01*
X165539Y158226D01*
X165621Y158151D01*
X165704Y158078D01*
X165790Y158008D01*
X165879Y157941D01*
X165970Y157878D01*
X166063Y157817D01*
X166158Y157760D01*
X166254Y157707D01*
X166353Y157656D01*
X166454Y157609D01*
X166556Y157566D01*
X166659Y157526D01*
X166764Y157490D01*
X166870Y157458D01*
X166977Y157429D01*
X167085Y157404D01*
X167194Y157383D01*
X167303Y157366D01*
X167413Y157352D01*
X167524Y157343D01*
X167634Y157337D01*
X167745Y157335D01*
X170920Y157335D01*
X167110Y157335D02*
X164570Y152255D01*
X261935Y155468D02*
X261935Y160548D01*
X261933Y160659D01*
X261927Y160769D01*
X261918Y160880D01*
X261904Y160990D01*
X261887Y161099D01*
X261866Y161208D01*
X261841Y161316D01*
X261812Y161423D01*
X261780Y161529D01*
X261744Y161634D01*
X261704Y161737D01*
X261661Y161839D01*
X261614Y161940D01*
X261563Y162039D01*
X261510Y162136D01*
X261453Y162230D01*
X261392Y162323D01*
X261329Y162414D01*
X261262Y162503D01*
X261192Y162589D01*
X261119Y162672D01*
X261044Y162754D01*
X260966Y162832D01*
X260884Y162907D01*
X260801Y162980D01*
X260715Y163050D01*
X260626Y163117D01*
X260535Y163180D01*
X260442Y163241D01*
X260348Y163298D01*
X260251Y163351D01*
X260152Y163402D01*
X260051Y163449D01*
X259949Y163492D01*
X259846Y163532D01*
X259741Y163568D01*
X259635Y163600D01*
X259528Y163629D01*
X259420Y163654D01*
X259311Y163675D01*
X259202Y163692D01*
X259092Y163706D01*
X258981Y163715D01*
X258871Y163721D01*
X258760Y163723D01*
X258649Y163721D01*
X258539Y163715D01*
X258428Y163706D01*
X258318Y163692D01*
X258209Y163675D01*
X258100Y163654D01*
X257992Y163629D01*
X257885Y163600D01*
X257779Y163568D01*
X257674Y163532D01*
X257571Y163492D01*
X257469Y163449D01*
X257368Y163402D01*
X257269Y163351D01*
X257173Y163298D01*
X257078Y163241D01*
X256985Y163180D01*
X256894Y163117D01*
X256805Y163050D01*
X256719Y162980D01*
X256636Y162907D01*
X256554Y162832D01*
X256476Y162754D01*
X256401Y162672D01*
X256328Y162589D01*
X256258Y162503D01*
X256191Y162414D01*
X256128Y162323D01*
X256067Y162230D01*
X256010Y162136D01*
X255957Y162039D01*
X255906Y161940D01*
X255859Y161839D01*
X255816Y161737D01*
X255776Y161634D01*
X255740Y161529D01*
X255708Y161423D01*
X255679Y161316D01*
X255654Y161208D01*
X255633Y161099D01*
X255616Y160990D01*
X255602Y160880D01*
X255593Y160769D01*
X255587Y160659D01*
X255585Y160548D01*
X255585Y155468D01*
X255587Y155357D01*
X255593Y155247D01*
X255602Y155136D01*
X255616Y155026D01*
X255633Y154917D01*
X255654Y154808D01*
X255679Y154700D01*
X255708Y154593D01*
X255740Y154487D01*
X255776Y154382D01*
X255816Y154279D01*
X255859Y154177D01*
X255906Y154076D01*
X255957Y153977D01*
X256010Y153881D01*
X256067Y153786D01*
X256128Y153693D01*
X256191Y153602D01*
X256258Y153513D01*
X256328Y153427D01*
X256401Y153344D01*
X256476Y153262D01*
X256554Y153184D01*
X256636Y153109D01*
X256719Y153036D01*
X256805Y152966D01*
X256894Y152899D01*
X256985Y152836D01*
X257078Y152775D01*
X257173Y152718D01*
X257269Y152665D01*
X257368Y152614D01*
X257469Y152567D01*
X257571Y152524D01*
X257674Y152484D01*
X257779Y152448D01*
X257885Y152416D01*
X257992Y152387D01*
X258100Y152362D01*
X258209Y152341D01*
X258318Y152324D01*
X258428Y152310D01*
X258539Y152301D01*
X258649Y152295D01*
X258760Y152293D01*
X258871Y152295D01*
X258981Y152301D01*
X259092Y152310D01*
X259202Y152324D01*
X259311Y152341D01*
X259420Y152362D01*
X259528Y152387D01*
X259635Y152416D01*
X259741Y152448D01*
X259846Y152484D01*
X259949Y152524D01*
X260051Y152567D01*
X260152Y152614D01*
X260251Y152665D01*
X260347Y152718D01*
X260442Y152775D01*
X260535Y152836D01*
X260626Y152899D01*
X260715Y152966D01*
X260801Y153036D01*
X260884Y153109D01*
X260966Y153184D01*
X261044Y153262D01*
X261119Y153344D01*
X261192Y153427D01*
X261262Y153513D01*
X261329Y153602D01*
X261392Y153693D01*
X261453Y153786D01*
X261510Y153880D01*
X261563Y153977D01*
X261614Y154076D01*
X261661Y154177D01*
X261704Y154279D01*
X261744Y154382D01*
X261780Y154487D01*
X261812Y154593D01*
X261841Y154700D01*
X261866Y154808D01*
X261887Y154917D01*
X261904Y155026D01*
X261918Y155136D01*
X261927Y155247D01*
X261933Y155357D01*
X261935Y155468D01*
X250124Y152293D02*
X250124Y163723D01*
X243774Y152293D01*
X243774Y163723D01*
X233741Y164993D02*
X238821Y151023D01*
X229169Y155468D02*
X229169Y160548D01*
X229167Y160659D01*
X229161Y160769D01*
X229152Y160880D01*
X229138Y160990D01*
X229121Y161099D01*
X229100Y161208D01*
X229075Y161316D01*
X229046Y161423D01*
X229014Y161529D01*
X228978Y161634D01*
X228938Y161737D01*
X228895Y161839D01*
X228848Y161940D01*
X228797Y162039D01*
X228744Y162136D01*
X228687Y162230D01*
X228626Y162323D01*
X228563Y162414D01*
X228496Y162503D01*
X228426Y162589D01*
X228353Y162672D01*
X228278Y162754D01*
X228200Y162832D01*
X228118Y162907D01*
X228035Y162980D01*
X227949Y163050D01*
X227860Y163117D01*
X227769Y163180D01*
X227676Y163241D01*
X227582Y163298D01*
X227485Y163351D01*
X227386Y163402D01*
X227285Y163449D01*
X227183Y163492D01*
X227080Y163532D01*
X226975Y163568D01*
X226869Y163600D01*
X226762Y163629D01*
X226654Y163654D01*
X226545Y163675D01*
X226436Y163692D01*
X226326Y163706D01*
X226215Y163715D01*
X226105Y163721D01*
X225994Y163723D01*
X225883Y163721D01*
X225773Y163715D01*
X225662Y163706D01*
X225552Y163692D01*
X225443Y163675D01*
X225334Y163654D01*
X225226Y163629D01*
X225119Y163600D01*
X225013Y163568D01*
X224908Y163532D01*
X224805Y163492D01*
X224703Y163449D01*
X224602Y163402D01*
X224503Y163351D01*
X224407Y163298D01*
X224312Y163241D01*
X224219Y163180D01*
X224128Y163117D01*
X224039Y163050D01*
X223953Y162980D01*
X223870Y162907D01*
X223788Y162832D01*
X223710Y162754D01*
X223635Y162672D01*
X223562Y162589D01*
X223492Y162503D01*
X223425Y162414D01*
X223362Y162323D01*
X223301Y162230D01*
X223244Y162136D01*
X223191Y162039D01*
X223140Y161940D01*
X223093Y161839D01*
X223050Y161737D01*
X223010Y161634D01*
X222974Y161529D01*
X222942Y161423D01*
X222913Y161316D01*
X222888Y161208D01*
X222867Y161099D01*
X222850Y160990D01*
X222836Y160880D01*
X222827Y160769D01*
X222821Y160659D01*
X222819Y160548D01*
X222819Y155468D01*
X222821Y155357D01*
X222827Y155247D01*
X222836Y155136D01*
X222850Y155026D01*
X222867Y154917D01*
X222888Y154808D01*
X222913Y154700D01*
X222942Y154593D01*
X222974Y154487D01*
X223010Y154382D01*
X223050Y154279D01*
X223093Y154177D01*
X223140Y154076D01*
X223191Y153977D01*
X223244Y153881D01*
X223301Y153786D01*
X223362Y153693D01*
X223425Y153602D01*
X223492Y153513D01*
X223562Y153427D01*
X223635Y153344D01*
X223710Y153262D01*
X223788Y153184D01*
X223870Y153109D01*
X223953Y153036D01*
X224039Y152966D01*
X224128Y152899D01*
X224219Y152836D01*
X224312Y152775D01*
X224407Y152718D01*
X224503Y152665D01*
X224602Y152614D01*
X224703Y152567D01*
X224805Y152524D01*
X224908Y152484D01*
X225013Y152448D01*
X225119Y152416D01*
X225226Y152387D01*
X225334Y152362D01*
X225443Y152341D01*
X225552Y152324D01*
X225662Y152310D01*
X225773Y152301D01*
X225883Y152295D01*
X225994Y152293D01*
X226105Y152295D01*
X226215Y152301D01*
X226326Y152310D01*
X226436Y152324D01*
X226545Y152341D01*
X226654Y152362D01*
X226762Y152387D01*
X226869Y152416D01*
X226975Y152448D01*
X227080Y152484D01*
X227183Y152524D01*
X227285Y152567D01*
X227386Y152614D01*
X227485Y152665D01*
X227581Y152718D01*
X227676Y152775D01*
X227769Y152836D01*
X227860Y152899D01*
X227949Y152966D01*
X228035Y153036D01*
X228118Y153109D01*
X228200Y153184D01*
X228278Y153262D01*
X228353Y153344D01*
X228426Y153427D01*
X228496Y153513D01*
X228563Y153602D01*
X228626Y153693D01*
X228687Y153786D01*
X228744Y153880D01*
X228797Y153977D01*
X228848Y154076D01*
X228895Y154177D01*
X228938Y154279D01*
X228978Y154382D01*
X229014Y154487D01*
X229046Y154593D01*
X229075Y154700D01*
X229100Y154808D01*
X229121Y154917D01*
X229138Y155026D01*
X229152Y155136D01*
X229161Y155247D01*
X229167Y155357D01*
X229169Y155468D01*
X217333Y152293D02*
X217333Y163723D01*
X212253Y163723D01*
X212253Y158643D02*
X217333Y158643D01*
X207427Y163723D02*
X207427Y152293D01*
X207427Y163723D02*
X202347Y163723D01*
X202347Y158643D02*
X207427Y158643D01*
X229931Y129979D02*
X231836Y129979D01*
X229931Y129979D02*
X229931Y123629D01*
X233741Y123629D01*
X233841Y123631D01*
X233940Y123637D01*
X234040Y123647D01*
X234138Y123660D01*
X234237Y123678D01*
X234334Y123699D01*
X234430Y123724D01*
X234526Y123753D01*
X234620Y123786D01*
X234713Y123822D01*
X234804Y123862D01*
X234894Y123906D01*
X234982Y123953D01*
X235068Y124003D01*
X235152Y124057D01*
X235234Y124114D01*
X235313Y124174D01*
X235391Y124238D01*
X235465Y124304D01*
X235537Y124373D01*
X235606Y124445D01*
X235672Y124519D01*
X235736Y124597D01*
X235796Y124676D01*
X235853Y124758D01*
X235907Y124842D01*
X235957Y124928D01*
X236004Y125016D01*
X236048Y125106D01*
X236088Y125197D01*
X236124Y125290D01*
X236157Y125384D01*
X236186Y125480D01*
X236211Y125576D01*
X236232Y125673D01*
X236250Y125772D01*
X236263Y125870D01*
X236273Y125970D01*
X236279Y126069D01*
X236281Y126169D01*
X236281Y132519D01*
X236279Y132619D01*
X236273Y132718D01*
X236263Y132818D01*
X236250Y132916D01*
X236232Y133015D01*
X236211Y133112D01*
X236186Y133208D01*
X236157Y133304D01*
X236124Y133398D01*
X236088Y133491D01*
X236048Y133582D01*
X236004Y133672D01*
X235957Y133760D01*
X235907Y133846D01*
X235853Y133930D01*
X235796Y134012D01*
X235736Y134091D01*
X235672Y134169D01*
X235606Y134243D01*
X235537Y134315D01*
X235465Y134384D01*
X235391Y134450D01*
X235313Y134514D01*
X235234Y134574D01*
X235152Y134631D01*
X235068Y134685D01*
X234982Y134735D01*
X234894Y134782D01*
X234804Y134826D01*
X234713Y134866D01*
X234620Y134902D01*
X234526Y134935D01*
X234430Y134964D01*
X234334Y134989D01*
X234237Y135010D01*
X234138Y135028D01*
X234040Y135041D01*
X233940Y135051D01*
X233841Y135057D01*
X233741Y135059D01*
X229931Y135059D01*
X224006Y135059D02*
X224006Y123629D01*
X224006Y135059D02*
X220831Y135059D01*
X220720Y135057D01*
X220610Y135051D01*
X220499Y135042D01*
X220389Y135028D01*
X220280Y135011D01*
X220171Y134990D01*
X220063Y134965D01*
X219956Y134936D01*
X219850Y134904D01*
X219745Y134868D01*
X219642Y134828D01*
X219540Y134785D01*
X219439Y134738D01*
X219340Y134687D01*
X219244Y134634D01*
X219149Y134577D01*
X219056Y134516D01*
X218965Y134453D01*
X218876Y134386D01*
X218790Y134316D01*
X218707Y134243D01*
X218625Y134168D01*
X218547Y134090D01*
X218472Y134008D01*
X218399Y133925D01*
X218329Y133839D01*
X218262Y133750D01*
X218199Y133659D01*
X218138Y133566D01*
X218081Y133472D01*
X218028Y133375D01*
X217977Y133276D01*
X217930Y133175D01*
X217887Y133073D01*
X217847Y132970D01*
X217811Y132865D01*
X217779Y132759D01*
X217750Y132652D01*
X217725Y132544D01*
X217704Y132435D01*
X217687Y132326D01*
X217673Y132216D01*
X217664Y132105D01*
X217658Y131995D01*
X217656Y131884D01*
X217658Y131773D01*
X217664Y131663D01*
X217673Y131552D01*
X217687Y131442D01*
X217704Y131333D01*
X217725Y131224D01*
X217750Y131116D01*
X217779Y131009D01*
X217811Y130903D01*
X217847Y130798D01*
X217887Y130695D01*
X217930Y130593D01*
X217977Y130492D01*
X218028Y130393D01*
X218081Y130296D01*
X218138Y130202D01*
X218199Y130109D01*
X218262Y130018D01*
X218329Y129929D01*
X218399Y129843D01*
X218472Y129760D01*
X218547Y129678D01*
X218625Y129600D01*
X218707Y129525D01*
X218790Y129452D01*
X218876Y129382D01*
X218965Y129315D01*
X219056Y129252D01*
X219149Y129191D01*
X219244Y129134D01*
X219340Y129081D01*
X219439Y129030D01*
X219540Y128983D01*
X219642Y128940D01*
X219745Y128900D01*
X219850Y128864D01*
X219956Y128832D01*
X220063Y128803D01*
X220171Y128778D01*
X220280Y128757D01*
X220389Y128740D01*
X220499Y128726D01*
X220610Y128717D01*
X220720Y128711D01*
X220831Y128709D01*
X224006Y128709D01*
X220196Y128709D02*
X217656Y123629D01*
X212659Y126804D02*
X212659Y131884D01*
X212657Y131995D01*
X212651Y132105D01*
X212642Y132216D01*
X212628Y132326D01*
X212611Y132435D01*
X212590Y132544D01*
X212565Y132652D01*
X212536Y132759D01*
X212504Y132865D01*
X212468Y132970D01*
X212428Y133073D01*
X212385Y133175D01*
X212338Y133276D01*
X212287Y133375D01*
X212234Y133472D01*
X212177Y133566D01*
X212116Y133659D01*
X212053Y133750D01*
X211986Y133839D01*
X211916Y133925D01*
X211843Y134008D01*
X211768Y134090D01*
X211690Y134168D01*
X211608Y134243D01*
X211525Y134316D01*
X211439Y134386D01*
X211350Y134453D01*
X211259Y134516D01*
X211166Y134577D01*
X211072Y134634D01*
X210975Y134687D01*
X210876Y134738D01*
X210775Y134785D01*
X210673Y134828D01*
X210570Y134868D01*
X210465Y134904D01*
X210359Y134936D01*
X210252Y134965D01*
X210144Y134990D01*
X210035Y135011D01*
X209926Y135028D01*
X209816Y135042D01*
X209705Y135051D01*
X209595Y135057D01*
X209484Y135059D01*
X209373Y135057D01*
X209263Y135051D01*
X209152Y135042D01*
X209042Y135028D01*
X208933Y135011D01*
X208824Y134990D01*
X208716Y134965D01*
X208609Y134936D01*
X208503Y134904D01*
X208398Y134868D01*
X208295Y134828D01*
X208193Y134785D01*
X208092Y134738D01*
X207993Y134687D01*
X207897Y134634D01*
X207802Y134577D01*
X207709Y134516D01*
X207618Y134453D01*
X207529Y134386D01*
X207443Y134316D01*
X207360Y134243D01*
X207278Y134168D01*
X207200Y134090D01*
X207125Y134008D01*
X207052Y133925D01*
X206982Y133839D01*
X206915Y133750D01*
X206852Y133659D01*
X206791Y133566D01*
X206734Y133472D01*
X206681Y133375D01*
X206630Y133276D01*
X206583Y133175D01*
X206540Y133073D01*
X206500Y132970D01*
X206464Y132865D01*
X206432Y132759D01*
X206403Y132652D01*
X206378Y132544D01*
X206357Y132435D01*
X206340Y132326D01*
X206326Y132216D01*
X206317Y132105D01*
X206311Y131995D01*
X206309Y131884D01*
X206309Y126804D01*
X206311Y126693D01*
X206317Y126583D01*
X206326Y126472D01*
X206340Y126362D01*
X206357Y126253D01*
X206378Y126144D01*
X206403Y126036D01*
X206432Y125929D01*
X206464Y125823D01*
X206500Y125718D01*
X206540Y125615D01*
X206583Y125513D01*
X206630Y125412D01*
X206681Y125313D01*
X206734Y125217D01*
X206791Y125122D01*
X206852Y125029D01*
X206915Y124938D01*
X206982Y124849D01*
X207052Y124763D01*
X207125Y124680D01*
X207200Y124598D01*
X207278Y124520D01*
X207360Y124445D01*
X207443Y124372D01*
X207529Y124302D01*
X207618Y124235D01*
X207709Y124172D01*
X207802Y124111D01*
X207897Y124054D01*
X207993Y124001D01*
X208092Y123950D01*
X208193Y123903D01*
X208295Y123860D01*
X208398Y123820D01*
X208503Y123784D01*
X208609Y123752D01*
X208716Y123723D01*
X208824Y123698D01*
X208933Y123677D01*
X209042Y123660D01*
X209152Y123646D01*
X209263Y123637D01*
X209373Y123631D01*
X209484Y123629D01*
X209595Y123631D01*
X209705Y123637D01*
X209816Y123646D01*
X209926Y123660D01*
X210035Y123677D01*
X210144Y123698D01*
X210252Y123723D01*
X210359Y123752D01*
X210465Y123784D01*
X210570Y123820D01*
X210673Y123860D01*
X210775Y123903D01*
X210876Y123950D01*
X210975Y124001D01*
X211071Y124054D01*
X211166Y124111D01*
X211259Y124172D01*
X211350Y124235D01*
X211439Y124302D01*
X211525Y124372D01*
X211608Y124445D01*
X211690Y124520D01*
X211768Y124598D01*
X211843Y124680D01*
X211916Y124763D01*
X211986Y124849D01*
X212053Y124938D01*
X212116Y125029D01*
X212177Y125122D01*
X212234Y125216D01*
X212287Y125313D01*
X212338Y125412D01*
X212385Y125513D01*
X212428Y125615D01*
X212468Y125718D01*
X212504Y125823D01*
X212536Y125929D01*
X212565Y126036D01*
X212590Y126144D01*
X212611Y126253D01*
X212628Y126362D01*
X212642Y126472D01*
X212651Y126583D01*
X212657Y126693D01*
X212659Y126804D01*
X200848Y126804D02*
X200848Y135059D01*
X200848Y126804D02*
X200846Y126693D01*
X200840Y126583D01*
X200831Y126472D01*
X200817Y126362D01*
X200800Y126253D01*
X200779Y126144D01*
X200754Y126036D01*
X200725Y125929D01*
X200693Y125823D01*
X200657Y125718D01*
X200617Y125615D01*
X200574Y125513D01*
X200527Y125412D01*
X200476Y125313D01*
X200423Y125216D01*
X200366Y125122D01*
X200305Y125029D01*
X200242Y124938D01*
X200175Y124849D01*
X200105Y124763D01*
X200032Y124680D01*
X199957Y124598D01*
X199879Y124520D01*
X199797Y124445D01*
X199714Y124372D01*
X199628Y124302D01*
X199539Y124235D01*
X199448Y124172D01*
X199355Y124111D01*
X199260Y124054D01*
X199164Y124001D01*
X199065Y123950D01*
X198964Y123903D01*
X198862Y123860D01*
X198759Y123820D01*
X198654Y123784D01*
X198548Y123752D01*
X198441Y123723D01*
X198333Y123698D01*
X198224Y123677D01*
X198115Y123660D01*
X198005Y123646D01*
X197894Y123637D01*
X197784Y123631D01*
X197673Y123629D01*
X197562Y123631D01*
X197452Y123637D01*
X197341Y123646D01*
X197231Y123660D01*
X197122Y123677D01*
X197013Y123698D01*
X196905Y123723D01*
X196798Y123752D01*
X196692Y123784D01*
X196587Y123820D01*
X196484Y123860D01*
X196382Y123903D01*
X196281Y123950D01*
X196182Y124001D01*
X196086Y124054D01*
X195991Y124111D01*
X195898Y124172D01*
X195807Y124235D01*
X195718Y124302D01*
X195632Y124372D01*
X195549Y124445D01*
X195467Y124520D01*
X195389Y124598D01*
X195314Y124680D01*
X195241Y124763D01*
X195171Y124849D01*
X195104Y124938D01*
X195041Y125029D01*
X194980Y125122D01*
X194923Y125217D01*
X194870Y125313D01*
X194819Y125412D01*
X194772Y125513D01*
X194729Y125615D01*
X194689Y125718D01*
X194653Y125823D01*
X194621Y125929D01*
X194592Y126036D01*
X194567Y126144D01*
X194546Y126253D01*
X194529Y126362D01*
X194515Y126472D01*
X194506Y126583D01*
X194500Y126693D01*
X194498Y126804D01*
X194498Y135059D01*
X188656Y135059D02*
X188656Y123629D01*
X182306Y123629D02*
X188656Y135059D01*
X182306Y135059D02*
X182306Y123629D01*
X176464Y123629D02*
X176464Y135059D01*
X173289Y135059D01*
X173178Y135057D01*
X173068Y135051D01*
X172957Y135042D01*
X172847Y135028D01*
X172738Y135011D01*
X172629Y134990D01*
X172521Y134965D01*
X172414Y134936D01*
X172308Y134904D01*
X172203Y134868D01*
X172100Y134828D01*
X171998Y134785D01*
X171897Y134738D01*
X171798Y134687D01*
X171702Y134634D01*
X171607Y134577D01*
X171514Y134516D01*
X171423Y134453D01*
X171334Y134386D01*
X171248Y134316D01*
X171165Y134243D01*
X171083Y134168D01*
X171005Y134090D01*
X170930Y134008D01*
X170857Y133925D01*
X170787Y133839D01*
X170720Y133750D01*
X170657Y133659D01*
X170596Y133566D01*
X170539Y133472D01*
X170486Y133375D01*
X170435Y133276D01*
X170388Y133175D01*
X170345Y133073D01*
X170305Y132970D01*
X170269Y132865D01*
X170237Y132759D01*
X170208Y132652D01*
X170183Y132544D01*
X170162Y132435D01*
X170145Y132326D01*
X170131Y132216D01*
X170122Y132105D01*
X170116Y131995D01*
X170114Y131884D01*
X170114Y126804D01*
X170116Y126693D01*
X170122Y126583D01*
X170131Y126472D01*
X170145Y126362D01*
X170162Y126253D01*
X170183Y126144D01*
X170208Y126036D01*
X170237Y125929D01*
X170269Y125823D01*
X170305Y125718D01*
X170345Y125615D01*
X170388Y125513D01*
X170435Y125412D01*
X170486Y125313D01*
X170539Y125217D01*
X170596Y125122D01*
X170657Y125029D01*
X170720Y124938D01*
X170787Y124849D01*
X170857Y124763D01*
X170930Y124680D01*
X171005Y124598D01*
X171083Y124520D01*
X171165Y124445D01*
X171248Y124372D01*
X171334Y124302D01*
X171423Y124235D01*
X171514Y124172D01*
X171607Y124111D01*
X171702Y124054D01*
X171798Y124001D01*
X171897Y123950D01*
X171998Y123903D01*
X172100Y123860D01*
X172203Y123820D01*
X172308Y123784D01*
X172414Y123752D01*
X172521Y123723D01*
X172629Y123698D01*
X172738Y123677D01*
X172847Y123660D01*
X172957Y123646D01*
X173068Y123637D01*
X173178Y123631D01*
X173289Y123629D01*
X176464Y123629D01*
X165161Y122359D02*
X160081Y122359D01*
X155509Y132519D02*
X152334Y135059D01*
X152334Y123629D01*
X155509Y123629D02*
X149159Y123629D01*
D10*
X14196Y176292D02*
X9196Y176292D01*
X8196Y177292D01*
X8196Y304292D01*
X9196Y305292D01*
X14196Y305292D01*
X14196Y176292D01*
X30196Y185292D02*
X30196Y296292D01*
X29196Y190792D02*
X15196Y190792D01*
X15196Y290792D02*
X29196Y290792D01*
D17*
X13196Y205292D02*
X9196Y205292D01*
X11696Y207792D01*
X13196Y207792D01*
X13196Y273792D02*
X11696Y273792D01*
X9196Y276292D01*
X13196Y276292D01*
D10*
X31696Y199292D02*
X54196Y199292D01*
X54250Y199294D01*
X54303Y199300D01*
X54355Y199309D01*
X54407Y199322D01*
X54458Y199339D01*
X54508Y199360D01*
X54555Y199384D01*
X54601Y199411D01*
X54645Y199442D01*
X54687Y199475D01*
X54726Y199512D01*
X54763Y199551D01*
X54796Y199593D01*
X54827Y199637D01*
X54854Y199683D01*
X54878Y199730D01*
X54899Y199780D01*
X54916Y199831D01*
X54929Y199883D01*
X54938Y199935D01*
X54944Y199988D01*
X54946Y200042D01*
X54944Y200096D01*
X54938Y200149D01*
X54929Y200201D01*
X54916Y200253D01*
X54899Y200304D01*
X54878Y200354D01*
X54854Y200401D01*
X54827Y200447D01*
X54796Y200491D01*
X54763Y200533D01*
X54726Y200572D01*
X54687Y200609D01*
X54645Y200642D01*
X54601Y200673D01*
X54555Y200700D01*
X54508Y200724D01*
X54458Y200745D01*
X54407Y200762D01*
X54355Y200775D01*
X54303Y200784D01*
X54250Y200790D01*
X54196Y200792D01*
X31696Y200792D01*
X31696Y280792D02*
X54196Y280792D01*
X54250Y280794D01*
X54303Y280800D01*
X54355Y280809D01*
X54407Y280822D01*
X54458Y280839D01*
X54508Y280860D01*
X54555Y280884D01*
X54601Y280911D01*
X54645Y280942D01*
X54687Y280975D01*
X54726Y281012D01*
X54763Y281051D01*
X54796Y281093D01*
X54827Y281137D01*
X54854Y281183D01*
X54878Y281230D01*
X54899Y281280D01*
X54916Y281331D01*
X54929Y281383D01*
X54938Y281435D01*
X54944Y281488D01*
X54946Y281542D01*
X54944Y281596D01*
X54938Y281649D01*
X54929Y281701D01*
X54916Y281753D01*
X54899Y281804D01*
X54878Y281854D01*
X54854Y281901D01*
X54827Y281947D01*
X54796Y281991D01*
X54763Y282033D01*
X54726Y282072D01*
X54687Y282109D01*
X54645Y282142D01*
X54601Y282173D01*
X54555Y282200D01*
X54508Y282224D01*
X54458Y282245D01*
X54407Y282262D01*
X54355Y282275D01*
X54303Y282284D01*
X54250Y282290D01*
X54196Y282292D01*
X31696Y282292D01*
D17*
X89088Y183289D02*
X77404Y175500D01*
X77404Y183289D02*
X89088Y175500D01*
X89088Y191149D02*
X89086Y191256D01*
X89080Y191362D01*
X89070Y191468D01*
X89057Y191574D01*
X89039Y191680D01*
X89018Y191784D01*
X88993Y191888D01*
X88964Y191991D01*
X88932Y192092D01*
X88895Y192192D01*
X88855Y192291D01*
X88812Y192389D01*
X88765Y192485D01*
X88714Y192579D01*
X88660Y192671D01*
X88603Y192761D01*
X88543Y192849D01*
X88479Y192934D01*
X88412Y193017D01*
X88342Y193098D01*
X88270Y193176D01*
X88194Y193252D01*
X88116Y193324D01*
X88035Y193394D01*
X87952Y193461D01*
X87867Y193525D01*
X87779Y193585D01*
X87689Y193642D01*
X87597Y193696D01*
X87503Y193747D01*
X87407Y193794D01*
X87309Y193837D01*
X87210Y193877D01*
X87110Y193914D01*
X87009Y193946D01*
X86906Y193975D01*
X86802Y194000D01*
X86698Y194021D01*
X86592Y194039D01*
X86486Y194052D01*
X86380Y194062D01*
X86274Y194068D01*
X86167Y194070D01*
X89088Y191149D02*
X89086Y191028D01*
X89080Y190907D01*
X89070Y190787D01*
X89057Y190666D01*
X89039Y190547D01*
X89018Y190427D01*
X88993Y190309D01*
X88964Y190192D01*
X88931Y190075D01*
X88895Y189960D01*
X88854Y189846D01*
X88811Y189733D01*
X88763Y189621D01*
X88712Y189512D01*
X88657Y189404D01*
X88599Y189297D01*
X88538Y189193D01*
X88473Y189091D01*
X88405Y188991D01*
X88334Y188893D01*
X88260Y188797D01*
X88183Y188704D01*
X88102Y188614D01*
X88019Y188526D01*
X87933Y188441D01*
X87844Y188358D01*
X87753Y188279D01*
X87659Y188202D01*
X87563Y188129D01*
X87465Y188059D01*
X87364Y187992D01*
X87261Y187928D01*
X87156Y187868D01*
X87049Y187811D01*
X86941Y187757D01*
X86831Y187707D01*
X86719Y187661D01*
X86606Y187618D01*
X86491Y187579D01*
X83895Y193097D02*
X83972Y193176D01*
X84053Y193252D01*
X84136Y193325D01*
X84221Y193395D01*
X84309Y193462D01*
X84399Y193526D01*
X84491Y193586D01*
X84586Y193643D01*
X84682Y193697D01*
X84780Y193748D01*
X84880Y193795D01*
X84982Y193839D01*
X85085Y193879D01*
X85189Y193915D01*
X85295Y193947D01*
X85401Y193976D01*
X85509Y194001D01*
X85617Y194023D01*
X85727Y194040D01*
X85836Y194054D01*
X85946Y194063D01*
X86057Y194069D01*
X86167Y194071D01*
X83895Y193097D02*
X77404Y187579D01*
X77404Y194070D01*
M02*
