G04 EAGLE Gerber RS-274X export*
G75*
%MOMM*%
%FSLAX34Y34*%
%LPD*%
%INSolderpaste Top*%
%IPPOS*%
%AMOC8*
5,1,8,0,0,1.08239X$1,22.5*%
G01*
%ADD10R,0.700000X1.700000*%
%ADD11R,1.270000X0.558800*%
%ADD12R,0.558800X1.270000*%
%ADD13R,1.240000X1.500000*%
%ADD14R,1.000000X0.300000*%
%ADD15R,1.000000X1.000000*%

G36*
X178425Y309063D02*
X178425Y309063D01*
X178425Y309064D01*
X178425Y325564D01*
X178421Y325569D01*
X178420Y325569D01*
X165420Y325569D01*
X165415Y325565D01*
X165415Y325564D01*
X165415Y309064D01*
X165419Y309059D01*
X165420Y309059D01*
X178420Y309059D01*
X178425Y309063D01*
G37*
G36*
X178425Y158563D02*
X178425Y158563D01*
X178425Y158564D01*
X178425Y175064D01*
X178421Y175069D01*
X178420Y175069D01*
X165420Y175069D01*
X165415Y175065D01*
X165415Y175064D01*
X165415Y158564D01*
X165419Y158559D01*
X165420Y158559D01*
X178420Y158559D01*
X178425Y158563D01*
G37*
D10*
G36*
X256810Y246480D02*
X261760Y241530D01*
X249740Y229510D01*
X244790Y234460D01*
X256810Y246480D01*
G37*
G36*
X248324Y254966D02*
X253274Y250016D01*
X241254Y237996D01*
X236304Y242946D01*
X248324Y254966D01*
G37*
G36*
X239839Y263451D02*
X244789Y258501D01*
X232769Y246481D01*
X227819Y251431D01*
X239839Y263451D01*
G37*
D11*
G36*
X235653Y307340D02*
X226674Y298361D01*
X222723Y302312D01*
X231702Y311291D01*
X235653Y307340D01*
G37*
G36*
X241310Y301683D02*
X232331Y292704D01*
X228380Y296655D01*
X237359Y305634D01*
X241310Y301683D01*
G37*
G36*
X246966Y296026D02*
X237987Y287047D01*
X234036Y290998D01*
X243015Y299977D01*
X246966Y296026D01*
G37*
G36*
X252623Y290369D02*
X243644Y281390D01*
X239693Y285341D01*
X248672Y294320D01*
X252623Y290369D01*
G37*
G36*
X258280Y284712D02*
X249301Y275733D01*
X245350Y279684D01*
X254329Y288663D01*
X258280Y284712D01*
G37*
G36*
X263937Y279055D02*
X254958Y270076D01*
X251007Y274027D01*
X259986Y283006D01*
X263937Y279055D01*
G37*
G36*
X269594Y273399D02*
X260615Y264420D01*
X256664Y268371D01*
X265643Y277350D01*
X269594Y273399D01*
G37*
G36*
X275251Y267742D02*
X266272Y258763D01*
X262321Y262714D01*
X271300Y271693D01*
X275251Y267742D01*
G37*
D12*
G36*
X296359Y262714D02*
X292408Y258763D01*
X283429Y267742D01*
X287380Y271693D01*
X296359Y262714D01*
G37*
G36*
X302016Y268371D02*
X298065Y264420D01*
X289086Y273399D01*
X293037Y277350D01*
X302016Y268371D01*
G37*
G36*
X307673Y274027D02*
X303722Y270076D01*
X294743Y279055D01*
X298694Y283006D01*
X307673Y274027D01*
G37*
G36*
X313330Y279684D02*
X309379Y275733D01*
X300400Y284712D01*
X304351Y288663D01*
X313330Y279684D01*
G37*
G36*
X318987Y285341D02*
X315036Y281390D01*
X306057Y290369D01*
X310008Y294320D01*
X318987Y285341D01*
G37*
G36*
X324644Y290998D02*
X320693Y287047D01*
X311714Y296026D01*
X315665Y299977D01*
X324644Y290998D01*
G37*
G36*
X330300Y296655D02*
X326349Y292704D01*
X317370Y301683D01*
X321321Y305634D01*
X330300Y296655D01*
G37*
G36*
X335957Y302312D02*
X332006Y298361D01*
X323027Y307340D01*
X326978Y311291D01*
X335957Y302312D01*
G37*
D11*
G36*
X335957Y328448D02*
X326978Y319469D01*
X323027Y323420D01*
X332006Y332399D01*
X335957Y328448D01*
G37*
G36*
X330300Y334105D02*
X321321Y325126D01*
X317370Y329077D01*
X326349Y338056D01*
X330300Y334105D01*
G37*
G36*
X324644Y339762D02*
X315665Y330783D01*
X311714Y334734D01*
X320693Y343713D01*
X324644Y339762D01*
G37*
G36*
X318987Y345419D02*
X310008Y336440D01*
X306057Y340391D01*
X315036Y349370D01*
X318987Y345419D01*
G37*
G36*
X313330Y351076D02*
X304351Y342097D01*
X300400Y346048D01*
X309379Y355027D01*
X313330Y351076D01*
G37*
G36*
X307673Y356733D02*
X298694Y347754D01*
X294743Y351705D01*
X303722Y360684D01*
X307673Y356733D01*
G37*
G36*
X302016Y362389D02*
X293037Y353410D01*
X289086Y357361D01*
X298065Y366340D01*
X302016Y362389D01*
G37*
G36*
X296359Y368046D02*
X287380Y359067D01*
X283429Y363018D01*
X292408Y371997D01*
X296359Y368046D01*
G37*
D12*
G36*
X275251Y363018D02*
X271300Y359067D01*
X262321Y368046D01*
X266272Y371997D01*
X275251Y363018D01*
G37*
G36*
X269594Y357361D02*
X265643Y353410D01*
X256664Y362389D01*
X260615Y366340D01*
X269594Y357361D01*
G37*
G36*
X263937Y351705D02*
X259986Y347754D01*
X251007Y356733D01*
X254958Y360684D01*
X263937Y351705D01*
G37*
G36*
X258280Y346048D02*
X254329Y342097D01*
X245350Y351076D01*
X249301Y355027D01*
X258280Y346048D01*
G37*
G36*
X252623Y340391D02*
X248672Y336440D01*
X239693Y345419D01*
X243644Y349370D01*
X252623Y340391D01*
G37*
G36*
X246966Y334734D02*
X243015Y330783D01*
X234036Y339762D01*
X237987Y343713D01*
X246966Y334734D01*
G37*
G36*
X241310Y329077D02*
X237359Y325126D01*
X228380Y334105D01*
X232331Y338056D01*
X241310Y329077D01*
G37*
G36*
X235653Y323420D02*
X231702Y319469D01*
X222723Y328448D01*
X226674Y332399D01*
X235653Y323420D01*
G37*
D13*
G36*
X312840Y362725D02*
X304072Y371493D01*
X314678Y382099D01*
X323446Y373331D01*
X312840Y362725D01*
G37*
G36*
X326276Y349290D02*
X317508Y358058D01*
X328114Y368664D01*
X336882Y359896D01*
X326276Y349290D01*
G37*
G36*
X328031Y377561D02*
X319263Y386329D01*
X329869Y396935D01*
X338637Y388167D01*
X328031Y377561D01*
G37*
G36*
X341466Y364126D02*
X332698Y372894D01*
X343304Y383500D01*
X352072Y374732D01*
X341466Y364126D01*
G37*
G36*
X207284Y373051D02*
X216052Y381819D01*
X226658Y371213D01*
X217890Y362445D01*
X207284Y373051D01*
G37*
G36*
X193849Y359616D02*
X202617Y368384D01*
X213223Y357778D01*
X204455Y349010D01*
X193849Y359616D01*
G37*
G36*
X222516Y357681D02*
X231284Y366449D01*
X241890Y355843D01*
X233122Y347075D01*
X222516Y357681D01*
G37*
G36*
X209081Y344246D02*
X217849Y353014D01*
X228455Y342408D01*
X219687Y333640D01*
X209081Y344246D01*
G37*
D14*
X152920Y249564D03*
X152920Y234564D03*
X152920Y244564D03*
X152920Y229564D03*
X152920Y254564D03*
X152920Y219564D03*
X152920Y274564D03*
X152920Y209564D03*
X152920Y284564D03*
X152920Y199564D03*
X152920Y194564D03*
X152920Y289564D03*
X152920Y189564D03*
X152920Y239564D03*
X152920Y279564D03*
X152920Y294564D03*
D15*
X171920Y166814D03*
X171920Y317314D03*
D14*
X152920Y204564D03*
X152920Y264564D03*
X152920Y214564D03*
X152920Y269564D03*
X152920Y224564D03*
X152920Y259564D03*
M02*
