G04 EAGLE Gerber RS-274X export*
G75*
%MOMM*%
%FSLAX34Y34*%
%LPD*%
%INSoldermask Top*%
%IPPOS*%
%AMOC8*
5,1,8,0,0,1.08239X$1,22.5*%
G01*
%ADD10C,1.111200*%
%ADD11R,0.903200X1.903200*%
%ADD12R,1.473200X0.762000*%
%ADD13R,0.762000X1.473200*%
%ADD14R,1.443200X1.703200*%
%ADD15R,1.203200X0.503200*%
%ADD16R,1.203200X1.203200*%
%ADD17C,2.082800*%
%ADD18C,1.473200*%

G36*
X178425Y309063D02*
X178425Y309063D01*
X178425Y309064D01*
X178425Y325564D01*
X178421Y325569D01*
X178420Y325569D01*
X165420Y325569D01*
X165415Y325565D01*
X165415Y325564D01*
X165415Y309064D01*
X165419Y309059D01*
X165420Y309059D01*
X178420Y309059D01*
X178425Y309063D01*
G37*
G36*
X178425Y158563D02*
X178425Y158563D01*
X178425Y158564D01*
X178425Y175064D01*
X178421Y175069D01*
X178420Y175069D01*
X165420Y175069D01*
X165415Y175065D01*
X165415Y175064D01*
X165415Y158564D01*
X165419Y158559D01*
X165420Y158559D01*
X178420Y158559D01*
X178425Y158563D01*
G37*
D10*
X345750Y239720D03*
X354750Y248720D03*
X336750Y248720D03*
X336750Y230720D03*
X354750Y230720D03*
D11*
G36*
X256810Y247917D02*
X263197Y241530D01*
X249740Y228073D01*
X243353Y234460D01*
X256810Y247917D01*
G37*
G36*
X248324Y256403D02*
X254711Y250016D01*
X241254Y236559D01*
X234867Y242946D01*
X248324Y256403D01*
G37*
G36*
X239839Y264888D02*
X246226Y258501D01*
X232769Y245044D01*
X226382Y251431D01*
X239839Y264888D01*
G37*
D12*
G36*
X237090Y307340D02*
X226674Y296924D01*
X221286Y302312D01*
X231702Y312728D01*
X237090Y307340D01*
G37*
G36*
X242747Y301683D02*
X232331Y291267D01*
X226943Y296655D01*
X237359Y307071D01*
X242747Y301683D01*
G37*
G36*
X248403Y296026D02*
X237987Y285610D01*
X232599Y290998D01*
X243015Y301414D01*
X248403Y296026D01*
G37*
G36*
X254060Y290369D02*
X243644Y279953D01*
X238256Y285341D01*
X248672Y295757D01*
X254060Y290369D01*
G37*
G36*
X259717Y284712D02*
X249301Y274296D01*
X243913Y279684D01*
X254329Y290100D01*
X259717Y284712D01*
G37*
G36*
X265374Y279055D02*
X254958Y268639D01*
X249570Y274027D01*
X259986Y284443D01*
X265374Y279055D01*
G37*
G36*
X271031Y273399D02*
X260615Y262983D01*
X255227Y268371D01*
X265643Y278787D01*
X271031Y273399D01*
G37*
G36*
X276688Y267742D02*
X266272Y257326D01*
X260884Y262714D01*
X271300Y273130D01*
X276688Y267742D01*
G37*
D13*
G36*
X297796Y262714D02*
X292408Y257326D01*
X281992Y267742D01*
X287380Y273130D01*
X297796Y262714D01*
G37*
G36*
X303453Y268371D02*
X298065Y262983D01*
X287649Y273399D01*
X293037Y278787D01*
X303453Y268371D01*
G37*
G36*
X309110Y274027D02*
X303722Y268639D01*
X293306Y279055D01*
X298694Y284443D01*
X309110Y274027D01*
G37*
G36*
X314767Y279684D02*
X309379Y274296D01*
X298963Y284712D01*
X304351Y290100D01*
X314767Y279684D01*
G37*
G36*
X320424Y285341D02*
X315036Y279953D01*
X304620Y290369D01*
X310008Y295757D01*
X320424Y285341D01*
G37*
G36*
X326081Y290998D02*
X320693Y285610D01*
X310277Y296026D01*
X315665Y301414D01*
X326081Y290998D01*
G37*
G36*
X331737Y296655D02*
X326349Y291267D01*
X315933Y301683D01*
X321321Y307071D01*
X331737Y296655D01*
G37*
G36*
X337394Y302312D02*
X332006Y296924D01*
X321590Y307340D01*
X326978Y312728D01*
X337394Y302312D01*
G37*
D12*
G36*
X337394Y328448D02*
X326978Y318032D01*
X321590Y323420D01*
X332006Y333836D01*
X337394Y328448D01*
G37*
G36*
X331737Y334105D02*
X321321Y323689D01*
X315933Y329077D01*
X326349Y339493D01*
X331737Y334105D01*
G37*
G36*
X326081Y339762D02*
X315665Y329346D01*
X310277Y334734D01*
X320693Y345150D01*
X326081Y339762D01*
G37*
G36*
X320424Y345419D02*
X310008Y335003D01*
X304620Y340391D01*
X315036Y350807D01*
X320424Y345419D01*
G37*
G36*
X314767Y351076D02*
X304351Y340660D01*
X298963Y346048D01*
X309379Y356464D01*
X314767Y351076D01*
G37*
G36*
X309110Y356733D02*
X298694Y346317D01*
X293306Y351705D01*
X303722Y362121D01*
X309110Y356733D01*
G37*
G36*
X303453Y362389D02*
X293037Y351973D01*
X287649Y357361D01*
X298065Y367777D01*
X303453Y362389D01*
G37*
G36*
X297796Y368046D02*
X287380Y357630D01*
X281992Y363018D01*
X292408Y373434D01*
X297796Y368046D01*
G37*
D13*
G36*
X276688Y363018D02*
X271300Y357630D01*
X260884Y368046D01*
X266272Y373434D01*
X276688Y363018D01*
G37*
G36*
X271031Y357361D02*
X265643Y351973D01*
X255227Y362389D01*
X260615Y367777D01*
X271031Y357361D01*
G37*
G36*
X265374Y351705D02*
X259986Y346317D01*
X249570Y356733D01*
X254958Y362121D01*
X265374Y351705D01*
G37*
G36*
X259717Y346048D02*
X254329Y340660D01*
X243913Y351076D01*
X249301Y356464D01*
X259717Y346048D01*
G37*
G36*
X254060Y340391D02*
X248672Y335003D01*
X238256Y345419D01*
X243644Y350807D01*
X254060Y340391D01*
G37*
G36*
X248403Y334734D02*
X243015Y329346D01*
X232599Y339762D01*
X237987Y345150D01*
X248403Y334734D01*
G37*
G36*
X242747Y329077D02*
X237359Y323689D01*
X226943Y334105D01*
X232331Y339493D01*
X242747Y329077D01*
G37*
G36*
X237090Y323420D02*
X231702Y318032D01*
X221286Y328448D01*
X226674Y333836D01*
X237090Y323420D01*
G37*
D14*
G36*
X312840Y361288D02*
X302635Y371493D01*
X314678Y383536D01*
X324883Y373331D01*
X312840Y361288D01*
G37*
G36*
X326276Y347853D02*
X316071Y358058D01*
X328114Y370101D01*
X338319Y359896D01*
X326276Y347853D01*
G37*
G36*
X328031Y376124D02*
X317826Y386329D01*
X329869Y398372D01*
X340074Y388167D01*
X328031Y376124D01*
G37*
G36*
X341466Y362689D02*
X331261Y372894D01*
X343304Y384937D01*
X353509Y374732D01*
X341466Y362689D01*
G37*
G36*
X205847Y373051D02*
X216052Y383256D01*
X228095Y371213D01*
X217890Y361008D01*
X205847Y373051D01*
G37*
G36*
X192412Y359616D02*
X202617Y369821D01*
X214660Y357778D01*
X204455Y347573D01*
X192412Y359616D01*
G37*
G36*
X221079Y357681D02*
X231284Y367886D01*
X243327Y355843D01*
X233122Y345638D01*
X221079Y357681D01*
G37*
G36*
X207644Y344246D02*
X217849Y354451D01*
X229892Y342408D01*
X219687Y332203D01*
X207644Y344246D01*
G37*
D15*
X152920Y249564D03*
X152920Y234564D03*
X152920Y244564D03*
X152920Y229564D03*
X152920Y254564D03*
X152920Y219564D03*
X152920Y274564D03*
X152920Y209564D03*
X152920Y284564D03*
X152920Y199564D03*
X152920Y194564D03*
X152920Y289564D03*
X152920Y189564D03*
X152920Y239564D03*
X152920Y279564D03*
X152920Y294564D03*
D16*
X171920Y166814D03*
X171920Y317314D03*
D15*
X152920Y204564D03*
X152920Y264564D03*
X152920Y214564D03*
X152920Y269564D03*
X152920Y224564D03*
X152920Y259564D03*
D17*
X200180Y38900D03*
X200180Y64300D03*
X225580Y38900D03*
X225580Y64300D03*
X250980Y38900D03*
X250980Y64300D03*
D18*
X230820Y199740D03*
X256220Y171330D03*
X256220Y199308D03*
X230820Y171406D03*
M02*
