G04 EAGLE Gerber RS-274X export*
G75*
%MOMM*%
%FSLAX34Y34*%
%LPD*%
%INSoldermask Bottom*%
%IPPOS*%
%AMOC8*
5,1,8,0,0,1.08239X$1,22.5*%
G01*
%ADD10R,4.803200X1.203200*%
%ADD11R,3.603200X1.803200*%
%ADD12R,1.443200X1.703200*%
%ADD13R,2.703200X2.153200*%
%ADD14R,1.203200X1.603200*%
%ADD15R,2.203200X5.203200*%
%ADD16R,2.903200X2.903200*%
%ADD17C,0.553200*%
%ADD18C,1.111200*%
%ADD19R,1.403200X0.753200*%
%ADD20R,1.203200X0.503200*%
%ADD21R,1.203200X1.203200*%
%ADD22C,2.082800*%
%ADD23C,1.473200*%
%ADD24R,1.003200X0.503200*%
%ADD25R,2.200000X1.150000*%
%ADD26R,3.050000X1.300000*%

G36*
X207275Y309059D02*
X207275Y309059D01*
X207275Y309060D01*
X207275Y325560D01*
X207271Y325565D01*
X207270Y325565D01*
X194270Y325565D01*
X194265Y325561D01*
X194265Y325560D01*
X194265Y309060D01*
X194269Y309055D01*
X194270Y309055D01*
X207270Y309055D01*
X207275Y309059D01*
G37*
G36*
X207275Y158559D02*
X207275Y158559D01*
X207275Y158560D01*
X207275Y175060D01*
X207271Y175065D01*
X207270Y175065D01*
X194270Y175065D01*
X194265Y175061D01*
X194265Y175060D01*
X194265Y158560D01*
X194269Y158555D01*
X194270Y158555D01*
X207270Y158555D01*
X207275Y158559D01*
G37*
D10*
X105700Y102300D03*
X105700Y122300D03*
D11*
X157700Y78300D03*
X157700Y146300D03*
D12*
X284180Y287980D03*
X303180Y287980D03*
X124740Y283030D03*
X105740Y283030D03*
X284180Y314650D03*
X303180Y314650D03*
X124384Y177472D03*
X105384Y177472D03*
X300640Y158440D03*
X281640Y158440D03*
D13*
X407360Y249382D03*
X407360Y218882D03*
D12*
X340060Y122372D03*
X359060Y122372D03*
X124384Y198554D03*
X105384Y198554D03*
X124486Y220292D03*
X105486Y220292D03*
X124740Y303350D03*
X105740Y303350D03*
D14*
X73716Y139106D03*
X83216Y161106D03*
X64216Y161106D03*
D15*
X333560Y174950D03*
X365560Y174950D03*
D12*
X281640Y210510D03*
X300640Y210510D03*
X300640Y235910D03*
X281640Y235910D03*
X124740Y262710D03*
X105740Y262710D03*
X105638Y241988D03*
X124638Y241988D03*
X281640Y183840D03*
X300640Y183840D03*
X328630Y314650D03*
X347630Y314650D03*
X327360Y287980D03*
X346360Y287980D03*
X340314Y103068D03*
X359314Y103068D03*
D16*
X345750Y239720D03*
D17*
X363250Y249470D02*
X370250Y249470D01*
X370250Y242970D02*
X363250Y242970D01*
X363250Y236470D02*
X370250Y236470D01*
X370250Y229970D02*
X363250Y229970D01*
X355500Y222220D02*
X355500Y215220D01*
X349000Y215220D02*
X349000Y222220D01*
X342500Y222220D02*
X342500Y215220D01*
X336000Y215220D02*
X336000Y222220D01*
X328250Y229970D02*
X321250Y229970D01*
X321250Y236470D02*
X328250Y236470D01*
X328250Y242970D02*
X321250Y242970D01*
X321250Y249470D02*
X328250Y249470D01*
X336000Y257220D02*
X336000Y264220D01*
X342500Y264220D02*
X342500Y257220D01*
X349000Y257220D02*
X349000Y264220D01*
X355500Y264220D02*
X355500Y257220D01*
D18*
X345750Y239720D03*
X354750Y248720D03*
X336750Y248720D03*
X336750Y230720D03*
X354750Y230720D03*
D19*
X288299Y103220D03*
X288299Y112720D03*
X288299Y122220D03*
X314301Y122220D03*
X314301Y103220D03*
D20*
X181770Y234560D03*
X181770Y249560D03*
X181770Y239560D03*
X181770Y254560D03*
X181770Y229560D03*
X181770Y264560D03*
X181770Y209560D03*
X181770Y274560D03*
X181770Y199560D03*
X181770Y284560D03*
X181770Y289560D03*
X181770Y194560D03*
X181770Y294560D03*
X181770Y244560D03*
X181770Y204560D03*
X181770Y189560D03*
D21*
X200770Y317310D03*
X200770Y166810D03*
D20*
X181770Y279560D03*
X181770Y219560D03*
X181770Y269560D03*
X181770Y214560D03*
X181770Y259560D03*
X181770Y224560D03*
D22*
X200180Y38900D03*
X200180Y64300D03*
X225580Y38900D03*
X225580Y64300D03*
X250980Y38900D03*
X250980Y64300D03*
D23*
X230820Y141460D03*
X256220Y141498D03*
X230566Y112834D03*
D24*
X69196Y208292D03*
X69196Y213292D03*
X69196Y218292D03*
X69196Y223292D03*
X69196Y228292D03*
X69196Y233292D03*
X69196Y238292D03*
X69196Y243292D03*
X69196Y248292D03*
X69196Y253292D03*
X69196Y258292D03*
X69196Y263292D03*
X69196Y268292D03*
X69196Y273292D03*
D25*
X53196Y304042D03*
D26*
X48946Y292292D03*
D25*
X53196Y177542D03*
D26*
X48946Y189292D03*
M02*
