G04 EAGLE Gerber RS-274X export*
G75*
%MOMM*%
%FSLAX34Y34*%
%LPD*%
%INTop Copper*%
%IPPOS*%
%AMOC8*
5,1,8,0,0,1.08239X$1,22.5*%
G01*
%ADD10R,3.200000X0.350000*%
%ADD11C,0.609600*%
%ADD12C,0.203200*%

G36*
X93962Y5089D02*
X93962Y5089D01*
X94020Y5087D01*
X94102Y5109D01*
X94186Y5121D01*
X94239Y5144D01*
X94295Y5159D01*
X94368Y5202D01*
X94445Y5237D01*
X94490Y5275D01*
X94540Y5304D01*
X94598Y5366D01*
X94662Y5420D01*
X94694Y5469D01*
X94734Y5512D01*
X94773Y5587D01*
X94820Y5657D01*
X94837Y5713D01*
X94864Y5765D01*
X94875Y5833D01*
X94905Y5928D01*
X94908Y6028D01*
X94919Y6096D01*
X94919Y153904D01*
X94911Y153962D01*
X94913Y154020D01*
X94891Y154102D01*
X94879Y154186D01*
X94856Y154239D01*
X94841Y154295D01*
X94798Y154368D01*
X94763Y154445D01*
X94725Y154490D01*
X94696Y154540D01*
X94634Y154598D01*
X94580Y154662D01*
X94531Y154694D01*
X94488Y154734D01*
X94413Y154773D01*
X94343Y154820D01*
X94287Y154837D01*
X94235Y154864D01*
X94167Y154875D01*
X94072Y154905D01*
X93972Y154908D01*
X93904Y154919D01*
X6096Y154919D01*
X6038Y154911D01*
X5980Y154913D01*
X5898Y154891D01*
X5814Y154879D01*
X5761Y154856D01*
X5705Y154841D01*
X5632Y154798D01*
X5555Y154763D01*
X5510Y154725D01*
X5460Y154696D01*
X5402Y154634D01*
X5338Y154580D01*
X5306Y154531D01*
X5266Y154488D01*
X5227Y154413D01*
X5180Y154343D01*
X5163Y154287D01*
X5136Y154235D01*
X5125Y154167D01*
X5095Y154072D01*
X5092Y153972D01*
X5081Y153904D01*
X5081Y6096D01*
X5089Y6038D01*
X5087Y5980D01*
X5109Y5898D01*
X5121Y5814D01*
X5144Y5761D01*
X5159Y5705D01*
X5202Y5632D01*
X5237Y5555D01*
X5275Y5510D01*
X5304Y5460D01*
X5366Y5402D01*
X5420Y5338D01*
X5469Y5306D01*
X5512Y5266D01*
X5587Y5227D01*
X5657Y5180D01*
X5713Y5163D01*
X5765Y5136D01*
X5833Y5125D01*
X5928Y5095D01*
X6028Y5092D01*
X6096Y5081D01*
X93904Y5081D01*
X93962Y5089D01*
G37*
%LPC*%
G36*
X26808Y33781D02*
X26808Y33781D01*
X24129Y36460D01*
X24129Y38862D01*
X24121Y38920D01*
X24123Y38978D01*
X24101Y39060D01*
X24089Y39144D01*
X24066Y39197D01*
X24051Y39253D01*
X24008Y39326D01*
X23973Y39403D01*
X23935Y39448D01*
X23906Y39498D01*
X23844Y39556D01*
X23790Y39620D01*
X23741Y39652D01*
X23698Y39692D01*
X23623Y39731D01*
X23553Y39778D01*
X23497Y39795D01*
X23445Y39822D01*
X23377Y39833D01*
X23282Y39863D01*
X23182Y39866D01*
X23114Y39877D01*
X19950Y39877D01*
X17271Y42556D01*
X17271Y45466D01*
X17263Y45524D01*
X17265Y45582D01*
X17243Y45664D01*
X17231Y45748D01*
X17208Y45801D01*
X17193Y45857D01*
X17150Y45930D01*
X17115Y46007D01*
X17077Y46052D01*
X17048Y46102D01*
X16986Y46160D01*
X16932Y46224D01*
X16883Y46256D01*
X16840Y46296D01*
X16765Y46335D01*
X16695Y46382D01*
X16639Y46399D01*
X16587Y46426D01*
X16519Y46437D01*
X16424Y46467D01*
X16324Y46470D01*
X16256Y46481D01*
X14108Y46481D01*
X11429Y49160D01*
X11429Y52948D01*
X14108Y55627D01*
X15813Y55627D01*
X15871Y55635D01*
X15930Y55633D01*
X16011Y55655D01*
X16095Y55667D01*
X16148Y55690D01*
X16205Y55705D01*
X16277Y55748D01*
X16354Y55783D01*
X16399Y55821D01*
X16449Y55850D01*
X16507Y55912D01*
X16571Y55966D01*
X16604Y56015D01*
X16644Y56058D01*
X16682Y56133D01*
X16729Y56203D01*
X16746Y56259D01*
X16773Y56311D01*
X16784Y56379D01*
X16814Y56474D01*
X16817Y56574D01*
X16828Y56642D01*
X16828Y57723D01*
X16820Y57781D01*
X16822Y57840D01*
X16800Y57921D01*
X16789Y58005D01*
X16765Y58058D01*
X16750Y58115D01*
X16707Y58187D01*
X16672Y58264D01*
X16635Y58309D01*
X16605Y58359D01*
X16543Y58417D01*
X16489Y58481D01*
X16440Y58514D01*
X16397Y58554D01*
X16322Y58592D01*
X16252Y58639D01*
X16196Y58656D01*
X16144Y58683D01*
X16076Y58694D01*
X15981Y58724D01*
X15881Y58727D01*
X15813Y58738D01*
X14043Y58738D01*
X11364Y61417D01*
X11364Y65205D01*
X12025Y65866D01*
X12060Y65912D01*
X12102Y65953D01*
X12145Y66026D01*
X12195Y66093D01*
X12216Y66148D01*
X12246Y66198D01*
X12267Y66280D01*
X12297Y66359D01*
X12301Y66417D01*
X12316Y66474D01*
X12313Y66558D01*
X12320Y66642D01*
X12309Y66699D01*
X12307Y66758D01*
X12281Y66838D01*
X12264Y66921D01*
X12237Y66973D01*
X12219Y67028D01*
X12179Y67084D01*
X12133Y67173D01*
X12065Y67245D01*
X12025Y67302D01*
X9084Y70242D01*
X9084Y74030D01*
X11763Y76709D01*
X11982Y76709D01*
X12012Y76713D01*
X12041Y76710D01*
X12152Y76733D01*
X12264Y76749D01*
X12291Y76761D01*
X12319Y76766D01*
X12420Y76819D01*
X12523Y76865D01*
X12546Y76884D01*
X12572Y76897D01*
X12654Y76975D01*
X12740Y77048D01*
X12757Y77073D01*
X12778Y77093D01*
X12835Y77191D01*
X12898Y77285D01*
X12907Y77313D01*
X12922Y77338D01*
X12949Y77448D01*
X12984Y77556D01*
X12984Y77586D01*
X12992Y77614D01*
X12988Y77727D01*
X12991Y77840D01*
X12984Y77869D01*
X12983Y77898D01*
X12948Y78006D01*
X12919Y78115D01*
X12904Y78141D01*
X12895Y78169D01*
X12850Y78233D01*
X12774Y78360D01*
X12728Y78403D01*
X12700Y78442D01*
X11339Y79803D01*
X11339Y83592D01*
X14017Y86270D01*
X15661Y86270D01*
X15719Y86278D01*
X15777Y86277D01*
X15859Y86298D01*
X15942Y86310D01*
X15996Y86334D01*
X16052Y86349D01*
X16125Y86392D01*
X16202Y86426D01*
X16246Y86464D01*
X16297Y86494D01*
X16354Y86556D01*
X16419Y86610D01*
X16451Y86659D01*
X16491Y86701D01*
X16530Y86776D01*
X16576Y86847D01*
X16594Y86902D01*
X16621Y86954D01*
X16632Y87022D01*
X16662Y87118D01*
X16665Y87217D01*
X16676Y87285D01*
X16676Y88392D01*
X16669Y88441D01*
X16669Y88448D01*
X16668Y88453D01*
X16669Y88508D01*
X16648Y88590D01*
X16636Y88674D01*
X16612Y88727D01*
X16598Y88783D01*
X16555Y88856D01*
X16520Y88933D01*
X16482Y88978D01*
X16452Y89028D01*
X16391Y89086D01*
X16336Y89150D01*
X16288Y89182D01*
X16245Y89222D01*
X16170Y89261D01*
X16100Y89308D01*
X16044Y89325D01*
X15992Y89352D01*
X15924Y89363D01*
X15829Y89393D01*
X15729Y89396D01*
X15661Y89407D01*
X14108Y89407D01*
X11429Y92086D01*
X11429Y95874D01*
X14108Y98553D01*
X15280Y98553D01*
X15338Y98561D01*
X15396Y98559D01*
X15478Y98581D01*
X15561Y98593D01*
X15615Y98616D01*
X15671Y98631D01*
X15744Y98674D01*
X15821Y98709D01*
X15865Y98747D01*
X15916Y98776D01*
X15973Y98838D01*
X16038Y98892D01*
X16070Y98941D01*
X16110Y98984D01*
X16149Y99059D01*
X16195Y99129D01*
X16213Y99185D01*
X16240Y99237D01*
X16251Y99305D01*
X16281Y99400D01*
X16284Y99500D01*
X16295Y99568D01*
X16295Y100900D01*
X16287Y100958D01*
X16288Y101016D01*
X16267Y101098D01*
X16255Y101181D01*
X16231Y101235D01*
X16217Y101291D01*
X16174Y101364D01*
X16139Y101441D01*
X16101Y101485D01*
X16071Y101536D01*
X16010Y101593D01*
X15955Y101658D01*
X15907Y101690D01*
X15864Y101730D01*
X15789Y101769D01*
X15719Y101815D01*
X15663Y101833D01*
X15611Y101860D01*
X15543Y101871D01*
X15448Y101901D01*
X15348Y101904D01*
X15280Y101915D01*
X13916Y101915D01*
X11237Y104594D01*
X11237Y108382D01*
X13916Y111061D01*
X16764Y111061D01*
X16822Y111069D01*
X16880Y111067D01*
X16962Y111089D01*
X17046Y111100D01*
X17099Y111124D01*
X17155Y111139D01*
X17228Y111182D01*
X17305Y111217D01*
X17350Y111254D01*
X17400Y111284D01*
X17458Y111346D01*
X17522Y111400D01*
X17554Y111449D01*
X17594Y111492D01*
X17633Y111567D01*
X17680Y111637D01*
X17697Y111693D01*
X17724Y111745D01*
X17735Y111813D01*
X17765Y111908D01*
X17768Y112008D01*
X17779Y112076D01*
X17779Y114670D01*
X20458Y117349D01*
X23622Y117349D01*
X23680Y117357D01*
X23738Y117355D01*
X23820Y117377D01*
X23904Y117389D01*
X23957Y117412D01*
X24013Y117427D01*
X24086Y117470D01*
X24163Y117505D01*
X24208Y117543D01*
X24258Y117572D01*
X24316Y117634D01*
X24380Y117688D01*
X24412Y117737D01*
X24452Y117780D01*
X24491Y117855D01*
X24538Y117925D01*
X24555Y117981D01*
X24582Y118033D01*
X24593Y118101D01*
X24623Y118196D01*
X24626Y118296D01*
X24637Y118364D01*
X24637Y121020D01*
X27316Y123699D01*
X31104Y123699D01*
X32839Y121964D01*
X32909Y121912D01*
X32972Y121852D01*
X33022Y121826D01*
X33066Y121793D01*
X33148Y121762D01*
X33226Y121722D01*
X33273Y121714D01*
X33332Y121692D01*
X33479Y121680D01*
X33557Y121667D01*
X35660Y121667D01*
X35747Y121679D01*
X35834Y121682D01*
X35887Y121699D01*
X35941Y121707D01*
X36021Y121742D01*
X36104Y121769D01*
X36144Y121797D01*
X36201Y121823D01*
X36314Y121919D01*
X36378Y121964D01*
X36728Y122315D01*
X69992Y122315D01*
X70885Y121422D01*
X70885Y116658D01*
X70884Y116658D01*
X70849Y116611D01*
X70807Y116571D01*
X70764Y116498D01*
X70713Y116431D01*
X70693Y116376D01*
X70663Y116326D01*
X70642Y116244D01*
X70612Y116165D01*
X70607Y116107D01*
X70593Y116050D01*
X70596Y115966D01*
X70588Y115882D01*
X70600Y115824D01*
X70602Y115766D01*
X70628Y115686D01*
X70644Y115603D01*
X70671Y115551D01*
X70689Y115495D01*
X70729Y115439D01*
X70775Y115351D01*
X70844Y115278D01*
X70884Y115222D01*
X70885Y115222D01*
X70885Y110458D01*
X70884Y110458D01*
X70849Y110411D01*
X70807Y110371D01*
X70764Y110298D01*
X70713Y110231D01*
X70693Y110176D01*
X70663Y110126D01*
X70642Y110044D01*
X70612Y109965D01*
X70607Y109907D01*
X70593Y109850D01*
X70596Y109766D01*
X70588Y109682D01*
X70600Y109624D01*
X70602Y109566D01*
X70628Y109486D01*
X70644Y109403D01*
X70671Y109351D01*
X70689Y109295D01*
X70729Y109239D01*
X70775Y109151D01*
X70844Y109078D01*
X70884Y109022D01*
X70885Y109022D01*
X70885Y104258D01*
X70884Y104258D01*
X70873Y104243D01*
X70864Y104235D01*
X70846Y104208D01*
X70807Y104171D01*
X70764Y104098D01*
X70713Y104031D01*
X70693Y103976D01*
X70663Y103926D01*
X70642Y103844D01*
X70612Y103765D01*
X70607Y103707D01*
X70593Y103650D01*
X70596Y103566D01*
X70588Y103482D01*
X70600Y103424D01*
X70602Y103366D01*
X70628Y103286D01*
X70644Y103203D01*
X70671Y103151D01*
X70689Y103095D01*
X70729Y103039D01*
X70775Y102951D01*
X70844Y102878D01*
X70884Y102822D01*
X70885Y102822D01*
X70885Y98058D01*
X70884Y98058D01*
X70849Y98011D01*
X70807Y97971D01*
X70764Y97898D01*
X70713Y97831D01*
X70693Y97776D01*
X70663Y97726D01*
X70642Y97644D01*
X70612Y97565D01*
X70607Y97507D01*
X70593Y97450D01*
X70596Y97366D01*
X70588Y97282D01*
X70600Y97224D01*
X70602Y97166D01*
X70628Y97086D01*
X70644Y97003D01*
X70671Y96951D01*
X70689Y96895D01*
X70729Y96839D01*
X70775Y96751D01*
X70844Y96678D01*
X70884Y96622D01*
X70885Y96622D01*
X70885Y91858D01*
X70884Y91858D01*
X70849Y91811D01*
X70807Y91771D01*
X70764Y91698D01*
X70713Y91631D01*
X70693Y91576D01*
X70663Y91526D01*
X70642Y91444D01*
X70612Y91365D01*
X70607Y91307D01*
X70593Y91250D01*
X70596Y91166D01*
X70588Y91082D01*
X70600Y91024D01*
X70602Y90966D01*
X70628Y90886D01*
X70644Y90803D01*
X70671Y90751D01*
X70689Y90695D01*
X70729Y90639D01*
X70775Y90551D01*
X70844Y90478D01*
X70884Y90422D01*
X70885Y90422D01*
X70885Y85658D01*
X70884Y85658D01*
X70849Y85611D01*
X70807Y85571D01*
X70764Y85498D01*
X70713Y85431D01*
X70693Y85376D01*
X70663Y85326D01*
X70642Y85244D01*
X70612Y85165D01*
X70607Y85107D01*
X70593Y85050D01*
X70596Y84966D01*
X70588Y84882D01*
X70600Y84824D01*
X70602Y84766D01*
X70628Y84686D01*
X70644Y84603D01*
X70671Y84551D01*
X70689Y84495D01*
X70729Y84439D01*
X70775Y84351D01*
X70844Y84278D01*
X70884Y84222D01*
X70885Y84222D01*
X70885Y79458D01*
X70884Y79458D01*
X70849Y79411D01*
X70807Y79371D01*
X70764Y79298D01*
X70713Y79231D01*
X70693Y79176D01*
X70663Y79126D01*
X70642Y79044D01*
X70612Y78965D01*
X70607Y78907D01*
X70593Y78850D01*
X70596Y78766D01*
X70588Y78682D01*
X70600Y78624D01*
X70602Y78566D01*
X70628Y78486D01*
X70644Y78403D01*
X70671Y78351D01*
X70689Y78295D01*
X70729Y78239D01*
X70775Y78151D01*
X70844Y78078D01*
X70884Y78022D01*
X70885Y78022D01*
X70885Y73258D01*
X70884Y73258D01*
X70849Y73211D01*
X70807Y73171D01*
X70764Y73098D01*
X70713Y73031D01*
X70693Y72976D01*
X70663Y72926D01*
X70642Y72844D01*
X70612Y72765D01*
X70607Y72707D01*
X70593Y72650D01*
X70596Y72566D01*
X70588Y72482D01*
X70600Y72424D01*
X70602Y72366D01*
X70628Y72286D01*
X70644Y72203D01*
X70671Y72151D01*
X70689Y72095D01*
X70729Y72039D01*
X70775Y71951D01*
X70844Y71878D01*
X70884Y71822D01*
X70885Y71822D01*
X70885Y67058D01*
X70884Y67058D01*
X70849Y67011D01*
X70807Y66971D01*
X70764Y66898D01*
X70713Y66831D01*
X70693Y66776D01*
X70663Y66726D01*
X70642Y66644D01*
X70612Y66565D01*
X70607Y66507D01*
X70593Y66450D01*
X70596Y66366D01*
X70588Y66282D01*
X70600Y66224D01*
X70602Y66166D01*
X70628Y66086D01*
X70644Y66003D01*
X70671Y65951D01*
X70689Y65895D01*
X70729Y65839D01*
X70775Y65751D01*
X70844Y65678D01*
X70884Y65622D01*
X70885Y65622D01*
X70885Y60858D01*
X70884Y60858D01*
X70849Y60811D01*
X70807Y60771D01*
X70764Y60698D01*
X70713Y60631D01*
X70693Y60576D01*
X70663Y60526D01*
X70642Y60444D01*
X70612Y60365D01*
X70607Y60307D01*
X70593Y60250D01*
X70596Y60166D01*
X70588Y60082D01*
X70600Y60024D01*
X70602Y59966D01*
X70628Y59886D01*
X70644Y59803D01*
X70671Y59751D01*
X70689Y59695D01*
X70729Y59639D01*
X70775Y59551D01*
X70844Y59478D01*
X70884Y59422D01*
X70885Y59422D01*
X70885Y54658D01*
X70884Y54658D01*
X70849Y54611D01*
X70807Y54571D01*
X70764Y54498D01*
X70713Y54431D01*
X70693Y54376D01*
X70663Y54326D01*
X70642Y54244D01*
X70612Y54165D01*
X70607Y54107D01*
X70593Y54050D01*
X70596Y53966D01*
X70588Y53882D01*
X70600Y53824D01*
X70602Y53766D01*
X70628Y53686D01*
X70644Y53603D01*
X70671Y53551D01*
X70689Y53495D01*
X70729Y53439D01*
X70775Y53351D01*
X70844Y53278D01*
X70884Y53222D01*
X70885Y53222D01*
X70885Y48458D01*
X70884Y48458D01*
X70849Y48411D01*
X70807Y48371D01*
X70764Y48298D01*
X70713Y48231D01*
X70693Y48176D01*
X70663Y48126D01*
X70642Y48044D01*
X70612Y47965D01*
X70607Y47907D01*
X70593Y47850D01*
X70596Y47766D01*
X70588Y47682D01*
X70600Y47624D01*
X70602Y47566D01*
X70628Y47486D01*
X70644Y47403D01*
X70671Y47351D01*
X70689Y47295D01*
X70729Y47239D01*
X70775Y47151D01*
X70816Y47108D01*
X70829Y47085D01*
X70859Y47058D01*
X70884Y47022D01*
X70885Y47022D01*
X70885Y42258D01*
X70884Y42258D01*
X70849Y42211D01*
X70807Y42171D01*
X70764Y42098D01*
X70713Y42031D01*
X70693Y41976D01*
X70663Y41926D01*
X70642Y41844D01*
X70612Y41765D01*
X70607Y41707D01*
X70593Y41650D01*
X70596Y41566D01*
X70588Y41482D01*
X70600Y41424D01*
X70602Y41366D01*
X70628Y41286D01*
X70644Y41203D01*
X70671Y41151D01*
X70689Y41095D01*
X70729Y41039D01*
X70775Y40951D01*
X70844Y40878D01*
X70884Y40822D01*
X70885Y40822D01*
X70885Y36058D01*
X69992Y35165D01*
X36728Y35165D01*
X36378Y35516D01*
X36308Y35568D01*
X36244Y35628D01*
X36195Y35654D01*
X36151Y35687D01*
X36069Y35718D01*
X35991Y35758D01*
X35943Y35766D01*
X35885Y35788D01*
X35737Y35800D01*
X35660Y35813D01*
X33049Y35813D01*
X32962Y35801D01*
X32875Y35798D01*
X32822Y35781D01*
X32767Y35773D01*
X32687Y35738D01*
X32604Y35711D01*
X32565Y35683D01*
X32508Y35657D01*
X32394Y35561D01*
X32331Y35516D01*
X30596Y33781D01*
X26808Y33781D01*
G37*
%LPD*%
D10*
X53360Y119040D03*
X53360Y112840D03*
X53360Y106640D03*
X53360Y100440D03*
X53360Y94240D03*
X53360Y88040D03*
X53360Y81840D03*
X53360Y75640D03*
X53360Y69440D03*
X53360Y63240D03*
X53360Y57040D03*
X53360Y50840D03*
X53360Y44640D03*
X53360Y38440D03*
D11*
X29210Y119126D03*
D12*
X53360Y119126D01*
X53360Y119040D01*
D11*
X22352Y112776D03*
D12*
X53296Y112776D01*
X53360Y112840D01*
D11*
X15810Y106488D03*
D12*
X53208Y106488D01*
X53360Y106640D01*
D11*
X20868Y100493D03*
D12*
X20921Y100440D01*
X53360Y100440D01*
D11*
X16002Y93980D03*
D12*
X53100Y93980D01*
X53360Y94240D01*
D11*
X21249Y88174D03*
D12*
X53226Y88174D02*
X53360Y88040D01*
X53226Y88174D02*
X21249Y88174D01*
D11*
X15912Y81698D03*
D12*
X53218Y81698D01*
X53360Y81840D01*
D11*
X13657Y72136D03*
D12*
X17161Y75640D01*
X53360Y75640D01*
D11*
X22773Y69560D03*
D12*
X53240Y69560D01*
X53360Y69440D01*
D11*
X15937Y63311D03*
D12*
X53289Y63311D01*
X53360Y63240D01*
D11*
X21401Y57215D03*
D12*
X53185Y57215D01*
X53360Y57040D01*
D11*
X16002Y51054D03*
D12*
X53146Y51054D01*
X53360Y50840D01*
D11*
X21844Y44450D03*
D12*
X53170Y44450D01*
X53360Y44640D01*
D11*
X28702Y38354D03*
D12*
X53360Y38354D01*
X53360Y38440D01*
M02*
